SplineFontDB: 3.2
FontName: DevanagariPixel
FullName: Devanagari Pixel Regular
FamilyName: Devanagari Pixel
Weight: Book
Copyright: Shankar Sivarajan
Version: 1.0
ItalicAngle: 0
UnderlinePosition: 128
UnderlineWidth: 32
Ascent: 1024
Descent: 0
InvalidEm: 0
sfntRevision: 0x00010000
LayerCount: 2
Layer: 0 1 "Back" 1
Layer: 1 1 "Fore" 0
XUID: [1021 146 -1796264217 23096]
StyleMap: 0x0040
FSType: 4
OS2Version: 2
OS2_WeightWidthSlopeOnly: 0
OS2_UseTypoMetrics: 0
CreationTime: 1680230654
ModificationTime: 1742421318
PfmFamily: 81
TTFWeight: 400
TTFWidth: 5
LineGap: 85
VLineGap: 0
Panose: 0 0 6 0 0 0 0 0 0 0
OS2TypoAscent: 1109
OS2TypoAOffset: 0
OS2TypoDescent: -427
OS2TypoDOffset: 0
OS2TypoLinegap: 85
OS2WinAscent: 1109
OS2WinAOffset: 0
OS2WinDescent: 427
OS2WinDOffset: 0
HheadAscent: 1109
HheadAOffset: 0
HheadDescent: -427
HheadDOffset: 0
OS2SubXSize: 512
OS2SubYSize: 512
OS2SubXOff: 0
OS2SubYOff: -73
OS2SupXSize: 512
OS2SupYSize: 512
OS2SupXOff: 0
OS2SupYOff: 512
OS2StrikeYSize: 51
OS2StrikeYPos: 205
OS2Vendor: '    '
OS2CodePages: 00000001.00000000
OS2UnicodeRanges: 00008003.00000000.00000000.00000000
Lookup: 4 0 1 "Irregular" { "Irregular subtable"  } ['liga' ('DFLT' <'dflt' > 'dev2' <'dflt' > 'deva' <'dflt' > 'latn' <'dflt' > ) ]
Lookup: 4 0 1 "Halved" { "Halved subtable"  } ['liga' ('DFLT' <'dflt' > 'dev2' <'dflt' > 'deva' <'dflt' > 'latn' <'dflt' > ) ]
Lookup: 4 0 1 "SpecialR" { "SpecialR subtable"  } ['liga' ('DFLT' <'dflt' > 'dev2' <'dflt' > 'deva' <'dflt' > 'latn' <'dflt' > ) ]
Lookup: 260 0 0 "'mark' Mark Positioning in Devanagari2 lookup 0" { "'mark' Mark Positioning in Devanagari2 lookup 0-1"  } ['mark' ('DFLT' <'dflt' > 'cyrl' <'dflt' > 'dev2' <'dflt' > 'deva' <'dflt' > 'latn' <'dflt' > ) ]
MarkAttachClasses: 1
DEI: 91125
ShortTable: maxp 16
  1
  0
  94
  88
  14
  0
  0
  2
  0
  0
  0
  0
  0
  0
  0
  0
EndShort
LangName: 1033 "" "" "Regular" "DevanagariPixel" "" "" "" "" "" "Shankar Sivarajan"
Encoding: Custom
Compacted: 1
UnicodeInterp: none

StartChar: .notdef
Encoding: 92 -1 0
Width: 640
GlyphClass: 1
Flags: W
LayerCount: 2
Fore
SplineSet
128 896 m 1,0,-1
 128 1024 l 1,1,-1
 384 1024 l 1,2,-1
 384 896 l 1,3,-1
 128 896 l 1,0,-1
128 128 m 1,4,-1
 128 256 l 1,5,-1
 384 256 l 1,6,-1
 384 128 l 1,7,-1
 128 128 l 1,4,-1
384 128 m 1,8,-1
 512 128 l 1,9,-1
 512 1024 l 1,10,-1
 384 1024 l 1,11,-1
 384 128 l 1,8,-1
0 128 m 1,12,-1
 0 1024 l 1,13,-1
 128 1024 l 1,14,-1
 128 128 l 1,15,-1
 0 128 l 1,12,-1
EndSplineSet
Validated: 5
EndChar

StartChar: uni0901
Encoding: 2 2305 3
Width: 0
GlyphClass: 1
Flags: W
AnchorPoint: "mark_up" -256 1024 mark 0
LayerCount: 2
Fore
SplineSet
-256 1536 m 1024,0,-1
-128 1536 m 1024,1,-1
-256 1536 m 1,2,-1
 -256 1664 l 1,3,-1
 -128 1664 l 1,4,-1
 -128 1536 l 1,5,-1
 -256 1536 l 1,2,-1
-384 1408 m 1,6,-1
 -256 1408 l 1,7,-1
 -256 1280 l 1,8,-1
 -384 1280 l 1,9,-1
 -384 1408 l 1,6,-1
-128 1408 m 1,10,-1
 0 1408 l 1,11,-1
 0 1280 l 1,12,-1
 -128 1280 l 1,13,-1
 -128 1408 l 1,10,-1
-256 1280 m 1,14,-1
 -128 1280 l 1,15,-1
 -128 1152 l 1,16,-1
 -256 1152 l 1,17,-1
 -256 1280 l 1,14,-1
EndSplineSet
Validated: 5
EndChar

StartChar: uni0902
Encoding: 3 2306 4
Width: 0
GlyphClass: 1
Flags: W
AnchorPoint: "mark_up" -128 1024 mark 0
LayerCount: 2
Fore
SplineSet
-128 1152 m 1025,0,-1
0 1152 m 1025,1,-1
-128 1152 m 1,2,-1
 -128 1280 l 1,3,-1
 0 1280 l 1,4,-1
 0 1152 l 1,5,-1
 -128 1152 l 1,2,-1
EndSplineSet
Validated: 1
EndChar

StartChar: uni0903
Encoding: 4 2307 5
Width: 256
GlyphClass: 1
Flags: W
LayerCount: 2
Fore
SplineSet
0 256 m 1,0,-1
 0 384 l 1,1,-1
 128 384 l 1,2,-1
 128 256 l 1,3,-1
 0 256 l 1,0,-1
0 640 m 1,4,-1
 0 768 l 1,5,-1
 128 768 l 1,6,-1
 128 640 l 1,7,-1
 0 640 l 1,4,-1
EndSplineSet
Validated: 1
EndChar

StartChar: uni0904
Encoding: 5 2308 6
Width: 896
GlyphClass: 1
Flags: W
LayerCount: 2
Fore
SplineSet
384 1408 m 1,0,-1
 384 1536 l 1,1,-1
 512 1536 l 1,2,-1
 512 1408 l 1,3,-1
 384 1408 l 1,0,-1
512 1280 m 1,4,-1
 512 1408 l 1,5,-1
 640 1408 l 1,6,-1
 768 1408 l 1,7,-1
 768 1280 l 1,8,-1
 640 1280 l 1,9,-1
 512 1280 l 1,4,-1
640 1024 m 1,10,-1
 640 1152 l 1,11,-1
 768 1152 l 1,12,-1
 768 1024 l 1,13,-1
 640 1024 l 1,10,-1
768 1152 m 1,14,-1
 768 1280 l 1,15,-1
 896 1280 l 1,16,-1
 896 1152 l 1,17,-1
 768 1152 l 1,14,-1
0 256 m 1,18,-1
 0 384 l 1,19,-1
 128 384 l 1,20,-1
 128 256 l 1,21,-1
 0 256 l 1,18,-1
0 768 m 1,22,-1
 0 896 l 1,23,-1
 128 896 l 1,24,-1
 128 768 l 1,25,-1
 0 768 l 1,22,-1
128 128 m 1,26,-1
 128 256 l 1,27,-1
 256 256 l 1,28,-1
 384 256 l 1,29,-1
 384 128 l 1,30,-1
 256 128 l 1,31,-1
 128 128 l 1,26,-1
128 896 m 1,32,-1
 128 1024 l 1,33,-1
 256 1024 l 1,34,-1
 384 1024 l 1,35,-1
 384 896 l 1,36,-1
 256 896 l 1,37,-1
 128 896 l 1,32,-1
256 512 m 1,38,-1
 256 640 l 1,39,-1
 384 640 l 1,40,-1
 384 512 l 1,41,-1
 256 512 l 1,38,-1
384 256 m 1,42,-1
 384 384 l 1,43,-1
 384 512 l 1,44,-1
 512 512 l 1,45,-1
 640 512 l 1,46,-1
 640 640 l 1,47,-1
 640 768 l 1,48,-1
 640 896 l 1,49,-1
 640 1024 l 1,50,-1
 768 1024 l 1,51,-1
 768 896 l 1,52,-1
 768 768 l 1,53,-1
 768 640 l 1,54,-1
 768 512 l 1,55,-1
 768 384 l 1,56,-1
 768 256 l 1,57,-1
 768 128 l 1,58,-1
 640 128 l 1,59,-1
 640 256 l 1,60,-1
 640 384 l 1,61,-1
 512 384 l 1,62,-1
 512 256 l 1,63,-1
 384 256 l 1,42,-1
384 640 m 1,64,-1
 384 768 l 1,65,-1
 384 896 l 1,66,-1
 512 896 l 1,67,-1
 512 768 l 1,68,-1
 512 640 l 1,69,-1
 384 640 l 1,64,-1
EndSplineSet
Validated: 5
EndChar

StartChar: uni0905
Encoding: 6 2309 7
Width: 896
GlyphClass: 1
Flags: W
LayerCount: 2
Fore
SplineSet
0 256 m 1,0,-1
 0 384 l 1,1,-1
 128 384 l 1,2,-1
 128 256 l 1,3,-1
 0 256 l 1,0,-1
0 768 m 1,4,-1
 0 896 l 1,5,-1
 128 896 l 1,6,-1
 128 768 l 1,7,-1
 0 768 l 1,4,-1
128 128 m 1,8,-1
 128 256 l 1,9,-1
 256 256 l 1,10,-1
 384 256 l 1,11,-1
 384 128 l 1,12,-1
 256 128 l 1,13,-1
 128 128 l 1,8,-1
128 896 m 1,14,-1
 128 1024 l 1,15,-1
 256 1024 l 1,16,-1
 384 1024 l 1,17,-1
 384 896 l 1,18,-1
 256 896 l 1,19,-1
 128 896 l 1,14,-1
256 512 m 1,20,-1
 256 640 l 1,21,-1
 384 640 l 1,22,-1
 384 512 l 1,23,-1
 256 512 l 1,20,-1
384 256 m 1,24,-1
 384 384 l 1,25,-1
 384 512 l 1,26,-1
 512 512 l 1,27,-1
 640 512 l 1,28,-1
 640 640 l 1,29,-1
 640 768 l 1,30,-1
 640 896 l 1,31,-1
 640 1024 l 1,32,-1
 768 1024 l 1,33,-1
 768 896 l 1,34,-1
 768 768 l 1,35,-1
 768 640 l 1,36,-1
 768 512 l 1,37,-1
 768 384 l 1,38,-1
 768 256 l 1,39,-1
 768 128 l 1,40,-1
 640 128 l 1,41,-1
 640 256 l 1,42,-1
 640 384 l 1,43,-1
 512 384 l 1,44,-1
 512 256 l 1,45,-1
 384 256 l 1,24,-1
384 640 m 1,46,-1
 384 768 l 1,47,-1
 384 896 l 1,48,-1
 512 896 l 1,49,-1
 512 768 l 1,50,-1
 512 640 l 1,51,-1
 384 640 l 1,46,-1
EndSplineSet
Validated: 5
EndChar

StartChar: uni0906
Encoding: 7 2310 8
Width: 1152
GlyphClass: 1
Flags: W
LayerCount: 2
Fore
SplineSet
0 256 m 5,0,-1
 0 384 l 5,1,-1
 128 384 l 5,2,-1
 128 256 l 5,3,-1
 0 256 l 5,0,-1
0 768 m 5,4,-1
 0 896 l 5,5,-1
 128 896 l 5,6,-1
 128 768 l 5,7,-1
 0 768 l 5,4,-1
128 128 m 5,8,-1
 128 256 l 5,9,-1
 256 256 l 5,10,-1
 384 256 l 5,11,-1
 384 128 l 5,12,-1
 256 128 l 5,13,-1
 128 128 l 5,8,-1
128 896 m 5,14,-1
 128 1024 l 5,15,-1
 256 1024 l 5,16,-1
 384 1024 l 5,17,-1
 384 896 l 5,18,-1
 256 896 l 5,19,-1
 128 896 l 5,14,-1
256 512 m 5,20,-1
 256 640 l 5,21,-1
 384 640 l 5,22,-1
 384 512 l 5,23,-1
 256 512 l 5,20,-1
384 256 m 5,24,-1
 384 384 l 5,25,-1
 384 512 l 5,26,-1
 512 512 l 5,27,-1
 640 512 l 5,28,-1
 640 640 l 5,29,-1
 640 768 l 5,30,-1
 640 896 l 5,31,-1
 640 1024 l 5,32,-1
 768 1024 l 5,33,-1
 896 1024 l 5,34,-1
 1024 1024 l 5,35,-1
 1024 896 l 5,36,-1
 1024 768 l 5,37,-1
 1024 640 l 5,38,-1
 1024 512 l 5,39,-1
 1024 384 l 5,40,-1
 1024 256 l 5,41,-1
 1024 128 l 5,42,-1
 896 128 l 5,43,-1
 896 256 l 5,44,-1
 896 384 l 5,45,-1
 896 512 l 5,46,-1
 896 640 l 5,47,-1
 896 768 l 5,48,-1
 896 896 l 5,49,-1
 768 896 l 5,50,-1
 768 768 l 5,51,-1
 768 640 l 5,52,-1
 768 512 l 5,53,-1
 768 384 l 5,54,-1
 768 256 l 5,55,-1
 768 128 l 5,56,-1
 640 128 l 5,57,-1
 640 256 l 5,58,-1
 640 384 l 5,59,-1
 512 384 l 5,60,-1
 512 256 l 5,61,-1
 384 256 l 5,24,-1
384 640 m 5,62,-1
 384 768 l 5,63,-1
 384 896 l 5,64,-1
 512 896 l 5,65,-1
 512 768 l 5,66,-1
 512 640 l 5,67,-1
 384 640 l 5,62,-1
EndSplineSet
Validated: 5
EndChar

StartChar: uni0907
Encoding: 8 2311 9
Width: 640
GlyphClass: 1
Flags: W
LayerCount: 2
Fore
SplineSet
0 128 m 1,0,-1
 0 256 l 1,1,-1
 128 256 l 1,2,-1
 256 256 l 1,3,-1
 384 256 l 1,4,-1
 384 128 l 1,5,-1
 256 128 l 1,6,-1
 256 0 l 1,7,-1
 128 0 l 1,8,-1
 128 128 l 1,9,-1
 0 128 l 1,0,-1
0 512 m 1,10,-1
 0 640 l 1,11,-1
 128 640 l 1,12,-1
 128 512 l 1,13,-1
 0 512 l 1,10,-1
0 896 m 1,14,-1
 0 1024 l 1,15,-1
 128 1024 l 1,16,-1
 256 1024 l 1,17,-1
 384 1024 l 1,18,-1
 512 1024 l 1,19,-1
 512 896 l 1,20,-1
 384 896 l 1,21,-1
 384 768 l 1,22,-1
 384 640 l 1,23,-1
 256 640 l 1,24,-1
 128 640 l 1,25,-1
 128 768 l 1,26,-1
 256 768 l 1,27,-1
 256 896 l 1,28,-1
 128 896 l 1,29,-1
 0 896 l 1,14,-1
128 384 m 1,30,-1
 128 512 l 1,31,-1
 256 512 l 1,32,-1
 384 512 l 1,33,-1
 384 384 l 1,34,-1
 256 384 l 1,35,-1
 128 384 l 1,30,-1
384 256 m 1,36,-1
 384 384 l 1,37,-1
 512 384 l 1,38,-1
 512 256 l 1,39,-1
 384 256 l 1,36,-1
EndSplineSet
Validated: 5
EndChar

StartChar: uni0908
Encoding: 9 2312 10
Width: 640
GlyphClass: 1
Flags: W
LayerCount: 2
Fore
SplineSet
0 128 m 5,0,-1
 0 256 l 5,1,-1
 128 256 l 5,2,-1
 256 256 l 5,3,-1
 384 256 l 5,4,-1
 384 128 l 5,5,-1
 256 128 l 5,6,-1
 256 0 l 5,7,-1
 128 0 l 5,8,-1
 128 128 l 5,9,-1
 0 128 l 5,0,-1
0 512 m 5,10,-1
 0 640 l 5,11,-1
 128 640 l 5,12,-1
 128 512 l 5,13,-1
 0 512 l 5,10,-1
0 896 m 5,14,-1
 0 1024 l 5,15,-1
 128 1024 l 5,16,-1
 256 1024 l 5,17,-1
 256 1152 l 5,18,-1
 256 1280 l 5,19,-1
 384 1280 l 5,20,-1
 384 1152 l 5,21,-1
 384 1024 l 5,22,-1
 512 1024 l 5,23,-1
 512 896 l 5,24,-1
 384 896 l 5,25,-1
 384 768 l 5,26,-1
 384 640 l 5,27,-1
 256 640 l 5,28,-1
 128 640 l 5,29,-1
 128 768 l 5,30,-1
 256 768 l 5,31,-1
 256 896 l 5,32,-1
 128 896 l 5,33,-1
 0 896 l 5,14,-1
128 384 m 5,34,-1
 128 512 l 5,35,-1
 256 512 l 5,36,-1
 384 512 l 5,37,-1
 384 384 l 5,38,-1
 256 384 l 5,39,-1
 128 384 l 5,34,-1
384 256 m 5,40,-1
 384 384 l 5,41,-1
 512 384 l 5,42,-1
 512 256 l 5,43,-1
 384 256 l 5,40,-1
384 1280 m 5,44,-1
 384 1408 l 5,45,-1
 512 1408 l 5,46,-1
 512 1280 l 5,47,-1
 384 1280 l 5,44,-1
512 1152 m 5,48,-1
 512 1280 l 5,49,-1
 640 1280 l 5,50,-1
 640 1152 l 5,51,-1
 512 1152 l 5,48,-1
EndSplineSet
Validated: 5
EndChar

StartChar: uni0909
Encoding: 10 2313 11
Width: 640
GlyphClass: 1
Flags: W
LayerCount: 2
Fore
SplineSet
0 256 m 1,0,-1
 0 384 l 1,1,-1
 128 384 l 1,2,-1
 128 256 l 1,3,-1
 0 256 l 1,0,-1
0 896 m 1,4,-1
 0 1024 l 1,5,-1
 128 1024 l 1,6,-1
 256 1024 l 1,7,-1
 384 1024 l 1,8,-1
 512 1024 l 1,9,-1
 512 896 l 1,10,-1
 512 768 l 1,11,-1
 512 640 l 1,12,-1
 384 640 l 1,13,-1
 384 768 l 1,14,-1
 384 896 l 1,15,-1
 256 896 l 1,16,-1
 128 896 l 1,17,-1
 0 896 l 1,4,-1
128 128 m 1,18,-1
 128 256 l 1,19,-1
 256 256 l 1,20,-1
 384 256 l 1,21,-1
 384 128 l 1,22,-1
 256 128 l 1,23,-1
 128 128 l 1,18,-1
256 512 m 1,24,-1
 256 640 l 1,25,-1
 384 640 l 1,26,-1
 384 512 l 1,27,-1
 256 512 l 1,24,-1
384 256 m 1,28,-1
 384 384 l 1,29,-1
 384 512 l 1,30,-1
 512 512 l 1,31,-1
 512 384 l 1,32,-1
 512 256 l 1,33,-1
 384 256 l 1,28,-1
EndSplineSet
Validated: 5
EndChar

StartChar: uni090A
Encoding: 11 2314 12
Width: 1024
GlyphClass: 1
Flags: W
LayerCount: 2
Fore
SplineSet
0 256 m 5,0,-1
 0 384 l 5,1,-1
 128 384 l 5,2,-1
 128 256 l 5,3,-1
 0 256 l 5,0,-1
0 896 m 5,4,-1
 0 1024 l 5,5,-1
 128 1024 l 5,6,-1
 256 1024 l 5,7,-1
 384 1024 l 5,8,-1
 512 1024 l 5,9,-1
 640 1024 l 5,10,-1
 768 1024 l 5,11,-1
 896 1024 l 5,12,-1
 896 896 l 5,13,-1
 768 896 l 5,14,-1
 640 896 l 5,15,-1
 512 896 l 5,16,-1
 512 768 l 5,17,-1
 512 640 l 5,18,-1
 384 640 l 5,19,-1
 384 768 l 5,20,-1
 384 896 l 5,21,-1
 256 896 l 5,22,-1
 128 896 l 5,23,-1
 0 896 l 5,4,-1
128 128 m 5,24,-1
 128 256 l 5,25,-1
 256 256 l 5,26,-1
 384 256 l 5,27,-1
 384 128 l 5,28,-1
 256 128 l 5,29,-1
 128 128 l 5,24,-1
256 512 m 5,30,-1
 256 640 l 5,31,-1
 384 640 l 5,32,-1
 384 512 l 5,33,-1
 256 512 l 5,30,-1
384 256 m 5,34,-1
 384 384 l 5,35,-1
 384 512 l 5,36,-1
 512 512 l 5,37,-1
 640 512 l 5,38,-1
 640 384 l 5,39,-1
 512 384 l 5,40,-1
 512 256 l 5,41,-1
 384 256 l 5,34,-1
640 128 m 5,42,-1
 640 256 l 5,43,-1
 768 256 l 5,44,-1
 768 128 l 5,45,-1
 640 128 l 5,42,-1
640 512 m 5,46,-1
 640 640 l 5,47,-1
 768 640 l 5,48,-1
 768 512 l 5,49,-1
 640 512 l 5,46,-1
768 256 m 5,50,-1
 768 384 l 5,51,-1
 768 512 l 5,52,-1
 896 512 l 5,53,-1
 896 384 l 5,54,-1
 896 256 l 5,55,-1
 768 256 l 5,50,-1
EndSplineSet
Validated: 5
EndChar

StartChar: uni090B
Encoding: 12 2315 13
Width: 1024
GlyphClass: 1
Flags: W
LayerCount: 2
Fore
SplineSet
0 256 m 5,0,-1
 0 384 l 5,1,-1
 128 384 l 5,2,-1
 128 256 l 5,3,-1
 0 256 l 5,0,-1
0 640 m 5,4,-1
 0 768 l 5,5,-1
 128 768 l 5,6,-1
 256 768 l 5,7,-1
 256 640 l 5,8,-1
 128 640 l 5,9,-1
 0 640 l 5,4,-1
0 896 m 5,10,-1
 0 1024 l 5,11,-1
 128 1024 l 5,12,-1
 256 1024 l 5,13,-1
 384 1024 l 5,14,-1
 512 1024 l 5,15,-1
 640 1024 l 5,16,-1
 768 1024 l 5,17,-1
 896 1024 l 5,18,-1
 896 896 l 5,19,-1
 768 896 l 5,20,-1
 640 896 l 5,21,-1
 512 896 l 5,22,-1
 512 768 l 5,23,-1
 512 640 l 5,24,-1
 640 640 l 5,25,-1
 640 512 l 5,26,-1
 512 512 l 5,27,-1
 512 384 l 5,28,-1
 512 256 l 5,29,-1
 512 128 l 5,30,-1
 384 128 l 5,31,-1
 384 256 l 5,32,-1
 384 384 l 5,33,-1
 384 512 l 5,34,-1
 256 512 l 5,35,-1
 256 640 l 5,36,-1
 384 640 l 5,37,-1
 384 768 l 5,38,-1
 384 896 l 5,39,-1
 256 896 l 5,40,-1
 128 896 l 5,41,-1
 0 896 l 5,10,-1
128 384 m 5,42,-1
 128 512 l 5,43,-1
 256 512 l 5,44,-1
 256 384 l 5,45,-1
 128 384 l 5,42,-1
640 256 m 5,46,-1
 640 384 l 5,47,-1
 768 384 l 5,48,-1
 768 256 l 5,49,-1
 640 256 l 5,46,-1
640 640 m 5,50,-1
 640 768 l 5,51,-1
 768 768 l 5,52,-1
 768 640 l 5,53,-1
 640 640 l 5,50,-1
768 128 m 5,54,-1
 768 256 l 5,55,-1
 896 256 l 5,56,-1
 896 128 l 5,57,-1
 768 128 l 5,54,-1
768 384 m 5,58,-1
 768 512 l 5,59,-1
 768 640 l 5,60,-1
 896 640 l 5,61,-1
 896 512 l 5,62,-1
 896 384 l 5,63,-1
 768 384 l 5,58,-1
EndSplineSet
Validated: 5
EndChar

StartChar: uni090C
Encoding: 13 2316 14
Width: 1024
GlyphClass: 1
LayerCount: 2
Fore
SplineSet
0 384 m 1,0,-1
 0 512 l 1,1,-1
 0 640 l 1,2,-1
 128 640 l 1,3,-1
 128 512 l 1,4,-1
 128 384 l 1,5,-1
 0 384 l 1,0,-1
0 896 m 1,6,-1
 0 1024 l 1,7,-1
 128 1024 l 1,8,-1
 256 1024 l 1,9,-1
 384 1024 l 1,10,-1
 512 1024 l 1,11,-1
 640 1024 l 1,12,-1
 768 1024 l 1,13,-1
 896 1024 l 1,14,-1
 896 896 l 1,15,-1
 768 896 l 1,16,-1
 768 768 l 1,17,-1
 768 640 l 1,18,-1
 640 640 l 1,19,-1
 512 640 l 1,20,-1
 512 768 l 1,21,-1
 640 768 l 1,22,-1
 640 896 l 1,23,-1
 512 896 l 1,24,-1
 384 896 l 1,25,-1
 256 896 l 1,26,-1
 128 896 l 1,27,-1
 0 896 l 1,6,-1
128 256 m 1,28,-1
 128 384 l 1,29,-1
 256 384 l 1,30,-1
 256 256 l 1,31,-1
 128 256 l 1,28,-1
128 640 m 1,32,-1
 128 768 l 1,33,-1
 256 768 l 1,34,-1
 384 768 l 1,35,-1
 384 640 l 1,36,-1
 256 640 l 1,37,-1
 128 640 l 1,32,-1
384 512 m 1,38,-1
 384 640 l 1,39,-1
 512 640 l 1,40,-1
 512 512 l 1,41,-1
 384 512 l 1,38,-1
640 384 m 1,42,-1
 640 512 l 1,43,-1
 768 512 l 1,44,-1
 768 384 l 1,45,-1
 640 384 l 1,42,-1
768 256 m 1,46,-1
 768 384 l 1,47,-1
 896 384 l 1,48,-1
 896 256 l 1,49,-1
 768 256 l 1,46,-1
768 512 m 1,50,-1
 768 640 l 1,51,-1
 896 640 l 1,52,-1
 896 512 l 1,53,-1
 768 512 l 1,50,-1
EndSplineSet
Validated: 5
EndChar

StartChar: uni090D
Encoding: 14 2317 15
Width: 768
GlyphClass: 1
Flags: W
LayerCount: 2
Fore
SplineSet
256 1408 m 5,0,-1
 384 1408 l 5,1,-1
 384 1280 l 5,2,-1
 256 1280 l 5,3,-1
 256 1408 l 5,0,-1
512 1408 m 5,4,-1
 640 1408 l 5,5,-1
 640 1280 l 5,6,-1
 512 1280 l 5,7,-1
 512 1408 l 5,4,-1
384 1280 m 5,8,-1
 512 1280 l 5,9,-1
 512 1152 l 5,10,-1
 384 1152 l 5,11,-1
 384 1280 l 5,8,-1
0 512 m 1,12,-1
 0 640 l 1,13,-1
 0 768 l 1,14,-1
 0 896 l 1,15,-1
 0 1024 l 1,16,-1
 128 1024 l 1,17,-1
 256 1024 l 1,18,-1
 384 1024 l 1,19,-1
 512 1024 l 1,20,-1
 640 1024 l 1,21,-1
 640 896 l 1,22,-1
 512 896 l 1,23,-1
 512 768 l 1,24,-1
 384 768 l 1,25,-1
 384 896 l 1,26,-1
 256 896 l 1,27,-1
 128 896 l 1,28,-1
 128 768 l 1,29,-1
 128 640 l 1,30,-1
 128 512 l 1,31,-1
 0 512 l 1,12,-1
128 384 m 1,32,-1
 128 512 l 1,33,-1
 256 512 l 1,34,-1
 384 512 l 1,35,-1
 512 512 l 1,36,-1
 512 384 l 1,37,-1
 384 384 l 1,38,-1
 256 384 l 1,39,-1
 128 384 l 1,32,-1
256 640 m 1,40,-1
 256 768 l 1,41,-1
 384 768 l 1,42,-1
 384 640 l 1,43,-1
 256 640 l 1,40,-1
384 128 m 1,44,-1
 384 256 l 1,45,-1
 512 256 l 1,46,-1
 512 128 l 1,47,-1
 384 128 l 1,44,-1
512 256 m 1,48,-1
 512 384 l 1,49,-1
 640 384 l 1,50,-1
 640 256 l 1,51,-1
 512 256 l 1,48,-1
EndSplineSet
Validated: 5
EndChar

StartChar: uni090E
Encoding: 15 2318 16
Width: 768
GlyphClass: 1
Flags: W
LayerCount: 2
Fore
SplineSet
128 1408 m 1,0,-1
 128 1536 l 1,1,-1
 256 1536 l 1,2,-1
 256 1408 l 1,3,-1
 128 1408 l 1,0,-1
256 1280 m 1,4,-1
 256 1408 l 1,5,-1
 384 1408 l 1,6,-1
 512 1408 l 1,7,-1
 512 1280 l 1,8,-1
 384 1280 l 1,9,-1
 256 1280 l 1,4,-1
384 1024 m 1,10,-1
 384 1152 l 1,11,-1
 512 1152 l 1,12,-1
 512 1024 l 1,13,-1
 384 1024 l 1,10,-1
512 1152 m 1,14,-1
 512 1280 l 1,15,-1
 640 1280 l 1,16,-1
 640 1152 l 1,17,-1
 512 1152 l 1,14,-1
0 512 m 1,18,-1
 0 640 l 1,19,-1
 0 768 l 1,20,-1
 0 896 l 1,21,-1
 0 1024 l 1,22,-1
 128 1024 l 1,23,-1
 256 1024 l 1,24,-1
 384 1024 l 1,25,-1
 512 1024 l 1,26,-1
 640 1024 l 1,27,-1
 640 896 l 1,28,-1
 512 896 l 1,29,-1
 512 768 l 1,30,-1
 384 768 l 1,31,-1
 384 896 l 1,32,-1
 256 896 l 1,33,-1
 128 896 l 1,34,-1
 128 768 l 1,35,-1
 128 640 l 1,36,-1
 128 512 l 1,37,-1
 0 512 l 1,18,-1
128 384 m 1,38,-1
 128 512 l 1,39,-1
 256 512 l 1,40,-1
 384 512 l 1,41,-1
 512 512 l 1,42,-1
 512 384 l 1,43,-1
 384 384 l 1,44,-1
 256 384 l 1,45,-1
 128 384 l 1,38,-1
256 640 m 1,46,-1
 256 768 l 1,47,-1
 384 768 l 1,48,-1
 384 640 l 1,49,-1
 256 640 l 1,46,-1
384 128 m 1,50,-1
 384 256 l 1,51,-1
 512 256 l 1,52,-1
 512 128 l 1,53,-1
 384 128 l 1,50,-1
512 256 m 1,54,-1
 512 384 l 1,55,-1
 640 384 l 1,56,-1
 640 256 l 1,57,-1
 512 256 l 1,54,-1
EndSplineSet
Validated: 5
EndChar

StartChar: uni090F
Encoding: 16 2319 17
Width: 768
GlyphClass: 1
Flags: W
LayerCount: 2
Fore
SplineSet
0 512 m 1,0,-1
 0 640 l 1,1,-1
 0 768 l 1,2,-1
 0 896 l 1,3,-1
 0 1024 l 1,4,-1
 128 1024 l 1,5,-1
 256 1024 l 1,6,-1
 384 1024 l 1,7,-1
 512 1024 l 1,8,-1
 640 1024 l 1,9,-1
 640 896 l 1,10,-1
 512 896 l 1,11,-1
 512 768 l 1,12,-1
 384 768 l 1,13,-1
 384 896 l 1,14,-1
 256 896 l 1,15,-1
 128 896 l 1,16,-1
 128 768 l 1,17,-1
 128 640 l 1,18,-1
 128 512 l 1,19,-1
 0 512 l 1,0,-1
128 384 m 1,20,-1
 128 512 l 1,21,-1
 256 512 l 1,22,-1
 384 512 l 1,23,-1
 512 512 l 1,24,-1
 512 384 l 1,25,-1
 384 384 l 1,26,-1
 256 384 l 1,27,-1
 128 384 l 1,20,-1
256 640 m 1,28,-1
 256 768 l 1,29,-1
 384 768 l 1,30,-1
 384 640 l 1,31,-1
 256 640 l 1,28,-1
384 128 m 1,32,-1
 384 256 l 1,33,-1
 512 256 l 1,34,-1
 512 128 l 1,35,-1
 384 128 l 1,32,-1
512 256 m 1,36,-1
 512 384 l 1,37,-1
 640 384 l 1,38,-1
 640 256 l 1,39,-1
 512 256 l 1,36,-1
EndSplineSet
Validated: 5
EndChar

StartChar: uni0910
Encoding: 17 2320 18
Width: 768
GlyphClass: 1
Flags: W
LayerCount: 2
Fore
SplineSet
128 1280 m 1,0,-1
 128 1408 l 1,1,-1
 256 1408 l 1,2,-1
 256 1280 l 1,3,-1
 128 1280 l 1,0,-1
256 1152 m 1,4,-1
 256 1280 l 1,5,-1
 384 1280 l 1,6,-1
 384 1152 l 1,7,-1
 256 1152 l 1,4,-1
384 1024 m 1,8,-1
 384 1152 l 1,9,-1
 512 1152 l 1,10,-1
 512 1024 l 1,11,-1
 384 1024 l 1,8,-1
0 512 m 1,12,-1
 0 640 l 1,13,-1
 0 768 l 1,14,-1
 0 896 l 1,15,-1
 0 1024 l 1,16,-1
 128 1024 l 1,17,-1
 256 1024 l 1,18,-1
 384 1024 l 1,19,-1
 512 1024 l 1,20,-1
 640 1024 l 1,21,-1
 640 896 l 1,22,-1
 512 896 l 1,23,-1
 512 768 l 1,24,-1
 384 768 l 1,25,-1
 384 896 l 1,26,-1
 256 896 l 1,27,-1
 128 896 l 1,28,-1
 128 768 l 1,29,-1
 128 640 l 1,30,-1
 128 512 l 1,31,-1
 0 512 l 1,12,-1
128 384 m 1,32,-1
 128 512 l 1,33,-1
 256 512 l 1,34,-1
 384 512 l 1,35,-1
 512 512 l 1,36,-1
 512 384 l 1,37,-1
 384 384 l 1,38,-1
 256 384 l 1,39,-1
 128 384 l 1,32,-1
256 640 m 1,40,-1
 256 768 l 1,41,-1
 384 768 l 1,42,-1
 384 640 l 1,43,-1
 256 640 l 1,40,-1
384 128 m 1,44,-1
 384 256 l 1,45,-1
 512 256 l 1,46,-1
 512 128 l 1,47,-1
 384 128 l 1,44,-1
512 256 m 1,48,-1
 512 384 l 1,49,-1
 640 384 l 1,50,-1
 640 256 l 1,51,-1
 512 256 l 1,48,-1
EndSplineSet
Validated: 5
EndChar

StartChar: uni0911
Encoding: 18 2321 19
Width: 1152
GlyphClass: 1
Flags: W
LayerCount: 2
Fore
SplineSet
768 1408 m 1,0,-1
 896 1408 l 1,1,-1
 896 1280 l 1,2,-1
 768 1280 l 1,3,-1
 768 1408 l 1,0,-1
1024 1408 m 1,4,-1
 1152 1408 l 1,5,-1
 1152 1280 l 1,6,-1
 1024 1280 l 1,7,-1
 1024 1408 l 1,4,-1
896 1280 m 1,8,-1
 1024 1280 l 1,9,-1
 1024 1152 l 1,10,-1
 896 1152 l 1,11,-1
 896 1280 l 1,8,-1
0 256 m 5,12,-1
 0 384 l 5,13,-1
 128 384 l 5,14,-1
 128 256 l 5,15,-1
 0 256 l 5,12,-1
0 768 m 5,16,-1
 0 896 l 5,17,-1
 128 896 l 5,18,-1
 128 768 l 5,19,-1
 0 768 l 5,16,-1
128 128 m 5,20,-1
 128 256 l 5,21,-1
 256 256 l 5,22,-1
 384 256 l 5,23,-1
 384 128 l 5,24,-1
 256 128 l 5,25,-1
 128 128 l 5,20,-1
128 896 m 5,26,-1
 128 1024 l 5,27,-1
 256 1024 l 5,28,-1
 384 1024 l 5,29,-1
 384 896 l 5,30,-1
 256 896 l 5,31,-1
 128 896 l 5,26,-1
256 512 m 5,32,-1
 256 640 l 5,33,-1
 384 640 l 5,34,-1
 384 512 l 5,35,-1
 256 512 l 5,32,-1
384 256 m 5,36,-1
 384 384 l 5,37,-1
 384 512 l 5,38,-1
 512 512 l 5,39,-1
 640 512 l 5,40,-1
 640 640 l 5,41,-1
 640 768 l 5,42,-1
 640 896 l 5,43,-1
 640 1024 l 5,44,-1
 768 1024 l 5,45,-1
 896 1024 l 5,46,-1
 1024 1024 l 5,47,-1
 1024 896 l 5,48,-1
 1024 768 l 5,49,-1
 1024 640 l 5,50,-1
 1024 512 l 5,51,-1
 1024 384 l 5,52,-1
 1024 256 l 5,53,-1
 1024 128 l 5,54,-1
 896 128 l 5,55,-1
 896 256 l 5,56,-1
 896 384 l 5,57,-1
 896 512 l 5,58,-1
 896 640 l 5,59,-1
 896 768 l 5,60,-1
 896 896 l 5,61,-1
 768 896 l 5,62,-1
 768 768 l 5,63,-1
 768 640 l 5,64,-1
 768 512 l 5,65,-1
 768 384 l 5,66,-1
 768 256 l 5,67,-1
 768 128 l 5,68,-1
 640 128 l 5,69,-1
 640 256 l 5,70,-1
 640 384 l 5,71,-1
 512 384 l 5,72,-1
 512 256 l 5,73,-1
 384 256 l 5,36,-1
384 640 m 5,74,-1
 384 768 l 5,75,-1
 384 896 l 5,76,-1
 512 896 l 5,77,-1
 512 768 l 5,78,-1
 512 640 l 5,79,-1
 384 640 l 5,74,-1
EndSplineSet
Validated: 5
EndChar

StartChar: uni0912
Encoding: 19 2322 20
Width: 1152
GlyphClass: 1
Flags: W
LayerCount: 2
Fore
SplineSet
640 1408 m 1,0,-1
 640 1536 l 1,1,-1
 768 1536 l 1,2,-1
 768 1408 l 1,3,-1
 640 1408 l 1,0,-1
768 1280 m 1,4,-1
 768 1408 l 1,5,-1
 896 1408 l 1,6,-1
 1024 1408 l 1,7,-1
 1024 1280 l 1,8,-1
 896 1280 l 1,9,-1
 768 1280 l 1,4,-1
896 1024 m 1,10,-1
 896 1152 l 1,11,-1
 1024 1152 l 1,12,-1
 1024 1024 l 1,13,-1
 896 1024 l 1,10,-1
1024 1152 m 1,14,-1
 1024 1280 l 1,15,-1
 1152 1280 l 1,16,-1
 1152 1152 l 1,17,-1
 1024 1152 l 1,14,-1
0 256 m 1,18,-1
 0 384 l 1,19,-1
 128 384 l 1,20,-1
 128 256 l 1,21,-1
 0 256 l 1,18,-1
0 768 m 1,22,-1
 0 896 l 1,23,-1
 128 896 l 1,24,-1
 128 768 l 1,25,-1
 0 768 l 1,22,-1
128 128 m 1,26,-1
 128 256 l 1,27,-1
 256 256 l 1,28,-1
 384 256 l 1,29,-1
 384 128 l 1,30,-1
 256 128 l 1,31,-1
 128 128 l 1,26,-1
128 896 m 1,32,-1
 128 1024 l 1,33,-1
 256 1024 l 1,34,-1
 384 1024 l 1,35,-1
 384 896 l 1,36,-1
 256 896 l 1,37,-1
 128 896 l 1,32,-1
256 512 m 1,38,-1
 256 640 l 1,39,-1
 384 640 l 1,40,-1
 384 512 l 1,41,-1
 256 512 l 1,38,-1
384 256 m 1,42,-1
 384 384 l 1,43,-1
 384 512 l 1,44,-1
 512 512 l 1,45,-1
 640 512 l 1,46,-1
 640 640 l 1,47,-1
 640 768 l 1,48,-1
 640 896 l 1,49,-1
 640 1024 l 1,50,-1
 768 1024 l 1,51,-1
 896 1024 l 1,52,-1
 1024 1024 l 1,53,-1
 1024 896 l 1,54,-1
 1024 768 l 1,55,-1
 1024 640 l 1,56,-1
 1024 512 l 1,57,-1
 1024 384 l 1,58,-1
 1024 256 l 1,59,-1
 1024 128 l 1,60,-1
 896 128 l 1,61,-1
 896 256 l 1,62,-1
 896 384 l 1,63,-1
 896 512 l 1,64,-1
 896 640 l 1,65,-1
 896 768 l 1,66,-1
 896 896 l 1,67,-1
 768 896 l 1,68,-1
 768 768 l 1,69,-1
 768 640 l 1,70,-1
 768 512 l 1,71,-1
 768 384 l 1,72,-1
 768 256 l 1,73,-1
 768 128 l 1,74,-1
 640 128 l 1,75,-1
 640 256 l 1,76,-1
 640 384 l 1,77,-1
 512 384 l 1,78,-1
 512 256 l 1,79,-1
 384 256 l 1,42,-1
384 640 m 1,80,-1
 384 768 l 1,81,-1
 384 896 l 1,82,-1
 512 896 l 1,83,-1
 512 768 l 1,84,-1
 512 640 l 1,85,-1
 384 640 l 1,80,-1
EndSplineSet
Validated: 5
EndChar

StartChar: uni0913
Encoding: 20 2323 21
Width: 1152
GlyphClass: 1
Flags: W
LayerCount: 2
Fore
SplineSet
640 1280 m 1,0,-1
 640 1408 l 1,1,-1
 768 1408 l 1,2,-1
 768 1280 l 1,3,-1
 640 1280 l 1,0,-1
768 1152 m 1,4,-1
 768 1280 l 1,5,-1
 896 1280 l 1,6,-1
 896 1152 l 1,7,-1
 768 1152 l 1,4,-1
896 1024 m 1,8,-1
 896 1152 l 1,9,-1
 1024 1152 l 1,10,-1
 1024 1024 l 1,11,-1
 896 1024 l 1,8,-1
768 896 m 1,12,-1
 768 1024 l 1,13,-1
 896 1024 l 1,14,-1
 1024 1024 l 1,15,-1
 1024 896 l 1,16,-1
 1024 768 l 1,17,-1
 1024 640 l 1,18,-1
 1024 512 l 1,19,-1
 1024 384 l 1,20,-1
 1024 256 l 1,21,-1
 1024 128 l 1,22,-1
 896 128 l 1,23,-1
 896 256 l 1,24,-1
 896 384 l 1,25,-1
 896 512 l 1,26,-1
 896 640 l 1,27,-1
 896 768 l 1,28,-1
 896 896 l 1,29,-1
 768 896 l 1,12,-1
0 256 m 1,30,-1
 0 384 l 1,31,-1
 128 384 l 1,32,-1
 128 256 l 1,33,-1
 0 256 l 1,30,-1
0 768 m 1,34,-1
 0 896 l 1,35,-1
 128 896 l 1,36,-1
 128 768 l 1,37,-1
 0 768 l 1,34,-1
128 128 m 1,38,-1
 128 256 l 1,39,-1
 256 256 l 1,40,-1
 384 256 l 1,41,-1
 384 128 l 1,42,-1
 256 128 l 1,43,-1
 128 128 l 1,38,-1
128 896 m 1,44,-1
 128 1024 l 1,45,-1
 256 1024 l 1,46,-1
 384 1024 l 1,47,-1
 384 896 l 1,48,-1
 256 896 l 1,49,-1
 128 896 l 1,44,-1
256 512 m 1,50,-1
 256 640 l 1,51,-1
 384 640 l 1,52,-1
 384 512 l 1,53,-1
 256 512 l 1,50,-1
384 256 m 1,54,-1
 384 384 l 1,55,-1
 384 512 l 1,56,-1
 512 512 l 1,57,-1
 640 512 l 1,58,-1
 640 640 l 1,59,-1
 640 768 l 1,60,-1
 640 896 l 1,61,-1
 640 1024 l 1,62,-1
 768 1024 l 1,63,-1
 768 896 l 1,64,-1
 768 768 l 1,65,-1
 768 640 l 1,66,-1
 768 512 l 1,67,-1
 768 384 l 1,68,-1
 768 256 l 1,69,-1
 768 128 l 1,70,-1
 640 128 l 1,71,-1
 640 256 l 1,72,-1
 640 384 l 1,73,-1
 512 384 l 1,74,-1
 512 256 l 1,75,-1
 384 256 l 1,54,-1
384 640 m 1,76,-1
 384 768 l 1,77,-1
 384 896 l 1,78,-1
 512 896 l 1,79,-1
 512 768 l 1,80,-1
 512 640 l 1,81,-1
 384 640 l 1,76,-1
EndSplineSet
Validated: 5
EndChar

StartChar: uni0914
Encoding: 21 2324 22
Width: 1152
GlyphClass: 1
Flags: W
LayerCount: 2
Fore
SplineSet
640 1280 m 5,0,-1
 640 1408 l 5,1,-1
 768 1408 l 5,2,-1
 768 1280 l 5,3,-1
 640 1280 l 5,0,-1
768 1152 m 5,4,-1
 768 1280 l 5,5,-1
 896 1280 l 5,6,-1
 896 1152 l 5,7,-1
 768 1152 l 5,4,-1
896 1024 m 5,8,-1
 896 1152 l 5,9,-1
 1024 1152 l 5,10,-1
 1024 1024 l 5,11,-1
 896 1024 l 5,8,-1
896 1408 m 5,12,-1
 896 1536 l 5,13,-1
 1024 1536 l 5,14,-1
 1024 1408 l 5,15,-1
 896 1408 l 5,12,-1
1024 1152 m 5,16,-1
 1024 1280 l 5,17,-1
 1024 1408 l 5,18,-1
 1152 1408 l 5,19,-1
 1152 1280 l 5,20,-1
 1152 1152 l 5,21,-1
 1024 1152 l 5,16,-1
768 896 m 1,22,-1
 768 1024 l 1,23,-1
 896 1024 l 1,24,-1
 1024 1024 l 1,25,-1
 1024 896 l 1,26,-1
 1024 768 l 1,27,-1
 1024 640 l 1,28,-1
 1024 512 l 1,29,-1
 1024 384 l 1,30,-1
 1024 256 l 1,31,-1
 1024 128 l 1,32,-1
 896 128 l 1,33,-1
 896 256 l 1,34,-1
 896 384 l 1,35,-1
 896 512 l 1,36,-1
 896 640 l 1,37,-1
 896 768 l 1,38,-1
 896 896 l 1,39,-1
 768 896 l 1,22,-1
0 256 m 1,40,-1
 0 384 l 1,41,-1
 128 384 l 1,42,-1
 128 256 l 1,43,-1
 0 256 l 1,40,-1
0 768 m 1,44,-1
 0 896 l 1,45,-1
 128 896 l 1,46,-1
 128 768 l 1,47,-1
 0 768 l 1,44,-1
128 128 m 1,48,-1
 128 256 l 1,49,-1
 256 256 l 1,50,-1
 384 256 l 1,51,-1
 384 128 l 1,52,-1
 256 128 l 1,53,-1
 128 128 l 1,48,-1
128 896 m 1,54,-1
 128 1024 l 1,55,-1
 256 1024 l 1,56,-1
 384 1024 l 1,57,-1
 384 896 l 1,58,-1
 256 896 l 1,59,-1
 128 896 l 1,54,-1
256 512 m 1,60,-1
 256 640 l 1,61,-1
 384 640 l 1,62,-1
 384 512 l 1,63,-1
 256 512 l 1,60,-1
384 256 m 1,64,-1
 384 384 l 1,65,-1
 384 512 l 1,66,-1
 512 512 l 1,67,-1
 640 512 l 1,68,-1
 640 640 l 1,69,-1
 640 768 l 1,70,-1
 640 896 l 1,71,-1
 640 1024 l 1,72,-1
 768 1024 l 1,73,-1
 768 896 l 1,74,-1
 768 768 l 1,75,-1
 768 640 l 1,76,-1
 768 512 l 1,77,-1
 768 384 l 1,78,-1
 768 256 l 1,79,-1
 768 128 l 1,80,-1
 640 128 l 1,81,-1
 640 256 l 1,82,-1
 640 384 l 1,83,-1
 512 384 l 1,84,-1
 512 256 l 1,85,-1
 384 256 l 1,64,-1
384 640 m 1,86,-1
 384 768 l 1,87,-1
 384 896 l 1,88,-1
 512 896 l 1,89,-1
 512 768 l 1,90,-1
 512 640 l 1,91,-1
 384 640 l 1,86,-1
EndSplineSet
Validated: 1029
EndChar

StartChar: ka
Encoding: 22 2325 23
Width: 1024
GlyphClass: 1
Flags: W
AnchorPoint: "mark_down" 384 128 basechar 0
AnchorPoint: "mark_up" 384 1024 basechar 0
LayerCount: 2
Fore
SplineSet
0 384 m 1,0,-1
 0 512 l 1,1,-1
 0 640 l 1,2,-1
 128 640 l 1,3,-1
 128 512 l 1,4,-1
 128 384 l 1,5,-1
 0 384 l 1,0,-1
0 896 m 1,6,-1
 0 1024 l 1,7,-1
 128 1024 l 1,8,-1
 256 1024 l 1,9,-1
 384 1024 l 5,10,-1
 512 1024 l 1,11,-1
 640 1024 l 1,12,-1
 768 1024 l 1,13,-1
 896 1024 l 1,14,-1
 896 896 l 1,15,-1
 768 896 l 1,16,-1
 640 896 l 1,17,-1
 512 896 l 1,18,-1
 512 768 l 1,19,-1
 640 768 l 1,20,-1
 768 768 l 1,21,-1
 768 640 l 1,22,-1
 640 640 l 1,23,-1
 512 640 l 1,24,-1
 512 512 l 1,25,-1
 512 384 l 1,26,-1
 512 256 l 1,27,-1
 512 128 l 1,28,-1
 384 128 l 1,29,-1
 384 256 l 1,30,-1
 256 256 l 1,31,-1
 128 256 l 1,32,-1
 128 384 l 1,33,-1
 256 384 l 1,34,-1
 384 384 l 1,35,-1
 384 512 l 1,36,-1
 384 640 l 1,37,-1
 256 640 l 1,38,-1
 128 640 l 1,39,-1
 128 768 l 1,40,-1
 256 768 l 1,41,-1
 384 768 l 1,42,-1
 384 896 l 1,43,-1
 256 896 l 1,44,-1
 128 896 l 1,45,-1
 0 896 l 1,6,-1
640 256 m 1,46,-1
 640 384 l 1,47,-1
 768 384 l 1,48,-1
 768 256 l 1,49,-1
 640 256 l 1,46,-1
768 384 m 1,50,-1
 768 512 l 1,51,-1
 768 640 l 1,52,-1
 896 640 l 1,53,-1
 896 512 l 1,54,-1
 896 384 l 1,55,-1
 768 384 l 1,50,-1
EndSplineSet
Validated: 5
EndChar

StartChar: Ka
Encoding: 23 2326 24
Width: 1152
GlyphClass: 1
Flags: W
AnchorPoint: "mark_up" 896 1024 basechar 0
AnchorPoint: "mark_down" 896 128 basechar 0
LayerCount: 2
Fore
SplineSet
0 384 m 1,0,-1
 0 512 l 1,1,-1
 128 512 l 1,2,-1
 128 384 l 1,3,-1
 0 384 l 1,0,-1
0 896 m 1,4,-1
 0 1024 l 1,5,-1
 128 1024 l 1,6,-1
 256 1024 l 1,7,-1
 384 1024 l 1,8,-1
 512 1024 l 1,9,-1
 640 1024 l 1,10,-1
 768 1024 l 1,11,-1
 896 1024 l 1,12,-1
 1024 1024 l 1,13,-1
 1024 896 l 1,14,-1
 1024 768 l 1,15,-1
 1024 640 l 1,16,-1
 1024 512 l 1,17,-1
 1024 384 l 1,18,-1
 1024 256 l 1,19,-1
 1024 128 l 1,20,-1
 896 128 l 1,21,-1
 896 256 l 1,22,-1
 768 256 l 1,23,-1
 768 128 l 1,24,-1
 640 128 l 1,25,-1
 640 256 l 1,26,-1
 640 384 l 1,27,-1
 768 384 l 1,28,-1
 896 384 l 1,29,-1
 896 512 l 1,30,-1
 896 640 l 1,31,-1
 768 640 l 1,32,-1
 640 640 l 1,33,-1
 640 768 l 1,34,-1
 768 768 l 1,35,-1
 896 768 l 1,36,-1
 896 896 l 1,37,-1
 768 896 l 1,38,-1
 640 896 l 1,39,-1
 512 896 l 1,40,-1
 384 896 l 1,41,-1
 384 768 l 1,42,-1
 384 640 l 1,43,-1
 384 512 l 1,44,-1
 256 512 l 1,45,-1
 128 512 l 1,46,-1
 128 640 l 1,47,-1
 256 640 l 1,48,-1
 256 768 l 1,49,-1
 256 896 l 1,50,-1
 128 896 l 1,51,-1
 0 896 l 1,4,-1
128 256 m 1,52,-1
 128 384 l 1,53,-1
 256 384 l 1,54,-1
 256 256 l 1,55,-1
 128 256 l 1,52,-1
256 128 m 1,56,-1
 256 256 l 1,57,-1
 384 256 l 1,58,-1
 384 128 l 1,59,-1
 256 128 l 1,56,-1
384 0 m 1,60,-1
 384 128 l 1,61,-1
 512 128 l 1,62,-1
 640 128 l 1,63,-1
 640 0 l 1,64,-1
 512 0 l 1,65,-1
 384 0 l 1,60,-1
512 384 m 1,66,-1
 512 512 l 1,67,-1
 512 640 l 1,68,-1
 640 640 l 1,69,-1
 640 512 l 1,70,-1
 640 384 l 1,71,-1
 512 384 l 1,66,-1
EndSplineSet
Validated: 5
EndChar

StartChar: ga
Encoding: 24 2327 25
Width: 768
GlyphClass: 1
Flags: W
AnchorPoint: "mark_down" 512 128 basechar 0
AnchorPoint: "mark_up" 512 1024 basechar 0
LayerCount: 2
Fore
SplineSet
0 512 m 1,0,-1
 0 640 l 1,1,-1
 128 640 l 1,2,-1
 128 512 l 1,3,-1
 0 512 l 1,0,-1
0 896 m 1,4,-1
 0 1024 l 1,5,-1
 128 1024 l 1,6,-1
 256 1024 l 1,7,-1
 384 1024 l 1,8,-1
 512 1024 l 1,9,-1
 640 1024 l 1,10,-1
 640 896 l 1,11,-1
 640 768 l 1,12,-1
 640 640 l 1,13,-1
 640 512 l 1,14,-1
 640 384 l 1,15,-1
 640 256 l 1,16,-1
 640 128 l 1,17,-1
 512 128 l 1,18,-1
 512 256 l 1,19,-1
 512 384 l 1,20,-1
 512 512 l 1,21,-1
 512 640 l 1,22,-1
 512 768 l 1,23,-1
 512 896 l 1,24,-1
 384 896 l 1,25,-1
 384 768 l 1,26,-1
 384 640 l 1,27,-1
 384 512 l 1,28,-1
 256 512 l 1,29,-1
 256 640 l 1,30,-1
 256 768 l 1,31,-1
 256 896 l 1,32,-1
 128 896 l 1,33,-1
 0 896 l 1,4,-1
128 384 m 1,34,-1
 128 512 l 1,35,-1
 256 512 l 1,36,-1
 256 384 l 1,37,-1
 128 384 l 1,34,-1
EndSplineSet
Validated: 5
EndChar

StartChar: Ga
Encoding: 25 2328 26
Width: 896
GlyphClass: 1
Flags: W
AnchorPoint: "mark_up" 640 1024 basechar 0
AnchorPoint: "mark_down" 640 128 basechar 0
LayerCount: 2
Fore
SplineSet
0 512 m 1,0,-1
 0 640 l 1,1,-1
 0 768 l 1,2,-1
 128 768 l 1,3,-1
 128 640 l 1,4,-1
 128 512 l 1,5,-1
 0 512 l 1,0,-1
0 896 m 1,6,-1
 0 1024 l 1,7,-1
 128 1024 l 1,8,-1
 256 1024 l 1,9,-1
 384 1024 l 1,10,-1
 512 1024 l 1,11,-1
 640 1024 l 1,12,-1
 768 1024 l 1,13,-1
 768 896 l 1,14,-1
 768 768 l 1,15,-1
 768 640 l 1,16,-1
 768 512 l 1,17,-1
 768 384 l 1,18,-1
 768 256 l 1,19,-1
 768 128 l 1,20,-1
 640 128 l 1,21,-1
 640 256 l 1,22,-1
 640 384 l 1,23,-1
 512 384 l 1,24,-1
 512 512 l 1,25,-1
 640 512 l 1,26,-1
 640 640 l 1,27,-1
 640 768 l 1,28,-1
 640 896 l 1,29,-1
 512 896 l 1,30,-1
 384 896 l 1,31,-1
 256 896 l 1,32,-1
 256 768 l 1,33,-1
 128 768 l 1,34,-1
 128 896 l 1,35,-1
 0 896 l 1,6,-1
128 384 m 1,36,-1
 128 512 l 1,37,-1
 256 512 l 1,38,-1
 256 384 l 1,39,-1
 128 384 l 1,36,-1
256 256 m 1,40,-1
 256 384 l 1,41,-1
 384 384 l 1,42,-1
 512 384 l 1,43,-1
 512 256 l 1,44,-1
 384 256 l 1,45,-1
 256 256 l 1,40,-1
256 512 m 1,46,-1
 256 640 l 1,47,-1
 384 640 l 1,48,-1
 384 512 l 1,49,-1
 256 512 l 1,46,-1
EndSplineSet
Validated: 5
EndChar

StartChar: nga
Encoding: 26 2329 27
Width: 896
GlyphClass: 1
Flags: W
AnchorPoint: "mark_up" 256 1024 basechar 0
AnchorPoint: "mark_down" 256 128 basechar 0
LayerCount: 2
Fore
SplineSet
0 128 m 1,0,-1
 0 256 l 1,1,-1
 128 256 l 1,2,-1
 256 256 l 1,3,-1
 384 256 l 1,4,-1
 384 128 l 1,5,-1
 256 128 l 1,6,-1
 128 128 l 1,7,-1
 0 128 l 1,0,-1
0 512 m 1,8,-1
 0 640 l 1,9,-1
 128 640 l 1,10,-1
 128 512 l 1,11,-1
 0 512 l 1,8,-1
0 896 m 1,12,-1
 0 1024 l 1,13,-1
 128 1024 l 1,14,-1
 256 1024 l 1,15,-1
 384 1024 l 1,16,-1
 512 1024 l 1,17,-1
 640 1024 l 1,18,-1
 768 1024 l 1,19,-1
 768 896 l 1,20,-1
 640 896 l 1,21,-1
 512 896 l 1,22,-1
 384 896 l 1,23,-1
 384 768 l 1,24,-1
 384 640 l 1,25,-1
 256 640 l 1,26,-1
 128 640 l 1,27,-1
 128 768 l 1,28,-1
 256 768 l 1,29,-1
 256 896 l 1,30,-1
 128 896 l 1,31,-1
 0 896 l 1,12,-1
128 384 m 1,32,-1
 128 512 l 1,33,-1
 256 512 l 1,34,-1
 384 512 l 1,35,-1
 384 384 l 1,36,-1
 256 384 l 1,37,-1
 128 384 l 1,32,-1
384 256 m 1,38,-1
 384 384 l 1,39,-1
 512 384 l 1,40,-1
 512 256 l 1,41,-1
 384 256 l 1,38,-1
640 384 m 1,42,-1
 640 512 l 1,43,-1
 768 512 l 1,44,-1
 768 384 l 1,45,-1
 640 384 l 1,42,-1
EndSplineSet
Validated: 5
EndChar

StartChar: xa
Encoding: 27 2330 28
Width: 896
GlyphClass: 1
Flags: W
AnchorPoint: "mark_down" 640 128 basechar 0
AnchorPoint: "mark_up" 640 1024 basechar 0
LayerCount: 2
Fore
SplineSet
0 512 m 1,0,-1
 0 640 l 1,1,-1
 128 640 l 1,2,-1
 256 640 l 1,3,-1
 384 640 l 1,4,-1
 384 512 l 1,5,-1
 384 384 l 1,6,-1
 256 384 l 1,7,-1
 256 512 l 1,8,-1
 128 512 l 1,9,-1
 0 512 l 1,0,-1
0 896 m 1,10,-1
 0 1024 l 1,11,-1
 128 1024 l 1,12,-1
 256 1024 l 1,13,-1
 384 1024 l 1,14,-1
 512 1024 l 1,15,-1
 640 1024 l 1,16,-1
 768 1024 l 1,17,-1
 768 896 l 1,18,-1
 768 768 l 1,19,-1
 768 640 l 1,20,-1
 768 512 l 1,21,-1
 768 384 l 1,22,-1
 768 256 l 1,23,-1
 768 128 l 1,24,-1
 640 128 l 1,25,-1
 640 256 l 1,26,-1
 512 256 l 1,27,-1
 384 256 l 1,28,-1
 384 384 l 1,29,-1
 512 384 l 1,30,-1
 640 384 l 1,31,-1
 640 512 l 1,32,-1
 640 640 l 1,33,-1
 640 768 l 1,34,-1
 640 896 l 1,35,-1
 512 896 l 1,36,-1
 384 896 l 1,37,-1
 256 896 l 1,38,-1
 128 896 l 1,39,-1
 0 896 l 1,10,-1
EndSplineSet
Validated: 5
EndChar

StartChar: Xa
Encoding: 28 2331 29
Width: 1024
GlyphClass: 1
AnchorPoint: "mark_up" 640 1024 basechar 0
AnchorPoint: "mark_down" 384 128 basechar 0
LayerCount: 2
Fore
SplineSet
0 384 m 1,0,-1
 0 512 l 1,1,-1
 0 640 l 1,2,-1
 128 640 l 1,3,-1
 128 512 l 1,4,-1
 128 384 l 1,5,-1
 0 384 l 1,0,-1
0 896 m 1,6,-1
 0 1024 l 1,7,-1
 128 1024 l 1,8,-1
 256 1024 l 1,9,-1
 384 1024 l 1,10,-1
 512 1024 l 1,11,-1
 640 1024 l 1,12,-1
 768 1024 l 1,13,-1
 896 1024 l 1,14,-1
 896 896 l 1,15,-1
 768 896 l 1,16,-1
 768 768 l 1,17,-1
 768 640 l 1,18,-1
 640 640 l 1,19,-1
 640 768 l 1,20,-1
 640 896 l 1,21,-1
 512 896 l 1,22,-1
 384 896 l 1,23,-1
 256 896 l 1,24,-1
 128 896 l 1,25,-1
 0 896 l 1,6,-1
128 256 m 1,26,-1
 128 384 l 1,27,-1
 256 384 l 1,28,-1
 256 256 l 1,29,-1
 128 256 l 1,26,-1
128 640 m 1,30,-1
 128 768 l 1,31,-1
 256 768 l 1,32,-1
 256 640 l 1,33,-1
 128 640 l 1,30,-1
256 128 m 1,34,-1
 256 256 l 1,35,-1
 384 256 l 1,36,-1
 512 256 l 1,37,-1
 512 128 l 1,38,-1
 384 128 l 1,39,-1
 256 128 l 1,34,-1
256 384 m 1,40,-1
 256 512 l 1,41,-1
 384 512 l 1,42,-1
 384 384 l 1,43,-1
 256 384 l 1,40,-1
512 256 m 1,44,-1
 512 384 l 1,45,-1
 640 384 l 1,46,-1
 640 256 l 1,47,-1
 512 256 l 1,44,-1
512 512 m 1,48,-1
 512 640 l 1,49,-1
 640 640 l 1,50,-1
 640 512 l 1,51,-1
 512 512 l 1,48,-1
640 384 m 1,52,-1
 640 512 l 1,53,-1
 768 512 l 1,54,-1
 768 384 l 1,55,-1
 640 384 l 1,52,-1
768 512 m 1,56,-1
 768 640 l 1,57,-1
 896 640 l 1,58,-1
 896 512 l 1,59,-1
 768 512 l 1,56,-1
EndSplineSet
Validated: 5
EndChar

StartChar: ja
Encoding: 29 2332 30
Width: 896
GlyphClass: 1
Flags: W
AnchorPoint: "mark_down" 640 128 basechar 0
AnchorPoint: "mark_up" 640 1024 basechar 0
LayerCount: 2
Fore
SplineSet
0 384 m 1,0,-1
 0 512 l 1,1,-1
 0 640 l 1,2,-1
 128 640 l 1,3,-1
 128 512 l 1,4,-1
 128 384 l 1,5,-1
 0 384 l 1,0,-1
0 896 m 1,6,-1
 0 1024 l 1,7,-1
 128 1024 l 1,8,-1
 256 1024 l 1,9,-1
 384 1024 l 1,10,-1
 512 1024 l 1,11,-1
 640 1024 l 1,12,-1
 768 1024 l 1,13,-1
 768 896 l 1,14,-1
 768 768 l 1,15,-1
 768 640 l 1,16,-1
 768 512 l 1,17,-1
 768 384 l 1,18,-1
 768 256 l 1,19,-1
 768 128 l 1,20,-1
 640 128 l 1,21,-1
 640 256 l 1,22,-1
 640 384 l 1,23,-1
 640 512 l 1,24,-1
 512 512 l 1,25,-1
 512 384 l 1,26,-1
 384 384 l 1,27,-1
 384 512 l 1,28,-1
 384 640 l 1,29,-1
 512 640 l 1,30,-1
 640 640 l 1,31,-1
 640 768 l 1,32,-1
 640 896 l 1,33,-1
 512 896 l 1,34,-1
 384 896 l 1,35,-1
 256 896 l 1,36,-1
 128 896 l 1,37,-1
 0 896 l 1,6,-1
128 256 m 1,38,-1
 128 384 l 1,39,-1
 256 384 l 1,40,-1
 384 384 l 1,41,-1
 384 256 l 1,42,-1
 256 256 l 1,43,-1
 128 256 l 1,38,-1
EndSplineSet
Validated: 5
EndChar

StartChar: Ja
Encoding: 30 2333 31
Width: 896
GlyphClass: 1
Flags: W
AnchorPoint: "mark_down" 640 128 basechar 0
AnchorPoint: "mark_up" 640 1024 basechar 0
LayerCount: 2
Fore
SplineSet
0 128 m 1,0,-1
 0 256 l 1,1,-1
 128 256 l 1,2,-1
 256 256 l 1,3,-1
 384 256 l 1,4,-1
 384 128 l 1,5,-1
 256 128 l 1,6,-1
 256 0 l 1,7,-1
 128 0 l 1,8,-1
 128 128 l 1,9,-1
 0 128 l 1,0,-1
0 512 m 1,10,-1
 0 640 l 1,11,-1
 128 640 l 1,12,-1
 128 512 l 1,13,-1
 0 512 l 1,10,-1
0 896 m 1,14,-1
 0 1024 l 1,15,-1
 128 1024 l 1,16,-1
 256 1024 l 1,17,-1
 384 1024 l 1,18,-1
 512 1024 l 1,19,-1
 640 1024 l 1,20,-1
 768 1024 l 1,21,-1
 768 896 l 1,22,-1
 768 768 l 1,23,-1
 768 640 l 1,24,-1
 768 512 l 1,25,-1
 768 384 l 1,26,-1
 768 256 l 1,27,-1
 768 128 l 1,28,-1
 640 128 l 1,29,-1
 640 256 l 1,30,-1
 512 256 l 1,31,-1
 384 256 l 1,32,-1
 384 384 l 1,33,-1
 512 384 l 1,34,-1
 640 384 l 1,35,-1
 640 512 l 1,36,-1
 640 640 l 1,37,-1
 640 768 l 1,38,-1
 640 896 l 1,39,-1
 512 896 l 1,40,-1
 384 896 l 1,41,-1
 384 768 l 1,42,-1
 384 640 l 1,43,-1
 256 640 l 1,44,-1
 128 640 l 1,45,-1
 128 768 l 1,46,-1
 256 768 l 1,47,-1
 256 896 l 1,48,-1
 128 896 l 1,49,-1
 0 896 l 1,14,-1
128 384 m 1,50,-1
 128 512 l 1,51,-1
 256 512 l 1,52,-1
 384 512 l 1,53,-1
 384 384 l 1,54,-1
 256 384 l 1,55,-1
 128 384 l 1,50,-1
EndSplineSet
Validated: 5
EndChar

StartChar: nya
Encoding: 31 2334 32
Width: 896
GlyphClass: 1
Flags: W
AnchorPoint: "mark_down" 640 128 basechar 0
AnchorPoint: "mark_up" 640 1024 basechar 0
LayerCount: 2
Fore
SplineSet
0 384 m 1,0,-1
 0 512 l 1,1,-1
 128 512 l 1,2,-1
 128 384 l 1,3,-1
 0 384 l 1,0,-1
0 896 m 1,4,-1
 0 1024 l 1,5,-1
 128 1024 l 1,6,-1
 256 1024 l 1,7,-1
 384 1024 l 1,8,-1
 512 1024 l 1,9,-1
 640 1024 l 1,10,-1
 768 1024 l 1,11,-1
 768 896 l 1,12,-1
 768 768 l 1,13,-1
 768 640 l 1,14,-1
 768 512 l 1,15,-1
 768 384 l 1,16,-1
 768 256 l 1,17,-1
 768 128 l 1,18,-1
 640 128 l 1,19,-1
 640 256 l 1,20,-1
 640 384 l 1,21,-1
 640 512 l 1,22,-1
 512 512 l 1,23,-1
 512 384 l 1,24,-1
 384 384 l 1,25,-1
 384 512 l 1,26,-1
 384 640 l 1,27,-1
 512 640 l 1,28,-1
 640 640 l 1,29,-1
 640 768 l 1,30,-1
 640 896 l 1,31,-1
 512 896 l 1,32,-1
 384 896 l 1,33,-1
 256 896 l 1,34,-1
 128 896 l 1,35,-1
 0 896 l 1,4,-1
128 256 m 1,36,-1
 128 384 l 1,37,-1
 256 384 l 1,38,-1
 384 384 l 1,39,-1
 384 256 l 1,40,-1
 256 256 l 1,41,-1
 128 256 l 1,36,-1
128 640 m 1,42,-1
 128 768 l 1,43,-1
 256 768 l 1,44,-1
 384 768 l 1,45,-1
 384 640 l 1,46,-1
 256 640 l 1,47,-1
 128 640 l 1,42,-1
EndSplineSet
Validated: 5
EndChar

StartChar: ta
Encoding: 32 2335 33
Width: 768
GlyphClass: 1
Flags: W
AnchorPoint: "mark_down" 256 128 basechar 0
AnchorPoint: "mark_up" 384 1024 basechar 0
LayerCount: 2
Fore
SplineSet
0 256 m 1,0,-1
 0 384 l 1,1,-1
 0 512 l 1,2,-1
 0 640 l 1,3,-1
 128 640 l 1,4,-1
 128 512 l 1,5,-1
 128 384 l 1,6,-1
 128 256 l 1,7,-1
 0 256 l 1,0,-1
0 896 m 1,8,-1
 0 1024 l 1,9,-1
 128 1024 l 1,10,-1
 256 1024 l 1,11,-1
 384 1024 l 1,12,-1
 512 1024 l 1,13,-1
 640 1024 l 1,14,-1
 640 896 l 1,15,-1
 512 896 l 1,16,-1
 512 768 l 1,17,-1
 384 768 l 1,18,-1
 384 896 l 1,19,-1
 256 896 l 1,20,-1
 128 896 l 1,21,-1
 0 896 l 1,8,-1
128 128 m 1,22,-1
 128 256 l 1,23,-1
 256 256 l 1,24,-1
 384 256 l 1,25,-1
 512 256 l 1,26,-1
 512 128 l 1,27,-1
 384 128 l 1,28,-1
 256 128 l 1,29,-1
 128 128 l 1,22,-1
128 640 m 1,30,-1
 128 768 l 1,31,-1
 256 768 l 1,32,-1
 384 768 l 1,33,-1
 384 640 l 1,34,-1
 256 640 l 1,35,-1
 128 640 l 1,30,-1
EndSplineSet
Validated: 5
EndChar

StartChar: Ta
Encoding: 33 2336 34
Width: 768
GlyphClass: 1
Flags: W
AnchorPoint: "mark_down" 256 128 basechar 0
AnchorPoint: "mark_up" 256 1024 basechar 0
LayerCount: 2
Fore
SplineSet
0 256 m 1,0,-1
 0 384 l 1,1,-1
 0 512 l 1,2,-1
 0 640 l 1,3,-1
 128 640 l 1,4,-1
 128 512 l 1,5,-1
 128 384 l 1,6,-1
 128 256 l 1,7,-1
 0 256 l 1,0,-1
0 896 m 1,8,-1
 0 1024 l 1,9,-1
 128 1024 l 1,10,-1
 256 1024 l 1,11,-1
 384 1024 l 1,12,-1
 512 1024 l 1,13,-1
 640 1024 l 1,14,-1
 640 896 l 1,15,-1
 512 896 l 1,16,-1
 384 896 l 1,17,-1
 384 768 l 1,18,-1
 512 768 l 1,19,-1
 512 640 l 1,20,-1
 384 640 l 1,21,-1
 256 640 l 1,22,-1
 128 640 l 1,23,-1
 128 768 l 1,24,-1
 256 768 l 1,25,-1
 256 896 l 1,26,-1
 128 896 l 1,27,-1
 0 896 l 1,8,-1
128 128 m 1,28,-1
 128 256 l 1,29,-1
 256 256 l 1,30,-1
 384 256 l 1,31,-1
 512 256 l 1,32,-1
 512 128 l 1,33,-1
 384 128 l 1,34,-1
 256 128 l 1,35,-1
 128 128 l 1,28,-1
512 256 m 1,36,-1
 512 384 l 1,37,-1
 512 512 l 1,38,-1
 512 640 l 1,39,-1
 640 640 l 1,40,-1
 640 512 l 1,41,-1
 640 384 l 1,42,-1
 640 256 l 1,43,-1
 512 256 l 1,36,-1
EndSplineSet
Validated: 5
EndChar

StartChar: da
Encoding: 34 2337 35
Width: 640
GlyphClass: 1
Flags: W
AnchorPoint: "mark_down" 128 128 basechar 0
AnchorPoint: "mark_up" 256 1024 basechar 0
LayerCount: 2
Fore
SplineSet
0 128 m 1,0,-1
 0 256 l 1,1,-1
 128 256 l 1,2,-1
 256 256 l 1,3,-1
 384 256 l 1,4,-1
 384 128 l 1,5,-1
 256 128 l 1,6,-1
 128 128 l 1,7,-1
 0 128 l 1,0,-1
0 512 m 1,8,-1
 0 640 l 1,9,-1
 128 640 l 1,10,-1
 128 512 l 1,11,-1
 0 512 l 1,8,-1
0 896 m 1,12,-1
 0 1024 l 1,13,-1
 128 1024 l 1,14,-1
 256 1024 l 1,15,-1
 384 1024 l 1,16,-1
 512 1024 l 1,17,-1
 512 896 l 1,18,-1
 384 896 l 1,19,-1
 384 768 l 1,20,-1
 384 640 l 1,21,-1
 256 640 l 1,22,-1
 128 640 l 1,23,-1
 128 768 l 1,24,-1
 256 768 l 1,25,-1
 256 896 l 1,26,-1
 128 896 l 1,27,-1
 0 896 l 1,12,-1
128 384 m 1,28,-1
 128 512 l 1,29,-1
 256 512 l 1,30,-1
 384 512 l 1,31,-1
 384 384 l 1,32,-1
 256 384 l 1,33,-1
 128 384 l 1,28,-1
384 256 m 1,34,-1
 384 384 l 1,35,-1
 512 384 l 1,36,-1
 512 256 l 1,37,-1
 384 256 l 1,34,-1
EndSplineSet
Validated: 5
EndChar

StartChar: Da
Encoding: 35 2338 36
Width: 896
GlyphClass: 1
Flags: W
AnchorPoint: "mark_down" 384 128 basechar 0
AnchorPoint: "mark_up" 384 1024 basechar 0
LayerCount: 2
Fore
SplineSet
0 256 m 1,0,-1
 0 384 l 1,1,-1
 0 512 l 1,2,-1
 0 640 l 1,3,-1
 128 640 l 1,4,-1
 128 512 l 1,5,-1
 128 384 l 1,6,-1
 128 256 l 1,7,-1
 0 256 l 1,0,-1
0 896 m 1,8,-1
 0 1024 l 1,9,-1
 128 1024 l 1,10,-1
 256 1024 l 1,11,-1
 384 1024 l 1,12,-1
 512 1024 l 1,13,-1
 640 1024 l 1,14,-1
 768 1024 l 1,15,-1
 768 896 l 1,16,-1
 640 896 l 1,17,-1
 512 896 l 1,18,-1
 512 768 l 1,19,-1
 384 768 l 1,20,-1
 384 896 l 1,21,-1
 256 896 l 1,22,-1
 128 896 l 1,23,-1
 0 896 l 1,8,-1
128 128 m 1,24,-1
 128 256 l 1,25,-1
 256 256 l 1,26,-1
 384 256 l 1,27,-1
 384 384 l 1,28,-1
 512 384 l 1,29,-1
 512 256 l 1,30,-1
 640 256 l 1,31,-1
 640 128 l 1,32,-1
 512 128 l 1,33,-1
 384 128 l 1,34,-1
 256 128 l 1,35,-1
 128 128 l 1,24,-1
128 640 m 1,36,-1
 128 768 l 1,37,-1
 256 768 l 1,38,-1
 384 768 l 1,39,-1
 384 640 l 1,40,-1
 256 640 l 1,41,-1
 128 640 l 1,36,-1
512 384 m 1,42,-1
 512 512 l 1,43,-1
 640 512 l 1,44,-1
 640 384 l 1,45,-1
 512 384 l 1,42,-1
640 256 m 1,46,-1
 640 384 l 1,47,-1
 768 384 l 1,48,-1
 768 256 l 1,49,-1
 640 256 l 1,46,-1
EndSplineSet
Validated: 5
EndChar

StartChar: Na
Encoding: 36 2339 37
Width: 896
GlyphClass: 1
Flags: W
AnchorPoint: "mark_down" 640 128 basechar 0
AnchorPoint: "mark_up" 640 1024 basechar 0
LayerCount: 2
Fore
SplineSet
0 512 m 1,0,-1
 0 640 l 1,1,-1
 0 768 l 1,2,-1
 0 896 l 1,3,-1
 0 1024 l 1,4,-1
 128 1024 l 1,5,-1
 256 1024 l 1,6,-1
 384 1024 l 1,7,-1
 512 1024 l 1,8,-1
 640 1024 l 1,9,-1
 768 1024 l 1,10,-1
 768 896 l 1,11,-1
 768 768 l 1,12,-1
 768 640 l 1,13,-1
 768 512 l 1,14,-1
 768 384 l 1,15,-1
 768 256 l 1,16,-1
 768 128 l 1,17,-1
 640 128 l 1,18,-1
 640 256 l 1,19,-1
 640 384 l 1,20,-1
 640 512 l 1,21,-1
 640 640 l 1,22,-1
 640 768 l 1,23,-1
 640 896 l 1,24,-1
 512 896 l 1,25,-1
 512 768 l 1,26,-1
 512 640 l 1,27,-1
 512 512 l 1,28,-1
 384 512 l 1,29,-1
 384 640 l 1,30,-1
 384 768 l 1,31,-1
 384 896 l 1,32,-1
 256 896 l 1,33,-1
 128 896 l 1,34,-1
 128 768 l 1,35,-1
 128 640 l 1,36,-1
 128 512 l 1,37,-1
 0 512 l 1,0,-1
128 384 m 1,38,-1
 128 512 l 1,39,-1
 256 512 l 1,40,-1
 384 512 l 1,41,-1
 384 384 l 1,42,-1
 256 384 l 1,43,-1
 128 384 l 1,38,-1
EndSplineSet
Validated: 5
EndChar

StartChar: tha
Encoding: 37 2340 38
Width: 804
GlyphClass: 1
Flags: W
AnchorPoint: "mark_down" 552.968 128 basechar 0
AnchorPoint: "mark_up" 552.968 1024 basechar 0
LayerCount: 2
Fore
SplineSet
40.9677734375 256 m 1,0,-1
 40.9677734375 384 l 1,1,-1
 40.9677734375 512 l 1,2,-1
 168.967773438 512 l 1,3,-1
 168.967773438 384 l 1,4,-1
 168.967773438 256 l 1,5,-1
 40.9677734375 256 l 1,0,-1
40.9677734375 896 m 1,6,-1
 40.9677734375 1024 l 1,7,-1
 168.967773438 1024 l 1,8,-1
 296.967773438 1024 l 1,9,-1
 424.967773438 1024 l 1,10,-1
 552.967773438 1024 l 1,11,-1
 680.967773438 1024 l 1,12,-1
 680.967773438 896 l 1,13,-1
 680.967773438 768 l 1,14,-1
 680.967773438 640 l 1,15,-1
 680.967773438 512 l 1,16,-1
 680.967773438 384 l 1,17,-1
 680.967773438 256 l 1,18,-1
 680.967773438 128 l 1,19,-1
 552.967773438 128 l 1,20,-1
 552.967773438 256 l 1,21,-1
 552.967773438 384 l 1,22,-1
 552.967773438 512 l 1,23,-1
 424.967773438 512 l 1,24,-1
 296.967773438 512 l 1,25,-1
 168.967773438 512 l 1,26,-1
 168.967773438 640 l 1,27,-1
 296.967773438 640 l 1,28,-1
 424.967773438 640 l 1,29,-1
 552.967773438 640 l 1,30,-1
 552.967773438 768 l 1,31,-1
 552.967773438 896 l 1,32,-1
 424.967773438 896 l 1,33,-1
 296.967773438 896 l 1,34,-1
 168.967773438 896 l 1,35,-1
 40.9677734375 896 l 1,6,-1
168.967773438 128 m 1,36,-1
 168.967773438 256 l 1,37,-1
 296.967773438 256 l 1,38,-1
 296.967773438 128 l 1,39,-1
 168.967773438 128 l 1,36,-1
EndSplineSet
Validated: 5
EndChar

StartChar: Tha
Encoding: 38 2341 39
Width: 768
GlyphClass: 1
Flags: W
AnchorPoint: "mark_down" 512 128 basechar 0
AnchorPoint: "mark_up" 512 1024 basechar 0
LayerCount: 2
Fore
SplineSet
0 512 m 1,0,-1
 0 640 l 1,1,-1
 128 640 l 1,2,-1
 128 512 l 1,3,-1
 0 512 l 1,0,-1
0 896 m 1,4,-1
 0 1024 l 1,5,-1
 128 1024 l 1,6,-1
 128 896 l 1,7,-1
 0 896 l 1,4,-1
128 384 m 1,8,-1
 128 512 l 1,9,-1
 256 512 l 1,10,-1
 384 512 l 1,11,-1
 384 384 l 1,12,-1
 256 384 l 1,13,-1
 128 384 l 1,8,-1
128 640 m 1,14,-1
 128 768 l 1,15,-1
 256 768 l 1,16,-1
 256 640 l 1,17,-1
 128 640 l 1,14,-1
128 1024 m 1,18,-1
 128 1152 l 1,19,-1
 256 1152 l 1,20,-1
 256 1024 l 1,21,-1
 128 1024 l 1,18,-1
256 768 m 1,22,-1
 256 896 l 1,23,-1
 256 1024 l 1,24,-1
 384 1024 l 1,25,-1
 384 896 l 1,26,-1
 384 768 l 1,27,-1
 256 768 l 1,22,-1
384 512 m 1,28,-1
 384 640 l 1,29,-1
 512 640 l 1,30,-1
 512 768 l 1,31,-1
 512 896 l 1,32,-1
 512 1024 l 1,33,-1
 640 1024 l 1,34,-1
 640 896 l 1,35,-1
 640 768 l 1,36,-1
 640 640 l 1,37,-1
 640 512 l 1,38,-1
 640 384 l 1,39,-1
 640 256 l 1,40,-1
 640 128 l 1,41,-1
 512 128 l 1,42,-1
 512 256 l 1,43,-1
 512 384 l 1,44,-1
 512 512 l 1,45,-1
 384 512 l 1,28,-1
EndSplineSet
Validated: 5
EndChar

StartChar: dha
Encoding: 39 2342 40
Width: 768
GlyphClass: 1
Flags: W
AnchorPoint: "mark_down" 512 128 basechar 0
AnchorPoint: "mark_up" 384 1024 basechar 0
LayerCount: 2
Fore
SplineSet
0 384 m 1,0,-1
 0 512 l 1,1,-1
 0 640 l 1,2,-1
 128 640 l 1,3,-1
 128 512 l 1,4,-1
 128 384 l 1,5,-1
 0 384 l 1,0,-1
0 896 m 1,6,-1
 0 1024 l 1,7,-1
 128 1024 l 1,8,-1
 256 1024 l 1,9,-1
 384 1024 l 1,10,-1
 512 1024 l 1,11,-1
 640 1024 l 1,12,-1
 640 896 l 1,13,-1
 512 896 l 1,14,-1
 512 768 l 1,15,-1
 384 768 l 1,16,-1
 384 896 l 1,17,-1
 256 896 l 1,18,-1
 128 896 l 1,19,-1
 0 896 l 1,6,-1
128 256 m 1,20,-1
 128 384 l 1,21,-1
 256 384 l 1,22,-1
 384 384 l 1,23,-1
 384 256 l 1,24,-1
 256 256 l 1,25,-1
 128 256 l 1,20,-1
128 640 m 1,26,-1
 128 768 l 1,27,-1
 256 768 l 1,28,-1
 384 768 l 1,29,-1
 384 640 l 1,30,-1
 256 640 l 1,31,-1
 128 640 l 1,26,-1
384 384 m 1,32,-1
 384 512 l 1,33,-1
 512 512 l 1,34,-1
 512 384 l 1,35,-1
 384 384 l 1,32,-1
512 128 m 1,36,-1
 512 256 l 1,37,-1
 512 384 l 1,38,-1
 640 384 l 1,39,-1
 640 256 l 1,40,-1
 640 128 l 1,41,-1
 512 128 l 1,36,-1
EndSplineSet
Validated: 5
EndChar

StartChar: Dha
Encoding: 40 2343 41
Width: 1024
GlyphClass: 1
AnchorPoint: "mark_down" 640 128 basechar 0
AnchorPoint: "mark_up" 640 1024 basechar 0
LayerCount: 2
Fore
SplineSet
0 512 m 1,0,-1
 0 640 l 1,1,-1
 0 768 l 1,2,-1
 128 768 l 1,3,-1
 128 640 l 1,4,-1
 128 512 l 1,5,-1
 0 512 l 1,0,-1
0 896 m 1,6,-1
 0 1024 l 1,7,-1
 128 1024 l 1,8,-1
 256 1024 l 1,9,-1
 256 896 l 1,10,-1
 256 768 l 1,11,-1
 128 768 l 1,12,-1
 128 896 l 1,13,-1
 0 896 l 1,6,-1
128 384 m 1,14,-1
 128 512 l 1,15,-1
 256 512 l 1,16,-1
 256 384 l 1,17,-1
 128 384 l 1,14,-1
256 256 m 1,18,-1
 256 384 l 1,19,-1
 384 384 l 1,20,-1
 512 384 l 1,21,-1
 512 256 l 1,22,-1
 384 256 l 1,23,-1
 256 256 l 1,18,-1
256 512 m 1,24,-1
 256 640 l 1,25,-1
 384 640 l 1,26,-1
 384 512 l 1,27,-1
 256 512 l 1,24,-1
512 896 m 1,28,-1
 512 1024 l 1,29,-1
 640 1024 l 1,30,-1
 768 1024 l 1,31,-1
 768 896 l 1,32,-1
 768 768 l 1,33,-1
 768 640 l 1,34,-1
 768 512 l 1,35,-1
 768 384 l 1,36,-1
 768 256 l 1,37,-1
 768 128 l 1,38,-1
 640 128 l 1,39,-1
 640 256 l 1,40,-1
 640 384 l 1,41,-1
 512 384 l 1,42,-1
 512 512 l 1,43,-1
 640 512 l 1,44,-1
 640 640 l 1,45,-1
 640 768 l 1,46,-1
 640 896 l 1,47,-1
 512 896 l 1,28,-1
EndSplineSet
Validated: 5
EndChar

StartChar: na
Encoding: 41 2344 42
Width: 640
GlyphClass: 1
Flags: W
AnchorPoint: "mark_down" 384 128 basechar 0
AnchorPoint: "mark_up" 384 1024 basechar 0
LayerCount: 2
Fore
SplineSet
0 384 m 1,0,-1
 0 512 l 1,1,-1
 0 640 l 1,2,-1
 128 640 l 1,3,-1
 256 640 l 1,4,-1
 384 640 l 1,5,-1
 384 768 l 1,6,-1
 384 896 l 1,7,-1
 256 896 l 1,8,-1
 128 896 l 1,9,-1
 0 896 l 1,10,-1
 0 1024 l 1,11,-1
 128 1024 l 1,12,-1
 256 1024 l 1,13,-1
 384 1024 l 1,14,-1
 512 1024 l 1,15,-1
 512 896 l 1,16,-1
 512 768 l 1,17,-1
 512 640 l 1,18,-1
 512 512 l 1,19,-1
 512 384 l 1,20,-1
 512 256 l 1,21,-1
 512 128 l 1,22,-1
 384 128 l 1,23,-1
 384 256 l 1,24,-1
 384 384 l 1,25,-1
 384 512 l 1,26,-1
 256 512 l 1,27,-1
 128 512 l 1,28,-1
 128 384 l 1,29,-1
 0 384 l 1,0,-1
EndSplineSet
Validated: 1
EndChar

StartChar: pa
Encoding: 42 2346 43
Width: 640
GlyphClass: 1
Flags: W
AnchorPoint: "mark_down" 384 128 basechar 0
AnchorPoint: "mark_up" 384 1024 basechar 0
LayerCount: 2
Fore
SplineSet
0 640 m 1,0,-1
 0 768 l 1,1,-1
 0 896 l 1,2,-1
 0 1024 l 1,3,-1
 128 1024 l 1,4,-1
 256 1024 l 1,5,-1
 384 1024 l 1,6,-1
 512 1024 l 1,7,-1
 512 896 l 1,8,-1
 512 768 l 1,9,-1
 512 640 l 1,10,-1
 512 512 l 1,11,-1
 512 384 l 1,12,-1
 512 256 l 1,13,-1
 512 128 l 1,14,-1
 384 128 l 1,15,-1
 384 256 l 1,16,-1
 384 384 l 1,17,-1
 384 512 l 1,18,-1
 256 512 l 1,19,-1
 128 512 l 1,20,-1
 128 640 l 1,21,-1
 256 640 l 1,22,-1
 384 640 l 1,23,-1
 384 768 l 1,24,-1
 384 896 l 1,25,-1
 256 896 l 1,26,-1
 128 896 l 1,27,-1
 128 768 l 1,28,-1
 128 640 l 1,29,-1
 0 640 l 1,0,-1
EndSplineSet
Validated: 5
EndChar

StartChar: Pa
Encoding: 43 2347 44
Width: 1024
GlyphClass: 1
AnchorPoint: "mark_down" 384 128 basechar 0
AnchorPoint: "mark_up" 384 1024 basechar 0
LayerCount: 2
Fore
SplineSet
0 640 m 1,0,-1
 0 768 l 1,1,-1
 0 896 l 1,2,-1
 0 1024 l 1,3,-1
 128 1024 l 1,4,-1
 256 1024 l 1,5,-1
 384 1024 l 1,6,-1
 512 1025 l 1,7,-1
 640 1024 l 1,8,-1
 768 1024 l 1,9,-1
 896 1024 l 1,10,-1
 896 896 l 1,11,-1
 768 896 l 1,12,-1
 640 896 l 1,13,-1
 512 896 l 1,14,-1
 512 768 l 1,15,-1
 512 640 l 1,16,-1
 640 640 l 1,17,-1
 768 640 l 1,18,-1
 768 512 l 1,19,-1
 640 512 l 1,20,-1
 512 512 l 1,21,-1
 512 384 l 1,22,-1
 512 256 l 1,23,-1
 512 128 l 1,24,-1
 384 128 l 5,25,-1
 384 256 l 1,26,-1
 384 384 l 1,27,-1
 384 512 l 1,28,-1
 256 512 l 1,29,-1
 128 512 l 1,30,-1
 128 640 l 1,31,-1
 256 640 l 1,32,-1
 384 640 l 1,33,-1
 384 768 l 1,34,-1
 384 896 l 1,35,-1
 256 896 l 1,36,-1
 128 896 l 1,37,-1
 128 768 l 1,38,-1
 128 640 l 1,39,-1
 0 640 l 1,0,-1
640 128 m 1,40,-1
 640 256 l 1,41,-1
 768 256 l 1,42,-1
 768 128 l 1,43,-1
 640 128 l 1,40,-1
768 256 m 1,44,-1
 768 384 l 1,45,-1
 768 512 l 1,46,-1
 896 512 l 1,47,-1
 896 384 l 1,48,-1
 896 256 l 1,49,-1
 768 256 l 1,44,-1
EndSplineSet
EndChar

StartChar: ba
Encoding: 44 2348 45
Width: 768
GlyphClass: 1
Flags: W
AnchorPoint: "mark_down" 512 128 basechar 0
AnchorPoint: "mark_up" 512 1024 basechar 0
LayerCount: 2
Fore
SplineSet
0 384 m 1,0,-1
 0 512 l 1,1,-1
 0 640 l 1,2,-1
 127 640 l 1,3,-1
 127 512 l 1,4,-1
 127 384 l 1,5,-1
 0 384 l 1,0,-1
0 896 m 1,6,-1
 0 1024 l 1,7,-1
 127 1024 l 1,8,-1
 256 1024 l 1,9,-1
 384 1024 l 1,10,-1
 511 1024 l 1,11,-1
 640 1024 l 1,12,-1
 640 896 l 1,13,-1
 640 768 l 1,14,-1
 640 640 l 1,15,-1
 640 512 l 1,16,-1
 640 384 l 1,17,-1
 640 256 l 1,18,-1
 640 128 l 1,19,-1
 511 128 l 1,20,-1
 511 256 l 1,21,-1
 511 384 l 1,22,-1
 384 384 l 1,23,-1
 384 512 l 1,24,-1
 511 512 l 1,25,-1
 511 640 l 1,26,-1
 384 640 l 1,27,-1
 384 512 l 1,28,-1
 256 512 l 1,29,-1
 256 640 l 1,30,-1
 127 640 l 1,31,-1
 127 768 l 1,32,-1
 256 768 l 1,33,-1
 384 768 l 1,34,-1
 511 768 l 1,35,-1
 511 896 l 1,36,-1
 384 896 l 1,37,-1
 256 896 l 1,38,-1
 127 896 l 1,39,-1
 0 896 l 1,6,-1
127 256 m 1,40,-1
 127 384 l 1,41,-1
 256 384 l 1,42,-1
 384 384 l 1,43,-1
 384 256 l 1,44,-1
 256 256 l 1,45,-1
 127 256 l 1,40,-1
EndSplineSet
EndChar

StartChar: Ba
Encoding: 45 2349 46
Width: 896
GlyphClass: 1
Flags: W
AnchorPoint: "mark_down" 640 128 basechar 0
AnchorPoint: "mark_up" 640 1024 basechar 0
LayerCount: 2
Fore
SplineSet
0 896 m 1,0,-1
 0 1024 l 1,1,-1
 128 1024 l 1,2,-1
 128 896 l 1,3,-1
 0 896 l 1,0,-1
128 512 m 1,4,-1
 128 640 l 1,5,-1
 256 640 l 1,6,-1
 256 512 l 1,7,-1
 128 512 l 1,4,-1
128 1024 m 1,8,-1
 128 1152 l 1,9,-1
 256 1152 l 1,10,-1
 256 1024 l 1,11,-1
 128 1024 l 1,8,-1
256 384 m 1,12,-1
 256 512 l 1,13,-1
 384 512 l 1,14,-1
 384 384 l 1,15,-1
 256 384 l 1,12,-1
256 640 m 1,16,-1
 256 768 l 1,17,-1
 256 896 l 1,18,-1
 256 1024 l 1,19,-1
 384 1024 l 1,20,-1
 384 896 l 1,21,-1
 384 768 l 1,22,-1
 384 640 l 1,23,-1
 256 640 l 1,16,-1
384 512 m 1,24,-1
 384 640 l 1,25,-1
 512 640 l 1,26,-1
 640 640 l 1,27,-1
 640 768 l 1,28,-1
 640 896 l 1,29,-1
 512 896 l 1,30,-1
 512 1024 l 1,31,-1
 640 1024 l 1,32,-1
 768 1024 l 1,33,-1
 768 896 l 1,34,-1
 768 768 l 1,35,-1
 768 640 l 1,36,-1
 768 512 l 1,37,-1
 768 384 l 1,38,-1
 768 256 l 1,39,-1
 768 128 l 1,40,-1
 640 128 l 1,41,-1
 640 256 l 1,42,-1
 640 384 l 1,43,-1
 640 512 l 1,44,-1
 512 512 l 1,45,-1
 384 512 l 1,24,-1
EndSplineSet
Validated: 5
EndChar

StartChar: ma
Encoding: 46 2350 47
Width: 768
GlyphClass: 1
Flags: W
AnchorPoint: "mark_down" 512 128 basechar 0
AnchorPoint: "mark_up" 512 1024 basechar 0
LayerCount: 2
Fore
SplineSet
0 512 m 1,0,-1
 0 640 l 1,1,-1
 128 640 l 1,2,-1
 128 512 l 1,3,-1
 0 512 l 1,0,-1
0 896 m 1,4,-1
 0 1024 l 1,5,-1
 128 1024 l 1,6,-1
 256 1024 l 1,7,-1
 384 1024 l 1,8,-1
 512 1024 l 1,9,-1
 640 1024 l 1,10,-1
 640 896 l 1,11,-1
 640 768 l 1,12,-1
 640 640 l 1,13,-1
 640 512 l 1,14,-1
 640 384 l 1,15,-1
 640 256 l 1,16,-1
 640 128 l 1,17,-1
 512 128 l 5,18,-1
 512 256 l 1,19,-1
 512 384 l 1,20,-1
 512 512 l 1,21,-1
 384 512 l 1,22,-1
 256 512 l 1,23,-1
 256 640 l 1,24,-1
 384 640 l 1,25,-1
 512 640 l 1,26,-1
 512 768 l 1,27,-1
 512 896 l 1,28,-1
 384 896 l 1,29,-1
 256 896 l 1,30,-1
 256 768 l 1,31,-1
 256 640 l 1,32,-1
 128 640 l 1,33,-1
 128 768 l 1,34,-1
 128 896 l 1,35,-1
 0 896 l 1,4,-1
128 384 m 1,36,-1
 128 512 l 1,37,-1
 256 512 l 1,38,-1
 256 384 l 1,39,-1
 128 384 l 1,36,-1
EndSplineSet
Validated: 5
EndChar

StartChar: ya
Encoding: 47 2351 48
Width: 768
GlyphClass: 1
Flags: W
AnchorPoint: "mark_down" 512 128 basechar 0
AnchorPoint: "mark_up" 512 1024 basechar 0
LayerCount: 2
Fore
SplineSet
0 512 m 1,0,-1
 0 640 l 1,1,-1
 128 640 l 1,2,-1
 128 512 l 1,3,-1
 0 512 l 1,0,-1
0 896 m 1,4,-1
 0 1024 l 1,5,-1
 128 1024 l 1,6,-1
 256 1024 l 1,7,-1
 384 1024 l 1,8,-1
 512 1024 l 1,9,-1
 640 1024 l 1,10,-1
 640 896 l 1,11,-1
 640 768 l 1,12,-1
 640 640 l 1,13,-1
 640 512 l 1,14,-1
 640 384 l 1,15,-1
 640 256 l 1,16,-1
 640 128 l 1,17,-1
 512 128 l 1,18,-1
 512 256 l 1,19,-1
 512 384 l 1,20,-1
 512 512 l 1,21,-1
 384 512 l 1,22,-1
 384 640 l 1,23,-1
 512 640 l 1,24,-1
 512 768 l 1,25,-1
 512 896 l 1,26,-1
 384 896 l 1,27,-1
 384 768 l 1,28,-1
 256 768 l 1,29,-1
 256 896 l 1,30,-1
 128 896 l 1,31,-1
 0 896 l 1,4,-1
128 384 m 1,32,-1
 128 512 l 1,33,-1
 256 512 l 1,34,-1
 384 512 l 1,35,-1
 384 384 l 1,36,-1
 256 384 l 1,37,-1
 128 384 l 1,32,-1
128 640 m 1,38,-1
 128 768 l 1,39,-1
 256 768 l 1,40,-1
 256 640 l 1,41,-1
 128 640 l 1,38,-1
EndSplineSet
Validated: 5
EndChar

StartChar: ra
Encoding: 48 2352 49
Width: 512
GlyphClass: 1
Flags: W
AnchorPoint: "mark_down" 256 128 basechar 0
AnchorPoint: "mark_up" 256 1024 basechar 0
LayerCount: 2
Fore
SplineSet
0 384 m 1,0,-1
 0 512 l 1,1,-1
 128 512 l 1,2,-1
 128 384 l 1,3,-1
 0 384 l 1,0,-1
0 896 m 1,4,-1
 0 1024 l 1,5,-1
 128 1024 l 1,6,-1
 256 1024 l 1,7,-1
 384 1024 l 1,8,-1
 384 896 l 1,9,-1
 384 768 l 1,10,-1
 384 640 l 1,11,-1
 384 512 l 1,12,-1
 256 512 l 1,13,-1
 128 512 l 1,14,-1
 128 640 l 1,15,-1
 256 640 l 1,16,-1
 256 768 l 1,17,-1
 256 896 l 1,18,-1
 128 896 l 1,19,-1
 0 896 l 1,4,-1
128 256 m 1,20,-1
 128 384 l 1,21,-1
 256 384 l 1,22,-1
 256 256 l 1,23,-1
 128 256 l 1,20,-1
256 128 m 1,24,-1
 256 256 l 1,25,-1
 384 256 l 1,26,-1
 384 128 l 1,27,-1
 256 128 l 1,24,-1
EndSplineSet
Validated: 5
EndChar

StartChar: la
Encoding: 49 2354 50
Width: 1024
GlyphClass: 1
AnchorPoint: "mark_down" 768 128 basechar 0
AnchorPoint: "mark_up" 768 1024 basechar 0
LayerCount: 2
Fore
SplineSet
0 256 m 1,0,-1
 0 384 l 1,1,-1
 0 512 l 1,2,-1
 128 512 l 1,3,-1
 128 384 l 1,4,-1
 128 256 l 1,5,-1
 0 256 l 1,0,-1
0 896 m 1,6,-1
 0 1024 l 1,7,-1
 128 1024 l 1,8,-1
 256 1024 l 1,9,-1
 384 1024 l 1,10,-1
 512 1024 l 1,11,-1
 768 1024 l 1,12,-1
 896 1024 l 1,13,-1
 896 1024 l 1,14,-1
 896 896 l 1,15,-1
 896 896 l 1,16,-1
 896 640 l 1,17,-1
 896 512 l 1,18,-1
 768 512 l 1,19,-1
 512 512 l 1,20,-1
 512 640 l 1,21,-1
 768 640 l 1,22,-1
 768 896 l 1,23,-1
 512 896 l 1,24,-1
 384 896 l 1,25,-1
 256 896 l 1,26,-1
 128 896 l 1,27,-1
 0 896 l 1,6,-1
128 128 m 1,28,-1
 128 256 l 1,29,-1
 256 256 l 1,30,-1
 256 128 l 1,31,-1
 128 128 l 1,28,-1
128 512 m 1,32,-1
 128 640 l 1,33,-1
 256 640 l 1,34,-1
 384 640 l 1,35,-1
 384 512 l 1,36,-1
 256 512 l 1,37,-1
 128 512 l 1,32,-1
384 384 m 1,38,-1
 384 512 l 1,39,-1
 512 512 l 1,40,-1
 512 384 l 1,41,-1
 384 384 l 1,38,-1
768 128 m 1,42,-1
 768 512 l 1,43,-1
 896 512 l 1,44,-1
 896 128 l 1,45,-1
 768 128 l 1,42,-1
896 512 m 1025,46,-1
EndSplineSet
Validated: 5
EndChar

StartChar: La
Encoding: 50 2355 51
Width: 1024
GlyphClass: 1
AnchorPoint: "mark_up" 640 1024 basechar 0
AnchorPoint: "mark_down" 640 128 basechar 0
LayerCount: 2
Fore
SplineSet
0 384 m 1,0,-1
 0 512 l 1,1,-1
 0 640 l 1,2,-1
 128 640 l 1,3,-1
 128 512 l 1,4,-1
 128 384 l 1,5,-1
 0 384 l 1,0,-1
0 896 m 1,6,-1
 0 1024 l 1,7,-1
 128 1024 l 1,8,-1
 256 1024 l 1,9,-1
 384 1024 l 1,10,-1
 512 1024 l 1,11,-1
 640 1024 l 1,12,-1
 768 1024 l 1,13,-1
 896 1024 l 1,14,-1
 896 896 l 1,15,-1
 768 896 l 1,16,-1
 768 768 l 1,17,-1
 768 640 l 1,18,-1
 640 640 l 1,19,-1
 512 640 l 1,20,-1
 512 768 l 1,21,-1
 640 768 l 1,22,-1
 640 896 l 1,23,-1
 512 896 l 1,24,-1
 384 896 l 1,25,-1
 256 896 l 1,26,-1
 128 896 l 1,27,-1
 0 896 l 1,6,-1
128 256 m 1,28,-1
 128 384 l 1,29,-1
 256 384 l 1,30,-1
 384 384 l 1,31,-1
 384 256 l 1,32,-1
 256 256 l 1,33,-1
 128 256 l 1,28,-1
128 640 m 1,34,-1
 128 768 l 1,35,-1
 256 768 l 1,36,-1
 384 768 l 1,37,-1
 384 640 l 1,38,-1
 256 640 l 1,39,-1
 128 640 l 1,34,-1
384 384 m 1,40,-1
 384 512 l 1,41,-1
 384 640 l 1,42,-1
 512 640 l 1,43,-1
 512 512 l 1,44,-1
 512 384 l 1,45,-1
 384 384 l 1,40,-1
512 256 m 1,46,-1
 512 384 l 1,47,-1
 640 384 l 1,48,-1
 768 384 l 1,49,-1
 768 256 l 1,50,-1
 640 256 l 1,51,-1
 512 256 l 1,46,-1
768 384 m 1,52,-1
 768 512 l 1,53,-1
 768 640 l 1,54,-1
 896 640 l 1,55,-1
 896 512 l 1,56,-1
 896 384 l 1,57,-1
 768 384 l 1,52,-1
EndSplineSet
Validated: 5
EndChar

StartChar: wa
Encoding: 51 2357 52
Width: 640
GlyphClass: 1
Flags: W
AnchorPoint: "mark_up" 384 1024 basechar 0
AnchorPoint: "mark_down" 384 128 basechar 0
LayerCount: 2
Fore
SplineSet
0 384 m 1,0,-1
 0 512 l 1,1,-1
 0 640 l 1,2,-1
 128 640 l 1,3,-1
 128 512 l 1,4,-1
 128 384 l 1,5,-1
 0 384 l 1,0,-1
0 896 m 1,6,-1
 0 1024 l 1,7,-1
 128 1024 l 1,8,-1
 256 1024 l 1,9,-1
 384 1024 l 1,10,-1
 512 1024 l 1,11,-1
 512 896 l 1,12,-1
 512 768 l 1,13,-1
 512 640 l 1,14,-1
 512 512 l 1,15,-1
 512 384 l 1,16,-1
 512 256 l 1,17,-1
 512 128 l 1,18,-1
 384 128 l 1,19,-1
 384 256 l 1,20,-1
 256 256 l 1,21,-1
 128 256 l 1,22,-1
 128 384 l 1,23,-1
 256 384 l 1,24,-1
 384 384 l 1,25,-1
 384 512 l 1,26,-1
 384 640 l 1,27,-1
 256 640 l 1,28,-1
 128 640 l 1,29,-1
 128 768 l 1,30,-1
 256 768 l 1,31,-1
 384 768 l 1,32,-1
 384 896 l 1,33,-1
 256 896 l 1,34,-1
 128 896 l 1,35,-1
 0 896 l 1,6,-1
EndSplineSet
Validated: 5
EndChar

StartChar: Sa
Encoding: 52 2358 53
Width: 896
GlyphClass: 1
Flags: W
AnchorPoint: "mark_up" 640 1024 basechar 0
AnchorPoint: "mark_down" 640 128 basechar 0
LayerCount: 2
Fore
SplineSet
0 896 m 1,0,-1
 0 1024 l 1,1,-1
 128 1024 l 1,2,-1
 128 896 l 1,3,-1
 0 896 l 1,0,-1
128 384 m 1,4,-1
 128 512 l 1,5,-1
 256 512 l 1,6,-1
 256 384 l 1,7,-1
 128 384 l 1,4,-1
128 768 m 1,8,-1
 128 896 l 1,9,-1
 256 896 l 1,10,-1
 256 768 l 1,11,-1
 128 768 l 1,8,-1
128 1024 m 1,12,-1
 128 1152 l 1,13,-1
 256 1152 l 1,14,-1
 256 1024 l 1,15,-1
 128 1024 l 1,12,-1
256 256 m 1,16,-1
 256 384 l 1,17,-1
 384 384 l 1,18,-1
 384 256 l 1,19,-1
 256 256 l 1,16,-1
256 512 m 1,20,-1
 256 640 l 1,21,-1
 384 640 l 1,22,-1
 384 512 l 1,23,-1
 256 512 l 1,20,-1
256 896 m 1,24,-1
 256 1024 l 1,25,-1
 384 1024 l 1,26,-1
 384 896 l 1,27,-1
 256 896 l 1,24,-1
384 128 m 1,28,-1
 384 256 l 1,29,-1
 512 256 l 1,30,-1
 512 128 l 1,31,-1
 384 128 l 1,28,-1
384 640 m 1,32,-1
 384 768 l 1,33,-1
 384 896 l 1,34,-1
 512 896 l 1,35,-1
 512 768 l 1,36,-1
 512 640 l 1,37,-1
 384 640 l 1,32,-1
512 896 m 1,38,-1
 512 1024 l 1,39,-1
 640 1024 l 1,40,-1
 768 1024 l 1,41,-1
 768 896 l 1,42,-1
 768 768 l 1,43,-1
 768 640 l 1,44,-1
 768 512 l 1,45,-1
 768 384 l 1,46,-1
 768 256 l 1,47,-1
 768 128 l 1,48,-1
 640 128 l 1,49,-1
 640 256 l 1,50,-1
 640 384 l 1,51,-1
 640 512 l 1,52,-1
 640 640 l 1,53,-1
 640 768 l 1,54,-1
 640 896 l 1,55,-1
 512 896 l 1,38,-1
EndSplineSet
EndChar

StartChar: za
Encoding: 53 2359 54
Width: 768
GlyphClass: 1
Flags: W
AnchorPoint: "mark_down" 512 128 basechar 0
AnchorPoint: "mark_up" 512 1024 basechar 0
LayerCount: 2
Fore
SplineSet
0 640 m 1,0,-1
 0 768 l 1,1,-1
 0 896 l 1,2,-1
 0 1024 l 1,3,-1
 127 1024 l 1,4,-1
 256 1024 l 1,5,-1
 384 1024 l 1,6,-1
 511 1024 l 1,7,-1
 640 1024 l 1,8,-1
 640 896 l 1,9,-1
 640 768 l 1,10,-1
 640 640 l 1,11,-1
 640 512 l 1,12,-1
 640 384 l 1,13,-1
 640 256 l 1,14,-1
 640 128 l 1,15,-1
 511 128 l 1,16,-1
 511 256 l 1,17,-1
 511 384 l 1,18,-1
 511 512 l 1,19,-1
 511 640 l 1,20,-1
 384 640 l 1,21,-1
 384 768 l 1,22,-1
 511 768 l 1,23,-1
 511 896 l 1,24,-1
 384 896 l 1,25,-1
 384 768 l 1,26,-1
 256 768 l 1,27,-1
 256 896 l 1,28,-1
 127 896 l 1,29,-1
 127 768 l 1,30,-1
 127 640 l 1,31,-1
 0 640 l 1,0,-1
127 512 m 1,32,-1
 127 640 l 1,33,-1
 256 640 l 1,34,-1
 384 640 l 1,35,-1
 384 512 l 1,36,-1
 256 512 l 1,37,-1
 127 512 l 1,32,-1
EndSplineSet
EndChar

StartChar: sa
Encoding: 54 2360 55
Width: 896
GlyphClass: 1
Flags: W
AnchorPoint: "mark_up" 640 1024 basechar 0
AnchorPoint: "mark_down" 640 128 basechar 0
LayerCount: 2
Fore
SplineSet
0 384 m 1,0,-1
 0 512 l 1,1,-1
 128 512 l 1,2,-1
 128 384 l 1,3,-1
 0 384 l 1,0,-1
0 896 m 1,4,-1
 0 1024 l 1,5,-1
 128 1024 l 1,6,-1
 256 1024 l 1,7,-1
 384 1024 l 1,8,-1
 512 1024 l 1,9,-1
 640 1024 l 1,10,-1
 768 1024 l 1,11,-1
 768 896 l 1,12,-1
 768 768 l 1,13,-1
 768 640 l 1,14,-1
 768 512 l 1,15,-1
 768 384 l 1,16,-1
 768 256 l 1,17,-1
 768 128 l 1,18,-1
 640 128 l 1,19,-1
 640 256 l 1,20,-1
 640 384 l 1,21,-1
 512 384 l 1,22,-1
 384 384 l 1,23,-1
 384 512 l 1,24,-1
 512 512 l 1,25,-1
 640 512 l 1,26,-1
 640 640 l 1,27,-1
 640 768 l 1,28,-1
 640 896 l 1,29,-1
 512 896 l 1,30,-1
 384 896 l 1,31,-1
 384 768 l 1,32,-1
 384 640 l 1,33,-1
 384 512 l 1,34,-1
 256 512 l 1,35,-1
 128 512 l 1,36,-1
 128 640 l 1,37,-1
 256 640 l 1,38,-1
 256 768 l 1,39,-1
 256 896 l 1,40,-1
 128 896 l 1,41,-1
 0 896 l 1,4,-1
128 256 m 1,42,-1
 128 384 l 1,43,-1
 256 384 l 1,44,-1
 256 256 l 1,45,-1
 128 256 l 1,42,-1
256 128 m 1,46,-1
 256 256 l 1,47,-1
 384 256 l 1,48,-1
 384 128 l 1,49,-1
 256 128 l 1,46,-1
EndSplineSet
Validated: 5
EndChar

StartChar: ha
Encoding: 55 2361 56
Width: 640
GlyphClass: 1
Flags: W
AnchorPoint: "mark_up" 256 1024 basechar 0
AnchorPoint: "mark_down" 256 0 basechar 0
LayerCount: 2
Fore
SplineSet
-0 128 m 1,0,-1
 -0 256 l 1,1,-1
 -0 384 l 1,2,-1
 128 384 l 1,3,-1
 128 256 l 1,4,-1
 128 128 l 1,5,-1
 -0 128 l 1,0,-1
-0 512 m 1,6,-1
 -0 640 l 1,7,-1
 128 640 l 1,8,-1
 128 512 l 1,9,-1
 -0 512 l 1,6,-1
-0 896 m 1,10,-1
 -0 1024 l 1,11,-1
 128 1024 l 1,12,-1
 256 1024 l 1,13,-1
 384 1024 l 1,14,-1
 512 1024 l 1,15,-1
 512 896 l 1,16,-1
 384 896 l 1,17,-1
 384 768 l 1,18,-1
 384 640 l 1,19,-1
 256 640 l 1,20,-1
 128 640 l 1,21,-1
 128 768 l 1,22,-1
 256 768 l 1,23,-1
 256 896 l 1,24,-1
 128 896 l 1,25,-1
 -0 896 l 1,10,-1
128 0 m 1,26,-1
 128 128 l 1,27,-1
 256 128 l 1,28,-1
 384 128 l 1,29,-1
 384 0 l 1,30,-1
 256 0 l 1,31,-1
 128 0 l 1,26,-1
128 384 m 1,32,-1
 128 512 l 1,33,-1
 256 512 l 1,34,-1
 384 512 l 1,35,-1
 384 384 l 1,36,-1
 256 384 l 1,37,-1
 128 384 l 1,32,-1
384 256 m 1,38,-1
 384 384 l 1,39,-1
 512 384 l 1,40,-1
 512 256 l 1,41,-1
 384 256 l 1,38,-1
EndSplineSet
Validated: 5
EndChar

StartChar: uni093C
Encoding: 56 2364 57
Width: 0
GlyphClass: 1
Flags: W
AnchorPoint: "mark_down" -128 128 mark 0
LayerCount: 2
Fore
SplineSet
-128 -128 m 1028,0,-1
0 -128 m 1028,1,-1
-128 -128 m 5,2,-1
 -128 0 l 5,3,-1
 0 0 l 5,4,-1
 0 -128 l 5,5,-1
 -128 -128 l 5,2,-1
EndSplineSet
Validated: 1
EndChar

StartChar: uni093D
Encoding: 57 2365 58
Width: 640
GlyphClass: 1
Flags: W
LayerCount: 2
Fore
SplineSet
0 256 m 1,0,1
 0 256 0 256 0 384 c 1,2,-1
 128 384 l 1,3,-1
 128 256 l 1,4,-1
 0 256 l 1,0,1
0 768 m 1,5,-1
 0 896 l 1,6,-1
 128 896 l 1,7,-1
 128 768 l 1,8,-1
 0 768 l 1,5,-1
128 128 m 1,9,-1
 128 256 l 1,10,-1
 256 256 l 1,11,-1
 384 256 l 1,12,-1
 384 128 l 1,13,-1
 256 128 l 1,14,-1
 128 128 l 1,9,-1
128 640 m 1,15,-1
 128 768 l 1,16,-1
 256 768 l 1,17,-1
 256 640 l 1,18,-1
 128 640 l 1,15,-1
128 896 m 1,19,-1
 128 1024 l 1,20,-1
 256 1024 l 1,21,-1
 384 1024 l 1,22,-1
 512 1024 l 1,23,-1
 512 896 l 1,24,-1
 384 896 l 1,25,-1
 256 896 l 1,26,-1
 128 896 l 1,19,-1
256 512 m 1,27,-1
 256 640 l 1,28,-1
 384 640 l 1,29,-1
 384 512 l 1,30,-1
 256 512 l 1,27,-1
384 256 m 1,31,32
 384 256 384 256 384 384 c 1,33,-1
 384 512 l 1,34,-1
 512 512 l 1,35,-1
 512 384 l 1,36,-1
 512 256 l 1,37,-1
 384 256 l 1,31,32
EndSplineSet
Validated: 37
EndChar

StartChar: uni093E
Encoding: 58 2366 59
Width: 256
GlyphClass: 1
Flags: W
AnchorPoint: "mark_up" 0 1024 basechar 0
LayerCount: 2
Fore
SplineSet
-128 896 m 1,0,-1
 -128 1024 l 1,1,-1
 0 1024 l 1,2,-1
 128 1024 l 1,3,-1
 128 896 l 1,4,-1
 128 768 l 1,5,-1
 128 640 l 1,6,-1
 128 512 l 1,7,-1
 128 384 l 1,8,-1
 128 256 l 1,9,-1
 128 128 l 1,10,-1
 0 128 l 1,11,-1
 0 256 l 1,12,-1
 0 384 l 1,13,-1
 0 512 l 1,14,-1
 0 640 l 1,15,-1
 0 768 l 1,16,-1
 0 896 l 1,17,-1
 -128 896 l 1,0,-1
EndSplineSet
Validated: 1
EndChar

StartChar: short_i
Encoding: 59 2367 60
Width: 256
GlyphClass: 1
Flags: W
LayerCount: 2
Fore
SplineSet
0 128 m 1,0,-1
 0 256 l 1,1,-1
 0 384 l 1,2,-1
 0 512 l 1,3,-1
 0 640 l 1,4,-1
 0 768 l 1,5,-1
 0 896 l 1,6,-1
 0 1024 l 1,7,-1
 0 1152 l 1,8,-1
 0 1280 l 1,9,-1
 128 1280 l 1,10,-1
 128 1152 l 1,11,-1
 128 1024 l 1,12,-1
 384 1024 l 1,13,-1
 384 1152 l 1,14,-1
 384 1280 l 1,15,-1
 512 1280 l 1,16,-1
 512 1152 l 1,17,-1
 512 1024 l 1,18,-1
 512 896 l 1,19,-1
 384 896 l 1,20,-1
 128 896 l 1,21,-1
 128 768 l 1,22,-1
 128 640 l 1,23,-1
 128 512 l 1,24,-1
 128 384 l 1,25,-1
 128 256 l 1,26,-1
 128 128 l 1,27,-1
 0 128 l 1,0,-1
128 1280 m 1,28,-1
 128 1408 l 1,29,-1
 384 1408 l 1,30,-1
 384 1280 l 1,31,-1
 128 1280 l 1,28,-1
EndSplineSet
Validated: 5
EndChar

StartChar: long_i
Encoding: 60 2368 61
Width: 256
GlyphClass: 1
Flags: W
LayerCount: 2
Fore
SplineSet
-384 1152 m 1025,0,-1
-256 1152 m 1025,1,-1
-384 1152 m 1,2,-1
 -384 1280 l 1,3,-1
 -256 1280 l 1,4,-1
 -256 1152 l 1,5,-1
 -384 1152 l 1,2,-1
-256 896 m 1,6,-1
 -256 1024 l 1,7,-1
 -256 1152 l 1,8,-1
 -128 1152 l 1,9,-1
 -128 1024 l 1,10,-1
 0 1024 l 1,11,-1
 0 1152 l 1,12,-1
 0 1280 l 1,13,-1
 128 1280 l 1,14,-1
 128 1152 l 1,15,-1
 128 1024 l 1,16,-1
 128 896 l 1,17,-1
 128 768 l 1,18,-1
 128 640 l 1,19,-1
 128 512 l 1,20,-1
 128 384 l 1,21,-1
 128 256 l 1,22,-1
 128 128 l 1,23,-1
 0 128 l 1,24,-1
 0 256 l 1,25,-1
 0 384 l 1,26,-1
 0 512 l 1,27,-1
 0 640 l 1,28,-1
 0 768 l 1,29,-1
 0 896 l 1,30,-1
 -128 896 l 1,31,-1
 -256 896 l 1,6,-1
-256 1280 m 1,32,-1
 -256 1408 l 1,33,-1
 0 1408 l 1,34,-1
 0 1280 l 1,35,-1
 -256 1280 l 1,32,-1
EndSplineSet
Validated: 5
EndChar

StartChar: uni0941
Encoding: 61 2369 62
Width: 0
GlyphClass: 1
Flags: W
AnchorPoint: "mark_down" -256 128 mark 0
LayerCount: 2
Fore
SplineSet
-640 0 m 1,0,-1
 -640 128 l 1,1,-1
 -512 128 l 1,2,-1
 -512 0 l 1,3,-1
 -640 0 l 1,0,-1
-512 -128 m 1,4,-1
 -512 0 l 1,5,-1
 -384 0 l 1,6,-1
 -384 -128 l 1,7,-1
 -512 -128 l 1,4,-1
-384 -256 m 1,8,-1
 -384 -128 l 1,9,-1
 -256 -128 l 1,10,-1
 -128 -128 l 1,11,-1
 -128 -256 l 1,12,-1
 -256 -256 l 1,13,-1
 -384 -256 l 1,8,-1
-256 0 m 1,14,-1
 -256 128 l 1,15,-1
 -128 128 l 1,16,-1
 -128 0 l 1,17,-1
 -256 0 l 1,14,-1
-128 -128 m 1,18,-1
 -128 0 l 1,19,-1
 0 0 l 1,20,-1
 0 -128 l 1,21,-1
 -128 -128 l 1,18,-1
EndSplineSet
Validated: 5
EndChar

StartChar: uni0942
Encoding: 62 2370 63
Width: 0
GlyphClass: 1
Flags: W
AnchorPoint: "mark_down" -512 128 mark 0
LayerCount: 2
Fore
SplineSet
-640 -128 m 1,0,-1
 -640 0 l 1,1,-1
 -512 0 l 1,2,-1
 -512 -128 l 1,3,-1
 -640 -128 l 1,0,-1
-512 -256 m 1,4,-1
 -512 -128 l 1,5,-1
 -384 -128 l 1,6,-1
 -384 -256 l 1,7,-1
 -512 -256 l 1,4,-1
-512 0 m 1,8,-1
 -512 128 l 1,9,-1
 -384 128 l 1,10,-1
 -256 128 l 1,11,-1
 -256 0 l 1,12,-1
 -384 0 l 1,13,-1
 -512 0 l 1,8,-1
-256 -128 m 1,14,-1
 -256 0 l 1,15,-1
 -128 0 l 1,16,-1
 -128 -128 l 1,17,-1
 -256 -128 l 1,14,-1
-128 -256 m 1,18,-1
 -128 -128 l 1,19,-1
 0 -128 l 1,20,-1
 0 -256 l 1,21,-1
 -128 -256 l 1,18,-1
EndSplineSet
Validated: 5
EndChar

StartChar: uni0943
Encoding: 63 2371 64
Width: 0
GlyphClass: 1
Flags: W
AnchorPoint: "mark_down" -128 256 mark 0
LayerCount: 2
Fore
SplineSet
-256 0 m 1,0,-1
 -256 128 l 1,1,-1
 -128 128 l 1,2,-1
 -128 0 l 1,3,-1
 -256 0 l 1,0,-1
-128 -128 m 1,4,-1
 -128 0 l 1,5,-1
 0 0 l 1,6,-1
 0 -128 l 1,7,-1
 -128 -128 l 1,4,-1
-128 128 m 1,8,-1
 -128 256 l 1,9,-1
 0 256 l 1,10,-1
 0 128 l 1,11,-1
 -128 128 l 1,8,-1
EndSplineSet
Validated: 5
EndChar

StartChar: uni0944
Encoding: 64 2372 65
Width: 0
GlyphClass: 1
Flags: W
AnchorPoint: "mark_down" -256 256 mark 0
LayerCount: 2
Fore
SplineSet
-384 -256 m 1,0,-1
 -384 -128 l 1,1,-1
 -256 -128 l 1,2,-1
 -256 -256 l 1,3,-1
 -384 -256 l 1,0,-1
-384 0 m 1,4,-1
 -384 128 l 1,5,-1
 -256 128 l 1,6,-1
 -256 0 l 1,7,-1
 -384 0 l 1,4,-1
-256 -384 m 1,8,-1
 -256 -256 l 1,9,-1
 -128 -256 l 1,10,-1
 0 -256 l 1,11,-1
 0 -384 l 1,12,-1
 -128 -384 l 1,13,-1
 -256 -384 l 1,8,-1
-256 -128 m 1,14,-1
 -256 0 l 1,15,-1
 -128 0 l 1,16,-1
 -128 -128 l 1,17,-1
 -256 -128 l 1,14,-1
-256 128 m 1,18,-1
 -256 256 l 1,19,-1
 -128 256 l 1,20,-1
 -128 128 l 1,21,-1
 -256 128 l 1,18,-1
EndSplineSet
Validated: 5
EndChar

StartChar: uni0945
Encoding: 65 2373 66
Width: 0
GlyphClass: 1
Flags: W
AnchorPoint: "mark_up" -256 1024 mark 0
LayerCount: 2
Fore
SplineSet
-384 1408 m 1,0,-1
 -256 1408 l 1,1,-1
 -256 1280 l 1,2,-1
 -384 1280 l 1,3,-1
 -384 1408 l 1,0,-1
-128 1408 m 1,4,-1
 0 1408 l 1,5,-1
 0 1280 l 1,6,-1
 -128 1280 l 1,7,-1
 -128 1408 l 1,4,-1
-256 1280 m 1,8,-1
 -128 1280 l 1,9,-1
 -128 1152 l 1,10,-1
 -256 1152 l 1,11,-1
 -256 1280 l 1,8,-1
EndSplineSet
Validated: 5
EndChar

StartChar: uni0946
Encoding: 66 2374 67
Width: 0
GlyphClass: 1
Flags: W
AnchorPoint: "mark_up" -256 1024 mark 0
LayerCount: 2
Fore
SplineSet
-512 1408 m 1,0,-1
 -512 1536 l 1,1,-1
 -384 1536 l 1,2,-1
 -384 1408 l 1,3,-1
 -512 1408 l 1,0,-1
-384 1280 m 1,4,-1
 -384 1408 l 1,5,-1
 -256 1408 l 1,6,-1
 -128 1408 l 1,7,-1
 -128 1280 l 1,8,-1
 -256 1280 l 1,9,-1
 -384 1280 l 1,4,-1
-256 1024 m 1,10,-1
 -256 1152 l 1,11,-1
 -128 1152 l 1,12,-1
 -128 1024 l 1,13,-1
 -256 1024 l 1,10,-1
-128 1152 m 1,14,-1
 -128 1280 l 1,15,-1
 0 1280 l 1,16,-1
 0 1152 l 1,17,-1
 -128 1152 l 1,14,-1
EndSplineSet
Validated: 5
EndChar

StartChar: uni0947
Encoding: 67 2375 68
Width: 0
GlyphClass: 1
Flags: W
AnchorPoint: "mark_up" -128 1024 mark 0
LayerCount: 2
Fore
SplineSet
-384 1280 m 5,0,-1
 -384 1408 l 5,1,-1
 -256 1408 l 5,2,-1
 -256 1280 l 5,3,-1
 -384 1280 l 5,0,-1
-256 1152 m 5,4,-1
 -256 1280 l 5,5,-1
 -128 1280 l 5,6,-1
 -128 1152 l 5,7,-1
 -256 1152 l 5,4,-1
-128 1024 m 5,8,-1
 -128 1152 l 5,9,-1
 0 1152 l 5,10,-1
 0 1024 l 5,11,-1
 -128 1024 l 5,8,-1
EndSplineSet
Validated: 5
EndChar

StartChar: uni0948
Encoding: 68 2376 69
Width: 0
GlyphClass: 1
Flags: W
AnchorPoint: "mark_up" -256 1024 mark 0
LayerCount: 2
Fore
SplineSet
-512 1280 m 1,0,-1
 -512 1408 l 1,1,-1
 -384 1408 l 1,2,-1
 -384 1280 l 1,3,-1
 -512 1280 l 1,0,-1
-384 1152 m 1,4,-1
 -384 1280 l 1,5,-1
 -256 1280 l 1,6,-1
 -256 1152 l 1,7,-1
 -384 1152 l 1,4,-1
-256 1024 m 1,8,-1
 -256 1152 l 1,9,-1
 -128 1152 l 1,10,-1
 -128 1024 l 1,11,-1
 -256 1024 l 1,8,-1
-256 1408 m 1,12,-1
 -256 1536 l 1,13,-1
 -128 1536 l 1,14,-1
 -128 1408 l 1,15,-1
 -256 1408 l 1,12,-1
-128 1152 m 1,16,-1
 -128 1280 l 1,17,-1
 -128 1408 l 1,18,-1
 0 1408 l 1,19,-1
 0 1280 l 1,20,-1
 0 1152 l 1,21,-1
 -128 1152 l 1,16,-1
EndSplineSet
Validated: 5
EndChar

StartChar: uni0949
Encoding: 69 2377 70
Width: 256
GlyphClass: 1
Flags: W
LayerCount: 2
Fore
SplineSet
-128 1408 m 1,0,-1
 0 1408 l 1,1,-1
 0 1280 l 1,2,-1
 -128 1280 l 1,3,-1
 -128 1408 l 1,0,-1
128 1408 m 1,4,-1
 256 1408 l 1,5,-1
 256 1280 l 1,6,-1
 128 1280 l 1,7,-1
 128 1408 l 1,4,-1
0 1280 m 1,8,-1
 128 1280 l 1,9,-1
 128 1152 l 1,10,-1
 0 1152 l 1,11,-1
 0 1280 l 1,8,-1
-128 896 m 1,12,-1
 -128 1024 l 1,13,-1
 0 1024 l 1,14,-1
 128 1024 l 1,15,-1
 128 896 l 1,16,-1
 128 768 l 1,17,-1
 128 640 l 1,18,-1
 128 512 l 1,19,-1
 128 384 l 1,20,-1
 128 256 l 1,21,-1
 128 128 l 1,22,-1
 0 128 l 1,23,-1
 0 256 l 1,24,-1
 0 384 l 1,25,-1
 0 512 l 1,26,-1
 0 640 l 1,27,-1
 0 768 l 1,28,-1
 0 896 l 1,29,-1
 -128 896 l 1,12,-1
EndSplineSet
Validated: 5
EndChar

StartChar: uni094A
Encoding: 70 2378 71
Width: 256
GlyphClass: 1
Flags: W
LayerCount: 2
Fore
SplineSet
-256 1408 m 1,0,-1
 -256 1536 l 1,1,-1
 -127 1536 l 1,2,-1
 -127 1408 l 1,3,-1
 -256 1408 l 1,0,-1
-127 1280 m 1,4,-1
 -127 1408 l 1,5,-1
 0 1408 l 1,6,-1
 128 1408 l 1,7,-1
 128 1280 l 1,8,-1
 0 1280 l 1,9,-1
 -127 1280 l 1,4,-1
0 1024 m 1,10,-1
 0 1152 l 1,11,-1
 128 1152 l 1,12,-1
 128 1024 l 1,13,-1
 0 1024 l 1,10,-1
128 1152 m 1,14,-1
 128 1280 l 1,15,-1
 256 1280 l 1,16,-1
 256 1152 l 1,17,-1
 128 1152 l 1,14,-1
-128 896 m 1,18,-1
 -128 1024 l 1,19,-1
 0 1024 l 1,20,-1
 128 1024 l 1,21,-1
 128 896 l 1,22,-1
 128 768 l 1,23,-1
 128 640 l 1,24,-1
 128 512 l 1,25,-1
 128 384 l 1,26,-1
 128 256 l 1,27,-1
 128 128 l 1,28,-1
 0 128 l 1,29,-1
 0 256 l 1,30,-1
 0 384 l 1,31,-1
 0 512 l 1,32,-1
 0 640 l 1,33,-1
 0 768 l 1,34,-1
 0 896 l 1,35,-1
 -128 896 l 1,18,-1
EndSplineSet
Validated: 5
EndChar

StartChar: uni094B
Encoding: 71 2379 72
Width: 256
GlyphClass: 1
Flags: W
LayerCount: 2
Fore
SplineSet
-256 1280 m 1,0,-1
 -256 1408 l 1,1,-1
 -129 1408 l 1,2,-1
 -129 1280 l 1,3,-1
 -256 1280 l 1,0,-1
-129 1152 m 1,4,-1
 -129 1280 l 1,5,-1
 0 1280 l 1,6,-1
 0 1152 l 1,7,-1
 -129 1152 l 1,4,-1
0 1024 m 1,8,-1
 0 1152 l 1,9,-1
 128 1152 l 1,10,-1
 128 1024 l 1,11,-1
 0 1024 l 1,8,-1
-128 896 m 1,12,-1
 -128 1024 l 1,13,-1
 0 1024 l 1,14,-1
 128 1024 l 1,15,-1
 128 896 l 1,16,-1
 128 768 l 1,17,-1
 128 640 l 1,18,-1
 128 512 l 1,19,-1
 128 384 l 1,20,-1
 128 256 l 1,21,-1
 128 128 l 1,22,-1
 0 128 l 1,23,-1
 0 256 l 1,24,-1
 0 384 l 1,25,-1
 0 512 l 1,26,-1
 0 640 l 1,27,-1
 0 768 l 1,28,-1
 0 896 l 1,29,-1
 -128 896 l 1,12,-1
EndSplineSet
Validated: 5
EndChar

StartChar: uni094C
Encoding: 72 2380 73
Width: 256
GlyphClass: 1
Flags: W
LayerCount: 2
Fore
SplineSet
-256 1280 m 1,0,-1
 -256 1408 l 1,1,-1
 -127 1408 l 1,2,-1
 -127 1280 l 1,3,-1
 -256 1280 l 1,0,-1
-127 1152 m 1,4,-1
 -127 1280 l 1,5,-1
 0 1280 l 1,6,-1
 0 1152 l 1,7,-1
 -127 1152 l 1,4,-1
0 1024 m 1,8,-1
 0 1152 l 1,9,-1
 128 1152 l 1,10,-1
 128 1024 l 1,11,-1
 0 1024 l 1,8,-1
0 1408 m 1,12,-1
 0 1536 l 1,13,-1
 128 1536 l 1,14,-1
 128 1408 l 1,15,-1
 0 1408 l 1,12,-1
128 1152 m 1,16,-1
 128 1280 l 1,17,-1
 128 1408 l 1,18,-1
 256 1408 l 1,19,-1
 256 1280 l 1,20,-1
 256 1152 l 1,21,-1
 128 1152 l 1,16,-1
-128 896 m 1,22,-1
 -128 1024 l 1,23,-1
 0 1024 l 1,24,-1
 128 1024 l 1,25,-1
 128 896 l 1,26,-1
 128 768 l 1,27,-1
 128 640 l 1,28,-1
 128 512 l 1,29,-1
 128 384 l 1,30,-1
 128 256 l 1,31,-1
 128 128 l 1,32,-1
 0 128 l 1,33,-1
 0 256 l 1,34,-1
 0 384 l 1,35,-1
 0 512 l 1,36,-1
 0 640 l 1,37,-1
 0 768 l 1,38,-1
 0 896 l 1,39,-1
 -128 896 l 1,22,-1
EndSplineSet
Validated: 5
EndChar

StartChar: halant
Encoding: 73 2381 74
Width: 0
GlyphClass: 1
Flags: W
AnchorPoint: "mark_down" -384 128 mark 0
LayerCount: 2
Fore
SplineSet
-256 0 m 1,0,-1
 -256 128 l 1,1,-1
 -128 128 l 1,2,-1
 -128 0 l 1,3,-1
 -256 0 l 1,0,-1
-128 -128 m 1,4,-1
 -128 0 l 1,5,-1
 0 0 l 1,6,-1
 0 -128 l 1,7,-1
 -128 -128 l 1,4,-1
EndSplineSet
Validated: 5
EndChar

StartChar: uni0951
Encoding: -1 2384 75
Width: 1152
GlyphClass: 1
Flags: W
LayerCount: 2
Fore
SplineSet
0 128 m 1,0,-1
 0 256 l 1,1,-1
 128 256 l 1,2,-1
 128 128 l 1,3,-1
 0 128 l 1,0,-1
0 640 m 1,4,-1
 0 768 l 1,5,-1
 128 768 l 1,6,-1
 128 640 l 1,7,-1
 0 640 l 1,4,-1
128 0 m 1,8,-1
 128 128 l 1,9,-1
 256 128 l 1,10,-1
 384 128 l 1,11,-1
 384 0 l 1,12,-1
 256 0 l 1,13,-1
 128 0 l 1,8,-1
128 768 m 1,14,-1
 128 896 l 1,15,-1
 256 896 l 1,16,-1
 384 896 l 1,17,-1
 384 768 l 1,18,-1
 256 768 l 1,19,-1
 128 768 l 1,14,-1
256 384 m 1,20,-1
 256 512 l 1,21,-1
 384 512 l 1,22,-1
 384 384 l 1,23,-1
 256 384 l 1,20,-1
384 128 m 1,24,-1
 384 256 l 1,25,-1
 384 384 l 1,26,-1
 512 384 l 1,27,-1
 640 384 l 1,28,-1
 640 256 l 1,29,-1
 512 256 l 1,30,-1
 512 128 l 1,31,-1
 384 128 l 1,24,-1
384 512 m 1,32,-1
 384 640 l 1,33,-1
 384 768 l 1,34,-1
 512 768 l 1,35,-1
 512 640 l 1,36,-1
 512 512 l 1,37,-1
 384 512 l 1,32,-1
640 0 m 1,38,-1
 640 128 l 1,39,-1
 768 128 l 1,40,-1
 768 0 l 1,41,-1
 640 0 l 1,38,-1
640 384 m 1,42,-1
 640 512 l 1,43,-1
 768 512 l 1,44,-1
 768 384 l 1,45,-1
 640 384 l 1,42,-1
640 768 m 1,46,-1
 640 896 l 1,47,-1
 768 896 l 1,48,-1
 768 768 l 1,49,-1
 640 768 l 1,46,-1
768 128 m 1,50,-1
 768 256 l 1,51,-1
 768 384 l 1,52,-1
 896 384 l 1,53,-1
 896 256 l 1,54,-1
 896 128 l 1,55,-1
 768 128 l 1,50,-1
768 640 m 1,56,-1
 768 768 l 1,57,-1
 896 768 l 1,58,-1
 896 640 l 1,59,-1
 768 640 l 1,56,-1
768 1024 m 1,60,-1
 768 1152 l 1,61,-1
 896 1152 l 1,62,-1
 896 1024 l 1,63,-1
 768 1024 l 1,60,-1
896 768 m 1,64,-1
 896 896 l 1,65,-1
 1024 896 l 1,66,-1
 1024 768 l 1,67,-1
 896 768 l 1,64,-1
EndSplineSet
Validated: 5
EndChar

StartChar: uni0950
Encoding: 74 2384 76
Width: 1152
GlyphClass: 1
Flags: W
LayerCount: 2
Fore
SplineSet
0 128 m 1,0,-1
 0 257 l 1,1,-1
 128 257 l 1,2,-1
 128 128 l 1,3,-1
 0 128 l 1,0,-1
0 641 m 1,4,-1
 0 768 l 1,5,-1
 128 768 l 1,6,-1
 128 641 l 1,7,-1
 0 641 l 1,4,-1
128 0 m 1,8,-1
 128 128 l 1,9,-1
 255 128 l 1,10,-1
 384 128 l 1,11,-1
 384 0 l 1,12,-1
 255 0 l 1,13,-1
 128 0 l 1,8,-1
128 768 m 1,14,-1
 128 896 l 1,15,-1
 255 896 l 1,16,-1
 384 896 l 1,17,-1
 384 768 l 1,18,-1
 255 768 l 1,19,-1
 128 768 l 1,14,-1
255 384 m 1,20,-1
 255 512 l 1,21,-1
 384 512 l 1,22,-1
 384 384 l 1,23,-1
 255 384 l 1,20,-1
384 128 m 1,24,-1
 384 257 l 1,25,-1
 384 384 l 1,26,-1
 512 384 l 1,27,-1
 639 384 l 1,28,-1
 639 257 l 1,29,-1
 512 257 l 1,30,-1
 512 128 l 1,31,-1
 384 128 l 1,24,-1
384 512 m 1,32,-1
 384 641 l 1,33,-1
 384 768 l 1,34,-1
 512 768 l 1,35,-1
 512 641 l 1,36,-1
 512 512 l 1,37,-1
 384 512 l 1,32,-1
639 0 m 1,38,-1
 639 128 l 1,39,-1
 768 128 l 1,40,-1
 768 0 l 1,41,-1
 639 0 l 1,38,-1
639 384 m 1,42,-1
 639 512 l 1,43,-1
 768 512 l 1,44,-1
 768 384 l 1,45,-1
 639 384 l 1,42,-1
639 768 m 1,46,-1
 639 896 l 1,47,-1
 768 896 l 1,48,-1
 768 768 l 1,49,-1
 639 768 l 1,46,-1
768 128 m 1,50,-1
 768 257 l 1,51,-1
 768 384 l 1,52,-1
 896 384 l 1,53,-1
 896 257 l 1,54,-1
 896 128 l 1,55,-1
 768 128 l 1,50,-1
768 641 m 1,56,-1
 768 768 l 1,57,-1
 896 768 l 1,58,-1
 896 641 l 1,59,-1
 768 641 l 1,56,-1
768 1025 m 1,60,-1
 768 1152 l 1,61,-1
 896 1152 l 1,62,-1
 896 1025 l 1,63,-1
 768 1025 l 1,60,-1
896 768 m 1,64,-1
 896 896 l 1,65,-1
 1023 896 l 1,66,-1
 1023 768 l 1,67,-1
 896 768 l 1,64,-1
EndSplineSet
Validated: 5
EndChar

StartChar: uni0960
Encoding: 76 2400 77
Width: 1152
GlyphClass: 1
Flags: W
LayerCount: 2
Fore
SplineSet
0 256 m 1,0,-1
 0 384 l 1,1,-1
 128 384 l 1,2,-1
 128 256 l 1,3,-1
 0 256 l 1,0,-1
0 640 m 1,4,-1
 0 768 l 1,5,-1
 128 768 l 1,6,-1
 256 768 l 1,7,-1
 256 640 l 1,8,-1
 128 640 l 1,9,-1
 0 640 l 1,4,-1
0 896 m 1,10,-1
 0 1024 l 1,11,-1
 128 1024 l 1,12,-1
 256 1024 l 1,13,-1
 384 1024 l 1,14,-1
 512 1024 l 1,15,-1
 640 1024 l 1,16,-1
 768 1024 l 1,17,-1
 896 1024 l 1,18,-1
 1024 1024 l 1,19,-1
 1024 896 l 1,20,-1
 896 896 l 1,21,-1
 768 896 l 1,22,-1
 640 896 l 1,23,-1
 512 896 l 1,24,-1
 512 768 l 1,25,-1
 512 640 l 1,26,-1
 640 640 l 1,27,-1
 640 512 l 1,28,-1
 512 512 l 1,29,-1
 512 384 l 1,30,-1
 512 256 l 1,31,-1
 512 128 l 1,32,-1
 384 128 l 1,33,-1
 384 256 l 1,34,-1
 384 384 l 1,35,-1
 384 512 l 1,36,-1
 256 512 l 1,37,-1
 256 640 l 1,38,-1
 384 640 l 1,39,-1
 384 768 l 1,40,-1
 384 896 l 1,41,-1
 256 896 l 1,42,-1
 128 896 l 1,43,-1
 0 896 l 1,10,-1
128 384 m 1,44,-1
 128 512 l 1,45,-1
 256 512 l 1,46,-1
 256 384 l 1,47,-1
 128 384 l 1,44,-1
640 1 m 1,48,-1
 640 128 l 1,49,-1
 768 128 l 1,50,-1
 768 1 l 1,51,-1
 640 1 l 1,48,-1
640 256 m 1,52,-1
 640 384 l 1,53,-1
 768 384 l 1,54,-1
 768 256 l 1,55,-1
 640 256 l 1,52,-1
640 640 m 1,56,-1
 640 768 l 1,57,-1
 768 768 l 1,58,-1
 768 640 l 1,59,-1
 640 640 l 1,56,-1
768 -128 m 1,60,-1
 768 1 l 1,61,-1
 896 1 l 1,62,-1
 1024 1 l 1,63,-1
 1024 -128 l 1,64,-1
 896 -128 l 1,65,-1
 768 -128 l 1,60,-1
768 128 m 1,66,-1
 768 256 l 1,67,-1
 896 256 l 1,68,-1
 896 128 l 1,69,-1
 768 128 l 1,66,-1
768 384 m 1,70,-1
 768 512 l 1,71,-1
 768 640 l 1,72,-1
 896 640 l 1,73,-1
 896 512 l 1,74,-1
 896 384 l 1,75,-1
 768 384 l 1,70,-1
EndSplineSet
Validated: 5
EndChar

StartChar: uni0961
Encoding: 77 2401 78
Width: 1152
GlyphClass: 1
Flags: W
LayerCount: 2
Fore
SplineSet
0 384 m 1,0,-1
 0 512 l 1,1,2
 0 512 0 512 0 640 c 1,3,-1
 128 640 l 1,4,-1
 128 512 l 1,5,-1
 128 384 l 1,6,-1
 0 384 l 1,0,-1
0 896 m 1,7,-1
 0 1024 l 1,8,-1
 128 1024 l 1,9,-1
 256 1024 l 1,10,-1
 384 1024 l 1,11,-1
 512 1024 l 1,12,-1
 640 1024 l 1,13,-1
 768 1024 l 1,14,-1
 896 1024 l 1,15,-1
 1024 1024 l 1,16,-1
 1024 896 l 1,17,-1
 896 896 l 1,18,-1
 768 896 l 1,19,-1
 768 768 l 1,20,-1
 768 640 l 1,21,-1
 640 640 l 1,22,-1
 512 640 l 1,23,-1
 512 768 l 1,24,-1
 640 768 l 1,25,-1
 640 896 l 1,26,-1
 512 896 l 1,27,-1
 384 896 l 1,28,-1
 256 896 l 1,29,-1
 128 896 l 1,30,-1
 0 896 l 1,7,-1
128 256 m 1,31,-1
 128 384 l 1,32,-1
 256 384 l 1,33,-1
 256 256 l 1,34,-1
 128 256 l 1,31,-1
128 640 m 1,35,-1
 128 768 l 1,36,-1
 256 768 l 1,37,-1
 384 768 l 1,38,-1
 384 640 l 1,39,-1
 256 640 l 1,40,-1
 128 640 l 1,35,-1
384 512 m 1,41,42
 384 512 384 512 384 640 c 1,43,-1
 512 640 l 1,44,-1
 512 512 l 1,45,-1
 384 512 l 1,41,42
640 128 m 1,46,47
 640 128 640 128 640 256 c 1,48,-1
 768 256 l 1,49,-1
 768 128 l 1,50,-1
 640 128 l 1,46,47
640 384 m 1,51,-1
 640 512 l 1,52,-1
 768 512 l 1,53,-1
 768 384 l 1,54,-1
 640 384 l 1,51,-1
768 0 m 1,55,-1
 768 128 l 1,56,-1
 896 128 l 1,57,-1
 1024 128 l 1,58,-1
 1024 0 l 1,59,-1
 896 0 l 1,60,-1
 768 0 l 1,55,-1
768 256 m 1,61,-1
 768 384 l 1,62,-1
 896 384 l 1,63,-1
 896 256 l 1,64,-1
 768 256 l 1,61,-1
768 512 m 1,65,66
 768 512 768 512 768 640 c 1,67,-1
 896 640 l 1,68,-1
 896 512 l 1,69,-1
 768 512 l 1,65,66
EndSplineSet
Validated: 5
EndChar

StartChar: uni0962
Encoding: 78 2402 79
Width: 0
GlyphClass: 1
Flags: W
AnchorPoint: "mark_down" -256 128 mark 0
LayerCount: 2
Fore
SplineSet
-768 -256 m 1,0,-1
 -768 -128 l 1,1,-1
 -640 -128 l 1,2,-1
 -640 -256 l 1,3,-1
 -768 -256 l 1,0,-1
-640 -384 m 1,4,-1
 -640 -256 l 1,5,-1
 -512 -256 l 1,6,-1
 -512 -384 l 1,7,-1
 -640 -384 l 1,4,-1
-640 -128 m 1,8,-1
 -640 -0 l 1,9,-1
 -512 -0 l 1,10,-1
 -384 -0 l 1,11,-1
 -384 -128 l 1,12,-1
 -512 -128 l 1,13,-1
 -640 -128 l 1,8,-1
-384 -0 m 1,14,-1
 -384 128 l 1,15,-1
 -256 128 l 1,16,-1
 -128 128 l 1,17,-1
 -128 -0 l 1,18,-1
 -256 -0 l 1,19,-1
 -384 -0 l 1,14,-1
-256 -256 m 1,20,-1
 -256 -128 l 1,21,-1
 -128 -128 l 1,22,-1
 -128 -256 l 1,23,-1
 -256 -256 l 1,20,-1
-128 -384 m 1,24,-1
 -128 -256 l 1,25,-1
 -0 -256 l 1,26,-1
 -0 -384 l 1,27,-1
 -128 -384 l 1,24,-1
-128 -128 m 1,28,-1
 -128 -0 l 1,29,-1
 -0 -0 l 1,30,-1
 -0 -128 l 1,31,-1
 -128 -128 l 1,28,-1
EndSplineSet
Validated: 5
EndChar

StartChar: uni0963
Encoding: 79 2403 80
Width: 0
GlyphClass: 1
Flags: W
AnchorPoint: "mark_down" -384 128 mark 0
LayerCount: 2
Fore
SplineSet
-896 -256 m 1,0,-1
 -896 -128 l 1,1,-1
 -768 -128 l 1,2,-1
 -768 -256 l 1,3,-1
 -896 -256 l 1,0,-1
-768 -384 m 1,4,-1
 -768 -256 l 1,5,-1
 -640 -256 l 1,6,-1
 -640 -384 l 1,7,-1
 -768 -384 l 1,4,-1
-768 -128 m 1,8,-1
 -768 0 l 1,9,-1
 -640 0 l 1,10,-1
 -512 0 l 1,11,-1
 -512 -128 l 1,12,-1
 -640 -128 l 1,13,-1
 -768 -128 l 1,8,-1
-512 0 m 1,14,-1
 -512 128 l 1,15,-1
 -384 128 l 1,16,-1
 -256 128 l 1,17,-1
 -256 0 l 1,18,-1
 -384 0 l 1,19,-1
 -512 0 l 1,14,-1
-384 -512 m 1,20,-1
 -384 -384 l 1,21,-1
 -256 -384 l 1,22,-1
 -256 -512 l 1,23,-1
 -384 -512 l 1,20,-1
-384 -256 m 1,24,-1
 -384 -128 l 1,25,-1
 -256 -128 l 1,26,-1
 -256 -256 l 1,27,-1
 -384 -256 l 1,24,-1
-256 -640 m 1,28,-1
 -256 -512 l 1,29,-1
 -128 -512 l 1,30,-1
 0 -512 l 1,31,-1
 0 -640 l 1,32,-1
 -128 -640 l 1,33,-1
 -256 -640 l 1,28,-1
-256 -384 m 1,34,-1
 -256 -256 l 1,35,-1
 -128 -256 l 1,36,-1
 -128 -384 l 1,37,-1
 -256 -384 l 1,34,-1
-256 -128 m 1,38,-1
 -256 0 l 1,39,-1
 -128 0 l 1,40,-1
 -128 -128 l 1,41,-1
 -256 -128 l 1,38,-1
EndSplineSet
Validated: 5
EndChar

StartChar: uni0964
Encoding: 80 2404 81
Width: 256
GlyphClass: 1
Flags: W
LayerCount: 2
Fore
SplineSet
0 128 m 1,0,-1
 0 896 l 1,1,-1
 128 896 l 1,2,-1
 128 128 l 1,3,-1
 0 128 l 1,0,-1
EndSplineSet
Validated: 1
EndChar

StartChar: uni0965
Encoding: 81 2405 82
Width: 512
GlyphClass: 1
Flags: W
LayerCount: 2
Fore
SplineSet
256 128 m 1,0,-1
 256 896 l 1,1,-1
 384 896 l 1,2,-1
 384 128 l 1,3,-1
 256 128 l 1,0,-1
0 128 m 1,4,-1
 0 896 l 1,5,-1
 128 896 l 1,6,-1
 128 128 l 1,7,-1
 0 128 l 1,4,-1
EndSplineSet
Validated: 1
EndChar

StartChar: uni0966
Encoding: 82 2406 83
Width: 768
GlyphClass: 1
Flags: W
LayerCount: 2
Fore
SplineSet
0 256 m 1,0,-1
 0 384 l 1,1,-1
 0 512 l 1,2,-1
 0 640 l 1,3,-1
 0 768 l 1,4,-1
 128 768 l 1,5,-1
 128 640 l 1,6,-1
 128 512 l 1,7,-1
 128 384 l 1,8,-1
 128 256 l 1,9,-1
 0 256 l 1,0,-1
128 128 m 1,10,-1
 128 256 l 1,11,-1
 256 256 l 1,12,-1
 384 256 l 1,13,-1
 512 256 l 1,14,-1
 512 128 l 1,15,-1
 384 128 l 1,16,-1
 256 128 l 1,17,-1
 128 128 l 1,10,-1
128 768 m 1,18,-1
 128 896 l 1,19,-1
 256 896 l 1,20,-1
 384 896 l 1,21,-1
 512 896 l 1,22,-1
 512 768 l 1,23,-1
 384 768 l 1,24,-1
 256 768 l 1,25,-1
 128 768 l 1,18,-1
512 256 m 1,26,-1
 512 384 l 1,27,-1
 512 512 l 1,28,-1
 512 640 l 1,29,-1
 512 768 l 1,30,-1
 640 768 l 1,31,-1
 640 640 l 1,32,-1
 640 512 l 1,33,-1
 640 384 l 1,34,-1
 640 256 l 1,35,-1
 512 256 l 1,26,-1
EndSplineSet
Validated: 5
EndChar

StartChar: uni0967
Encoding: 83 2407 84
Width: 640
GlyphClass: 1
Flags: W
LayerCount: 2
Fore
SplineSet
0 768 m 1,0,-1
 0 896 l 1,1,-1
 128 896 l 1,2,-1
 128 768 l 1,3,-1
 0 768 l 1,0,-1
128 256 m 1,4,-1
 128 384 l 1,5,-1
 256 384 l 1,6,-1
 256 256 l 1,7,-1
 128 256 l 1,4,-1
128 640 m 1,8,-1
 128 768 l 1,9,-1
 256 768 l 1,10,-1
 256 640 l 1,11,-1
 128 640 l 1,8,-1
128 896 m 1,12,-1
 128 1024 l 1,13,-1
 256 1024 l 1,14,-1
 256 896 l 1,15,-1
 128 896 l 1,12,-1
256 128 m 1,16,-1
 256 256 l 1,17,-1
 384 256 l 1,18,-1
 384 128 l 1,19,-1
 256 128 l 1,16,-1
256 384 m 1,20,-1
 256 512 l 1,21,-1
 384 512 l 1,22,-1
 384 384 l 1,23,-1
 256 384 l 1,20,-1
256 768 m 1,24,-1
 256 896 l 1,25,-1
 384 896 l 1,26,-1
 384 768 l 1,27,-1
 256 768 l 1,24,-1
384 0 m 1,28,-1
 384 128 l 1,29,-1
 512 128 l 1,30,-1
 512 0 l 1,31,-1
 384 0 l 1,28,-1
384 512 m 1,32,-1
 384 640 l 1,33,-1
 384 768 l 1,34,-1
 512 768 l 1,35,-1
 512 640 l 1,36,-1
 512 512 l 1,37,-1
 384 512 l 1,32,-1
EndSplineSet
Validated: 5
EndChar

StartChar: uni0968
Encoding: 84 2408 85
Width: 640
GlyphClass: 1
Flags: W
LayerCount: 2
Fore
SplineSet
0 640 m 1,0,-1
 0 768 l 1,1,-1
 128 768 l 1,2,-1
 128 640 l 1,3,-1
 0 640 l 1,0,-1
128 256 m 1,4,-1
 128 384 l 1,5,-1
 256 384 l 1,6,-1
 256 256 l 1,7,-1
 128 256 l 1,4,-1
128 768 m 1,8,-1
 128 896 l 1,9,-1
 256 896 l 1,10,-1
 384 896 l 1,11,-1
 384 768 l 1,12,-1
 256 768 l 1,13,-1
 128 768 l 1,8,-1
256 128 m 1,14,-1
 256 256 l 1,15,-1
 384 256 l 1,16,-1
 384 128 l 1,17,-1
 256 128 l 1,14,-1
256 384 m 1,18,-1
 256 512 l 1,19,-1
 384 512 l 1,20,-1
 384 384 l 1,21,-1
 256 384 l 1,18,-1
384 0 m 1,22,-1
 384 128 l 1,23,-1
 512 128 l 1,24,-1
 512 0 l 1,25,-1
 384 0 l 1,22,-1
384 512 m 1,26,-1
 384 640 l 1,27,-1
 384 768 l 1,28,-1
 512 768 l 1,29,-1
 512 640 l 1,30,-1
 512 512 l 1,31,-1
 384 512 l 1,26,-1
EndSplineSet
Validated: 5
EndChar

StartChar: uni0969
Encoding: 85 2409 86
Width: 640
GlyphClass: 1
Flags: W
LayerCount: 2
Fore
SplineSet
0 128 m 1,0,-1
 0 256 l 1,1,-1
 128 256 l 1,2,-1
 128 128 l 1,3,-1
 0 128 l 1,0,-1
0 640 m 1,4,-1
 0 768 l 1,5,-1
 128 768 l 1,6,-1
 128 640 l 1,7,-1
 0 640 l 1,4,-1
128 0 m 1,8,-1
 128 128 l 1,9,-1
 256 128 l 1,10,-1
 384 128 l 1,11,-1
 384 0 l 1,12,-1
 512 0 l 1,13,-1
 512 -128 l 1,14,-1
 384 -128 l 1,15,-1
 256 -128 l 1,16,-1
 256 0 l 1,17,-1
 128 0 l 1,8,-1
128 768 m 1,18,-1
 128 896 l 1,19,-1
 256 896 l 1,20,-1
 384 896 l 1,21,-1
 384 768 l 1,22,-1
 256 768 l 1,23,-1
 128 768 l 1,18,-1
256 384 m 1,24,-1
 256 512 l 1,25,-1
 384 512 l 1,26,-1
 384 384 l 1,27,-1
 256 384 l 1,24,-1
384 128 m 1,28,-1
 384 256 l 1,29,-1
 384 384 l 1,30,-1
 512 384 l 1,31,-1
 512 256 l 1,32,-1
 512 128 l 1,33,-1
 384 128 l 1,28,-1
384 512 m 1,34,-1
 384 640 l 1,35,-1
 384 768 l 1,36,-1
 512 768 l 1,37,-1
 512 640 l 1,38,-1
 512 512 l 1,39,-1
 384 512 l 1,34,-1
EndSplineSet
Validated: 5
EndChar

StartChar: uni096A
Encoding: 86 2410 87
Width: 768
GlyphClass: 1
Flags: W
LayerCount: 2
Fore
SplineSet
0 512 m 1,0,-1
 0 640 l 1,1,-1
 0 768 l 1,2,-1
 0 896 l 1,3,-1
 128 896 l 1,4,-1
 128 768 l 1,5,-1
 128 640 l 1,6,-1
 128 512 l 1,7,-1
 0 512 l 1,0,-1
128 128 m 1,8,-1
 128 256 l 1,9,-1
 256 256 l 1,10,-1
 256 128 l 1,11,-1
 128 128 l 1,8,-1
128 384 m 1,12,-1
 128 512 l 1,13,-1
 256 512 l 1,14,-1
 256 384 l 1,15,-1
 128 384 l 1,12,-1
256 0 m 1,16,-1
 256 128 l 1,17,-1
 384 128 l 1,18,-1
 384 0 l 1,19,-1
 256 0 l 1,16,-1
256 256 m 1,20,-1
 256 384 l 1,21,-1
 384 384 l 1,22,-1
 384 256 l 1,23,-1
 256 256 l 1,20,-1
384 128 m 1,24,-1
 384 256 l 1,25,-1
 512 256 l 1,26,-1
 512 128 l 1,27,-1
 384 128 l 1,24,-1
384 384 m 1,28,-1
 384 512 l 1,29,-1
 512 512 l 1,30,-1
 512 384 l 1,31,-1
 384 384 l 1,28,-1
512 512 m 1,32,-1
 512 640 l 1,33,-1
 512 768 l 1,34,-1
 512 896 l 1,35,-1
 640 896 l 1,36,-1
 640 768 l 1,37,-1
 640 640 l 1,38,-1
 640 512 l 1,39,-1
 512 512 l 1,32,-1
EndSplineSet
Validated: 5
EndChar

StartChar: uni096B
Encoding: 87 2411 88
Width: 768
GlyphClass: 1
Flags: W
LayerCount: 2
Fore
SplineSet
0 512 m 1,0,-1
 0 640 l 1,1,-1
 0 768 l 1,2,-1
 0 896 l 1,3,-1
 128 896 l 1,4,-1
 128 768 l 1,5,-1
 128 640 l 1,6,-1
 128 512 l 1,7,-1
 0 512 l 1,0,-1
128 384 m 1,8,-1
 128 512 l 1,9,-1
 256 512 l 1,10,-1
 384 512 l 1,11,-1
 384 640 l 1,12,-1
 384 768 l 1,13,-1
 512 768 l 1,14,-1
 512 640 l 1,15,-1
 512 512 l 1,16,-1
 512 384 l 1,17,-1
 384 384 l 1,18,-1
 256 384 l 1,19,-1
 128 384 l 1,8,-1
512 128 m 1,20,-1
 512 256 l 1,21,-1
 512 384 l 1,22,-1
 640 384 l 1,23,-1
 640 256 l 1,24,-1
 640 128 l 1,25,-1
 512 128 l 1,20,-1
EndSplineSet
Validated: 5
EndChar

StartChar: uni096C
Encoding: 88 2412 89
Width: 640
GlyphClass: 1
Flags: W
LayerCount: 2
Fore
SplineSet
0 128 m 1,0,-1
 0 256 l 1,1,-1
 0 384 l 1,2,-1
 128 384 l 1,3,-1
 128 256 l 1,4,-1
 128 128 l 1,5,-1
 0 128 l 1,0,-1
0 512 m 1,6,-1
 0 640 l 1,7,-1
 0 768 l 1,8,-1
 128 768 l 1,9,-1
 128 640 l 1,10,-1
 128 512 l 1,11,-1
 0 512 l 1,6,-1
128 0 m 1,12,-1
 128 128 l 1,13,-1
 256 128 l 1,14,-1
 384 128 l 1,15,-1
 384 256 l 1,16,-1
 512 256 l 1,17,-1
 512 128 l 1,18,-1
 512 0 l 1,19,-1
 512 -128 l 1,20,-1
 384 -128 l 1,21,-1
 384 0 l 1,22,-1
 256 0 l 1,23,-1
 128 0 l 1,12,-1
128 384 m 1,24,-1
 128 512 l 1,25,-1
 256 512 l 1,26,-1
 256 384 l 1,27,-1
 128 384 l 1,24,-1
128 768 m 1,28,-1
 128 896 l 1,29,-1
 256 896 l 1,30,-1
 384 896 l 1,31,-1
 384 768 l 1,32,-1
 256 768 l 1,33,-1
 128 768 l 1,28,-1
384 640 m 1,34,-1
 384 768 l 1,35,-1
 512 768 l 1,36,-1
 512 640 l 1,37,-1
 384 640 l 1,34,-1
EndSplineSet
Validated: 5
EndChar

StartChar: uni096D
Encoding: 89 2413 90
Width: 768
GlyphClass: 1
Flags: W
LayerCount: 2
Fore
SplineSet
0 256 m 1,0,-1
 0 384 l 1,1,-1
 0 512 l 1,2,-1
 0 640 l 1,3,-1
 0 768 l 1,4,-1
 128 768 l 1,5,-1
 128 640 l 1,6,-1
 128 512 l 1,7,-1
 128 384 l 1,8,-1
 128 256 l 1,9,-1
 0 256 l 1,0,-1
128 128 m 1,10,-1
 128 256 l 1,11,-1
 256 256 l 1,12,-1
 384 256 l 1,13,-1
 384 128 l 1,14,-1
 256 128 l 1,15,-1
 128 128 l 1,10,-1
128 768 m 1,16,-1
 128 896 l 1,17,-1
 256 896 l 1,18,-1
 256 768 l 1,19,-1
 128 768 l 1,16,-1
256 512 m 1,20,-1
 256 640 l 1,21,-1
 384 640 l 1,22,-1
 384 512 l 1,23,-1
 256 512 l 1,20,-1
384 256 m 1,24,-1
 384 384 l 1,25,-1
 512 384 l 1,26,-1
 512 256 l 1,27,-1
 384 256 l 1,24,-1
384 640 m 1,28,-1
 384 768 l 1,29,-1
 512 768 l 1,30,-1
 512 640 l 1,31,-1
 384 640 l 1,28,-1
512 384 m 1,32,-1
 512 512 l 1,33,-1
 512 640 l 1,34,-1
 640 640 l 1,35,-1
 640 512 l 1,36,-1
 640 384 l 1,37,-1
 512 384 l 1,32,-1
EndSplineSet
Validated: 5
EndChar

StartChar: uni096E
Encoding: 90 2414 91
Width: 640
GlyphClass: 1
Flags: W
LayerCount: 2
Fore
SplineSet
0 256 m 1,0,-1
 0 384 l 1,1,-1
 0 512 l 1,2,-1
 128 512 l 1,3,-1
 128 384 l 1,4,-1
 128 256 l 1,5,-1
 0 256 l 1,0,-1
128 128 m 1,6,-1
 128 256 l 1,7,-1
 256 256 l 1,8,-1
 384 256 l 1,9,-1
 384 128 l 1,10,-1
 256 128 l 1,11,-1
 128 128 l 1,6,-1
128 512 m 1,12,-1
 128 640 l 1,13,-1
 256 640 l 1,14,-1
 256 512 l 1,15,-1
 128 512 l 1,12,-1
256 640 m 1,16,-1
 256 768 l 1,17,-1
 384 768 l 1,18,-1
 384 640 l 1,19,-1
 256 640 l 1,16,-1
384 256 m 1,20,-1
 384 384 l 1,21,-1
 512 384 l 1,22,-1
 512 256 l 1,23,-1
 384 256 l 1,20,-1
384 768 m 1,24,-1
 384 896 l 1,25,-1
 512 896 l 1,26,-1
 512 768 l 1,27,-1
 384 768 l 1,24,-1
EndSplineSet
Validated: 5
EndChar

StartChar: uni096F
Encoding: 91 2415 92
Width: 640
GlyphClass: 1
Flags: W
LayerCount: 2
Fore
SplineSet
0 512 m 1,0,-1
 0 640 l 1,1,-1
 0 768 l 1,2,-1
 128 768 l 1,3,-1
 128 640 l 1,4,-1
 128 512 l 1,5,-1
 0 512 l 1,0,-1
128 384 m 1,6,-1
 128 512 l 1,7,-1
 256 512 l 1,8,-1
 256 384 l 1,9,-1
 128 384 l 1,6,-1
128 768 m 1,10,-1
 128 896 l 1,11,-1
 256 896 l 1,12,-1
 256 768 l 1,13,-1
 128 768 l 1,10,-1
256 0 m 1,14,-1
 256 128 l 1,15,-1
 384 128 l 1,16,-1
 384 0 l 1,17,-1
 256 0 l 1,14,-1
256 256 m 1,18,-1
 256 384 l 1,19,-1
 384 384 l 1,20,-1
 384 256 l 1,21,-1
 256 256 l 1,18,-1
256 640 m 1,22,-1
 256 768 l 1,23,-1
 384 768 l 1,24,-1
 384 640 l 1,25,-1
 256 640 l 1,22,-1
256 896 m 1,26,-1
 256 1024 l 1,27,-1
 384 1024 l 1,28,-1
 384 896 l 1,29,-1
 256 896 l 1,26,-1
384 128 m 1,30,-1
 384 256 l 1,31,-1
 512 256 l 1,32,-1
 512 128 l 1,33,-1
 384 128 l 1,30,-1
384 768 m 1,34,-1
 384 896 l 1,35,-1
 512 896 l 1,36,-1
 512 768 l 1,37,-1
 384 768 l 1,34,-1
EndSplineSet
Validated: 5
EndChar

StartChar: bar_extend_one
Encoding: 93 -1 93
Width: 128
Flags: W
LayerCount: 2
Fore
SplineSet
0 896 m 1029,0,-1
128 896 m 1025,1,-1
0 896 m 5,2,-1
 0 1024 l 5,3,-1
 128 1024 l 1,4,-1
 128 896 l 1,5,-1
 0 896 l 5,2,-1
EndSplineSet
Validated: 1
EndChar

StartChar: thra
Encoding: 94 -1 94
Width: 640
Flags: W
AnchorPoint: "mark_down" 383.76 128 basechar 0
AnchorPoint: "mark_up" 383.76 1024 basechar 0
LayerCount: 2
Fore
SplineSet
-0.240234375 256 m 1,0,-1
 -0.240234375 384 l 1,1,-1
 127.759765625 384 l 1,2,-1
 127.759765625 256 l 1,3,-1
 -0.240234375 256 l 1,0,-1
-0.240234375 640 m 1,4,-1
 -0.240234375 768 l 1,5,-1
 127.759765625 768 l 1,6,-1
 255.759765625 768 l 1,7,-1
 255.759765625 640 l 1,8,-1
 127.759765625 640 l 1,9,-1
 -0.240234375 640 l 1,4,-1
-0.240234375 896 m 1,10,-1
 -0.240234375 1024 l 1,11,-1
 127.759765625 1024 l 1,12,-1
 255.759765625 1024 l 1,13,-1
 383.759765625 1024 l 1,14,-1
 511.759765625 1024 l 1,15,-1
 511.759765625 896 l 1,16,-1
 511.759765625 768 l 1,17,-1
 511.759765625 640 l 1,18,-1
 511.759765625 512 l 1,19,-1
 511.759765625 384 l 1,20,-1
 511.759765625 256 l 1,21,-1
 511.759765625 128 l 1,22,-1
 383.759765625 128 l 1,23,-1
 383.759765625 256 l 1,24,-1
 383.759765625 384 l 1,25,-1
 383.759765625 512 l 1,26,-1
 255.759765625 512 l 1,27,-1
 255.759765625 640 l 1,28,-1
 383.759765625 640 l 1,29,-1
 383.759765625 768 l 1,30,-1
 383.759765625 896 l 1,31,-1
 255.759765625 896 l 1,32,-1
 127.759765625 896 l 1,33,-1
 -0.240234375 896 l 1,10,-1
127.759765625 384 m 1,34,-1
 127.759765625 512 l 1,35,-1
 255.759765625 512 l 1,36,-1
 255.759765625 384 l 1,37,-1
 127.759765625 384 l 1,34,-1
EndSplineSet
Validated: 5
Ligature2: "Irregular subtable" tha halant ra
LCarets2: 2 0 0
EndChar

StartChar: bar_fill_gap
Encoding: 95 -1 95
Width: 0
Flags: W
LayerCount: 2
Fore
SplineSet
-128 896 m 1029,0,-1
0 896 m 1029,1,-1
-128 896 m 5,2,-1
 -128 1024 l 5,3,-1
 0 1024 l 5,4,-1
 0 896 l 5,5,-1
 -128 896 l 5,2,-1
EndSplineSet
Validated: 1
EndChar

StartChar: la_variant
Encoding: 96 -1 96
Width: 1024
Flags: W
LayerCount: 2
Fore
SplineSet
0 384 m 1,0,-1
 0 512 l 1,1,-1
 0 640 l 1,2,-1
 128 640 l 1,3,-1
 128 512 l 1,4,-1
 128 384 l 1,5,-1
 0 384 l 1,0,-1
0 896 m 1,6,-1
 0 1024 l 1,7,-1
 128 1024 l 1,8,-1
 256 1024 l 1,9,-1
 384 1024 l 1,10,-1
 512 1024 l 1,11,-1
 640 1024 l 1,12,-1
 768 1024 l 1,13,-1
 896 1024 l 1,14,-1
 896 896 l 1,15,-1
 768 896 l 1,16,-1
 768 768 l 1,17,-1
 768 640 l 1,18,-1
 640 640 l 1,19,-1
 512 640 l 1,20,-1
 512 768 l 1,21,-1
 640 768 l 1,22,-1
 640 896 l 1,23,-1
 512 896 l 1,24,-1
 384 896 l 1,25,-1
 256 896 l 1,26,-1
 128 896 l 1,27,-1
 0 896 l 1,6,-1
128 256 m 1,28,-1
 128 384 l 1,29,-1
 256 384 l 1,30,-1
 256 256 l 1,31,-1
 128 256 l 1,28,-1
128 640 m 1,32,-1
 128 768 l 1,33,-1
 256 768 l 1,34,-1
 384 768 l 1,35,-1
 384 640 l 1,36,-1
 256 640 l 1,37,-1
 128 640 l 1,32,-1
384 512 m 1,38,-1
 384 640 l 1,39,-1
 512 640 l 1,40,-1
 512 512 l 1,41,-1
 384 512 l 1,38,-1
640 256 m 1,42,-1
 640 384 l 1,43,-1
 768 384 l 1,44,-1
 768 256 l 1,45,-1
 640 256 l 1,42,-1
768 384 m 1,46,-1
 768 512 l 1,47,-1
 768 640 l 1,48,-1
 896 640 l 1,49,-1
 896 512 l 1,50,-1
 896 384 l 1,51,-1
 768 384 l 1,46,-1
EndSplineSet
Validated: 5
EndChar

StartChar: ka_half
Encoding: 97 -1 97
Width: 768
Flags: W
LayerCount: 2
Fore
SplineSet
0 384 m 1,0,-1
 0 512 l 1,1,-1
 0 640 l 1,2,-1
 128 640 l 1,3,-1
 128 512 l 1,4,-1
 128 384 l 1,5,-1
 0 384 l 1,0,-1
0 896 m 1,6,-1
 0 1024 l 1,7,-1
 128 1024 l 1,8,-1
 256 1024 l 1,9,-1
 384 1024 l 1,10,-1
 512 1024 l 1,11,-1
 640 1024 l 1,12,-1
 768 1024 l 1,13,-1
 768 896 l 1,14,-1
 640 896 l 1,15,-1
 512 896 l 1,16,-1
 512 768 l 1,17,-1
 640 768 l 1,18,-1
 768 768 l 1,19,-1
 768 640 l 1,20,-1
 640 640 l 1,21,-1
 512 640 l 1,22,-1
 512 512 l 1,23,-1
 512 384 l 1,24,-1
 512 256 l 1,25,-1
 512 128 l 1,26,-1
 384 128 l 1,27,-1
 384 256 l 1,28,-1
 256 256 l 1,29,-1
 128 256 l 1,30,-1
 128 384 l 1,31,-1
 256 384 l 1,32,-1
 384 384 l 1,33,-1
 384 512 l 1,34,-1
 384 640 l 1,35,-1
 256 640 l 1,36,-1
 128 640 l 1,37,-1
 128 768 l 1,38,-1
 256 768 l 1,39,-1
 384 768 l 1,40,-1
 384 896 l 1,41,-1
 256 896 l 1,42,-1
 128 896 l 1,43,-1
 0 896 l 1,6,-1
EndSplineSet
Validated: 5
Ligature2: "Halved subtable" ka halant
EndChar

StartChar: Ka_half
Encoding: 98 -1 98
Width: 896
Flags: W
LayerCount: 2
Fore
SplineSet
0 384 m 1,0,-1
 0 512 l 1,1,-1
 128 512 l 1,2,-1
 128 384 l 1,3,-1
 0 384 l 1,0,-1
0 896 m 1,4,-1
 0 1024 l 1,5,-1
 128 1024 l 1,6,-1
 256 1024 l 1,7,-1
 384 1024 l 1,8,-1
 512 1024 l 1,9,-1
 640 1024 l 1,10,-1
 768 1024 l 1,11,-1
 896 1024 l 1,12,-1
 896 128 l 1,13,-1
 896 256 l 1,14,-1
 768 256 l 1,15,-1
 768 128 l 1,16,-1
 640 128 l 1,17,-1
 640 256 l 1,18,-1
 640 384 l 1,19,-1
 768 384 l 1,20,-1
 896 384 l 1,21,-1
 896 512 l 1,22,-1
 896 640 l 1,23,-1
 768 640 l 1,24,-1
 640 640 l 1,25,-1
 640 768 l 1,26,-1
 768 768 l 1,27,-1
 896 768 l 1,28,-1
 896 896 l 1,29,-1
 768 896 l 1,30,-1
 640 896 l 1,31,-1
 512 896 l 1,32,-1
 384 896 l 1,33,-1
 384 768 l 1,34,-1
 384 640 l 1,35,-1
 384 512 l 1,36,-1
 256 512 l 1,37,-1
 128 512 l 1,38,-1
 128 640 l 1,39,-1
 256 640 l 1,40,-1
 256 768 l 1,41,-1
 256 896 l 1,42,-1
 128 896 l 1,43,-1
 0 896 l 1,4,-1
128 256 m 1,44,-1
 128 384 l 1,45,-1
 256 384 l 1,46,-1
 256 256 l 1,47,-1
 128 256 l 1,44,-1
256 128 m 1,48,-1
 256 256 l 1,49,-1
 384 256 l 1,50,-1
 384 128 l 1,51,-1
 256 128 l 1,48,-1
384 0 m 1,52,-1
 384 128 l 1,53,-1
 512 128 l 1,54,-1
 640 128 l 1,55,-1
 640 0 l 1,56,-1
 512 0 l 1,57,-1
 384 0 l 1,52,-1
512 384 m 1,58,-1
 512 512 l 1,59,-1
 512 640 l 1,60,-1
 640 640 l 1,61,-1
 640 512 l 1,62,-1
 640 384 l 1,63,-1
 512 384 l 1,58,-1
EndSplineSet
Validated: 5
Ligature2: "Halved subtable" Ka halant
EndChar

StartChar: ga_half
Encoding: 99 -1 99
Width: 512
Flags: W
LayerCount: 2
Fore
SplineSet
0 512 m 1,0,-1
 0 640 l 1,1,-1
 128 640 l 1,2,-1
 128 512 l 1,3,-1
 0 512 l 1,0,-1
0 896 m 1,4,-1
 0 1024 l 1,5,-1
 128 1024 l 1,6,-1
 256 1024 l 1,7,-1
 384 1024 l 1,8,-1
 512 1024 l 1,9,-1
 512 896 l 1,10,-1
 384 896 l 1,11,-1
 384 768 l 1,12,-1
 384 640 l 1,13,-1
 384 512 l 1,14,-1
 256 512 l 1,15,-1
 256 640 l 1,16,-1
 256 768 l 1,17,-1
 256 896 l 1,18,-1
 128 896 l 1,19,-1
 0 896 l 1,4,-1
128 384 m 1,20,-1
 128 512 l 1,21,-1
 256 512 l 1,22,-1
 256 384 l 1,23,-1
 128 384 l 1,20,-1
EndSplineSet
Validated: 5
Ligature2: "Halved subtable" ga halant
EndChar

StartChar: Ga_half
Encoding: 100 -1 100
Width: 640
Flags: W
LayerCount: 2
Fore
SplineSet
0 512 m 1,0,-1
 0 640 l 1,1,-1
 0 768 l 1,2,-1
 128 768 l 1,3,-1
 128 640 l 1,4,-1
 128 512 l 1,5,-1
 0 512 l 1,0,-1
0 896 m 1,6,-1
 0 1024 l 1,7,-1
 128 1024 l 1,8,-1
 256 1024 l 1,9,-1
 384 1024 l 1,10,-1
 512 1024 l 1,11,-1
 640 1024 l 1,12,-1
 640 384 l 1,13,-1
 512 384 l 1,14,-1
 512 512 l 1,15,-1
 640 512 l 1,16,-1
 640 640 l 1,17,-1
 640 768 l 1,18,-1
 640 896 l 1,19,-1
 512 896 l 1,20,-1
 384 896 l 1,21,-1
 256 896 l 1,22,-1
 256 768 l 1,23,-1
 128 768 l 1,24,-1
 128 896 l 1,25,-1
 0 896 l 1,6,-1
128 384 m 1,26,-1
 128 512 l 1,27,-1
 256 512 l 1,28,-1
 256 384 l 1,29,-1
 128 384 l 1,26,-1
256 256 m 1,30,-1
 256 384 l 1,31,-1
 384 384 l 1,32,-1
 512 384 l 1,33,-1
 512 256 l 1,34,-1
 384 256 l 1,35,-1
 256 256 l 1,30,-1
256 512 m 1,36,-1
 256 640 l 1,37,-1
 384 640 l 1,38,-1
 384 512 l 1,39,-1
 256 512 l 1,36,-1
EndSplineSet
Validated: 5
Ligature2: "Halved subtable" Ga halant
EndChar

StartChar: xa_half
Encoding: 101 -1 101
Width: 640
Flags: W
LayerCount: 2
Fore
SplineSet
0 512 m 1,0,-1
 0 640 l 1,1,-1
 128 640 l 1,2,-1
 256 640 l 1,3,-1
 384 640 l 1,4,-1
 384 512 l 1,5,-1
 384 384 l 1,6,-1
 256 384 l 1,7,-1
 256 512 l 1,8,-1
 128 512 l 1,9,-1
 0 512 l 1,0,-1
0 896 m 1,10,-1
 0 1024 l 1,11,-1
 128 1024 l 1,12,-1
 256 1024 l 1,13,-1
 384 1024 l 1,14,-1
 512 1024 l 1,15,-1
 640 1024 l 1,16,-1
 640 256 l 1,17,-1
 512 256 l 1,18,-1
 384 256 l 1,19,-1
 384 384 l 1,20,-1
 512 384 l 1,21,-1
 640 384 l 1,22,-1
 640 512 l 1,23,-1
 640 640 l 1,24,-1
 640 768 l 1,25,-1
 640 896 l 1,26,-1
 512 896 l 1,27,-1
 384 896 l 1,28,-1
 256 896 l 1,29,-1
 128 896 l 1,30,-1
 0 896 l 1,10,-1
EndSplineSet
Validated: 5
Ligature2: "Halved subtable" xa halant
EndChar

StartChar: ja_half
Encoding: 102 -1 102
Width: 640
Flags: W
LayerCount: 2
Fore
SplineSet
0 384 m 1,0,-1
 0 512 l 1,1,-1
 0 640 l 1,2,-1
 128 640 l 1,3,-1
 128 512 l 1,4,-1
 128 384 l 1,5,-1
 0 384 l 1,0,-1
0 896 m 1,6,-1
 0 1024 l 1,7,-1
 128 1024 l 1,8,-1
 256 1024 l 1,9,-1
 384 1024 l 1,10,-1
 512 1024 l 1,11,-1
 640 1024 l 1,12,-1
 640 512 l 1,13,-1
 512 512 l 1,14,-1
 512 384 l 1,15,-1
 384 384 l 1,16,-1
 384 512 l 1,17,-1
 384 640 l 1,18,-1
 512 640 l 1,19,-1
 640 640 l 1,20,-1
 640 768 l 1,21,-1
 640 896 l 1,22,-1
 512 896 l 1,23,-1
 384 896 l 1,24,-1
 256 896 l 1,25,-1
 128 896 l 1,26,-1
 0 896 l 1,6,-1
128 256 m 1,27,-1
 128 384 l 1,28,-1
 256 384 l 1,29,-1
 384 384 l 1,30,-1
 384 256 l 1,31,-1
 256 256 l 1,32,-1
 128 256 l 1,27,-1
EndSplineSet
Validated: 5
Ligature2: "Halved subtable" ja halant
EndChar

StartChar: nya_half
Encoding: 103 -1 103
Width: 640
Flags: W
LayerCount: 2
Fore
SplineSet
0 384 m 1,0,-1
 0 512 l 1,1,-1
 128 512 l 1,2,-1
 128 384 l 1,3,-1
 0 384 l 1,0,-1
0 896 m 1,4,-1
 0 1024 l 1,5,-1
 128 1024 l 1,6,-1
 256 1024 l 1,7,-1
 384 1024 l 1,8,-1
 512 1024 l 1,9,-1
 640 1024 l 1,10,-1
 640 512 l 1,11,-1
 512 512 l 1,12,-1
 512 384 l 1,13,-1
 384 384 l 1,14,-1
 384 512 l 1,15,-1
 384 640 l 1,16,-1
 512 640 l 1,17,-1
 640 640 l 1,18,-1
 640 768 l 1,19,-1
 640 896 l 1,20,-1
 512 896 l 1,21,-1
 384 896 l 1,22,-1
 256 896 l 1,23,-1
 128 896 l 1,24,-1
 0 896 l 1,4,-1
128 256 m 1,25,-1
 128 384 l 1,26,-1
 256 384 l 1,27,-1
 384 384 l 1,28,-1
 384 256 l 1,29,-1
 256 256 l 1,30,-1
 128 256 l 1,25,-1
128 640 m 1,31,-1
 128 768 l 1,32,-1
 256 768 l 1,33,-1
 384 768 l 1,34,-1
 384 640 l 1,35,-1
 256 640 l 1,36,-1
 128 640 l 1,31,-1
EndSplineSet
Validated: 5
Ligature2: "Halved subtable" nya halant
EndChar

StartChar: Ja_half
Encoding: 104 -1 104
Width: 640
Flags: W
LayerCount: 2
Fore
SplineSet
0 128 m 1,0,-1
 0 256 l 1,1,-1
 128 256 l 1,2,-1
 256 256 l 1,3,-1
 384 256 l 1,4,-1
 384 128 l 1,5,-1
 256 128 l 1,6,-1
 256 0 l 1,7,-1
 128 0 l 1,8,-1
 128 128 l 1,9,-1
 0 128 l 1,0,-1
0 512 m 1,10,-1
 0 640 l 1,11,-1
 128 640 l 1,12,-1
 128 512 l 1,13,-1
 0 512 l 1,10,-1
0 896 m 1,14,-1
 0 1024 l 1,15,-1
 128 1024 l 1,16,-1
 256 1024 l 1,17,-1
 384 1024 l 1,18,-1
 512 1024 l 1,19,-1
 640 1024 l 1,20,-1
 640 256 l 1,21,-1
 512 256 l 1,22,-1
 384 256 l 1,23,-1
 384 384 l 1,24,-1
 512 384 l 1,25,-1
 640 384 l 1,26,-1
 640 512 l 1,27,-1
 640 640 l 1,28,-1
 640 768 l 1,29,-1
 640 896 l 1,30,-1
 512 896 l 1,31,-1
 384 896 l 1,32,-1
 384 768 l 1,33,-1
 384 640 l 1,34,-1
 256 640 l 1,35,-1
 128 640 l 1,36,-1
 128 768 l 1,37,-1
 256 768 l 1,38,-1
 256 896 l 1,39,-1
 128 896 l 1,40,-1
 0 896 l 1,14,-1
128 384 m 1,41,-1
 128 512 l 1,42,-1
 256 512 l 1,43,-1
 384 512 l 1,44,-1
 384 384 l 1,45,-1
 256 384 l 1,46,-1
 128 384 l 1,41,-1
EndSplineSet
Validated: 5
Ligature2: "Halved subtable" Ja halant
EndChar

StartChar: Na_half
Encoding: 105 -1 105
Width: 640
Flags: W
LayerCount: 2
Fore
SplineSet
0 512 m 1,0,-1
 0 640 l 1,1,-1
 0 768 l 1,2,-1
 0 896 l 1,3,-1
 0 1024 l 1,4,-1
 128 1024 l 1,5,-1
 256 1024 l 1,6,-1
 384 1024 l 1,7,-1
 512 1024 l 1,8,-1
 640 1024 l 1,9,-1
 640 896 l 1,10,-1
 512 896 l 1,11,-1
 512 768 l 1,12,-1
 512 640 l 1,13,-1
 512 512 l 1,14,-1
 384 512 l 1,15,-1
 384 640 l 1,16,-1
 384 768 l 1,17,-1
 384 896 l 1,18,-1
 256 896 l 1,19,-1
 128 896 l 1,20,-1
 128 768 l 1,21,-1
 128 640 l 1,22,-1
 128 512 l 1,23,-1
 0 512 l 1,0,-1
128 384 m 1,24,-1
 128 512 l 1,25,-1
 256 512 l 1,26,-1
 384 512 l 1,27,-1
 384 384 l 1,28,-1
 256 384 l 1,29,-1
 128 384 l 1,24,-1
EndSplineSet
Validated: 5
Ligature2: "Halved subtable" Na halant
EndChar

StartChar: tha_half
Encoding: 106 -1 106
Width: 512
Flags: W
LayerCount: 2
Fore
SplineSet
0 256 m 1,0,-1
 0 384 l 1,1,-1
 0 512 l 1,2,-1
 128 512 l 1,3,-1
 128 384 l 1,4,-1
 128 256 l 1,5,-1
 0 256 l 1,0,-1
0 896 m 1,6,-1
 0 1024 l 1,7,-1
 128 1024 l 1,8,-1
 256 1024 l 1,9,-1
 384 1024 l 1,10,-1
 512 1024 l 1,11,-1
 512 512 l 1,12,-1
 384 512 l 1,13,-1
 256 512 l 1,14,-1
 128 512 l 1,15,-1
 128 640 l 1,16,-1
 256 640 l 1,17,-1
 384 640 l 1,18,-1
 512 640 l 1,19,-1
 512 768 l 1,20,-1
 512 896 l 1,21,-1
 384 896 l 1,22,-1
 256 896 l 1,23,-1
 128 896 l 1,24,-1
 0 896 l 1,6,-1
128 128 m 1,25,-1
 128 256 l 1,26,-1
 256 256 l 1,27,-1
 256 128 l 1,28,-1
 128 128 l 1,25,-1
EndSplineSet
Validated: 5
Ligature2: "Halved subtable" tha halant
EndChar

StartChar: Tha_half
Encoding: 107 -1 107
Width: 512
Flags: W
LayerCount: 2
Fore
SplineSet
0 512 m 1,0,-1
 0 640 l 1,1,-1
 128 640 l 1,2,-1
 128 512 l 1,3,-1
 0 512 l 1,0,-1
0 896 m 1,4,-1
 0 1024 l 1,5,-1
 128 1024 l 1,6,-1
 128 896 l 1,7,-1
 0 896 l 1,4,-1
128 384 m 1,8,-1
 128 512 l 1,9,-1
 256 512 l 1,10,-1
 384 512 l 1,11,-1
 384 384 l 1,12,-1
 256 384 l 1,13,-1
 128 384 l 1,8,-1
128 640 m 1,14,-1
 128 768 l 1,15,-1
 256 768 l 1,16,-1
 256 640 l 1,17,-1
 128 640 l 1,14,-1
128 1024 m 1,18,-1
 128 1152 l 1,19,-1
 256 1152 l 1,20,-1
 256 1024 l 1,21,-1
 128 1024 l 1,18,-1
256 768 m 1,22,-1
 256 896 l 1,23,-1
 256 1024 l 1,24,-1
 384 1024 l 1,25,-1
 384 896 l 1,26,-1
 384 768 l 1,27,-1
 256 768 l 1,22,-1
384 512 m 1,28,-1
 384 640 l 1,29,-1
 512 640 l 1,30,-1
 512 512 l 1,31,-1
 384 512 l 1,28,-1
EndSplineSet
Validated: 5
Ligature2: "Halved subtable" Tha halant
EndChar

StartChar: Dha_half
Encoding: 108 -1 108
Width: 640
Flags: W
LayerCount: 2
Fore
SplineSet
0 512 m 1,0,-1
 0 640 l 1,1,-1
 0 768 l 1,2,-1
 128 768 l 1,3,-1
 128 640 l 1,4,-1
 128 512 l 1,5,-1
 0 512 l 1,0,-1
0 896 m 1,6,-1
 0 1024 l 1,7,-1
 128 1024 l 1,8,-1
 256 1024 l 1,9,-1
 256 896 l 1,10,-1
 256 768 l 1,11,-1
 128 768 l 1,12,-1
 128 896 l 1,13,-1
 0 896 l 1,6,-1
128 384 m 1,14,-1
 128 512 l 1,15,-1
 256 512 l 1,16,-1
 256 384 l 1,17,-1
 128 384 l 1,14,-1
256 256 m 1,18,-1
 256 384 l 1,19,-1
 384 384 l 1,20,-1
 512 384 l 1,21,-1
 512 256 l 1,22,-1
 384 256 l 1,23,-1
 256 256 l 1,18,-1
256 512 m 1,24,-1
 256 640 l 1,25,-1
 384 640 l 1,26,-1
 384 512 l 1,27,-1
 256 512 l 1,24,-1
512 896 m 1,28,-1
 512 1024 l 1,29,-1
 640 1024 l 1,30,-1
 640 384 l 1,31,-1
 512 384 l 1,32,-1
 512 512 l 1,33,-1
 640 512 l 1,34,-1
 640 640 l 1,35,-1
 640 768 l 1,36,-1
 640 896 l 1,37,-1
 512 896 l 1,28,-1
EndSplineSet
Validated: 5
Ligature2: "Halved subtable" Dha halant
EndChar

StartChar: na_half
Encoding: 109 -1 109
Width: 384
Flags: W
LayerCount: 2
Fore
SplineSet
0 384 m 1,0,-1
 0 512 l 1,1,-1
 0 640 l 1,2,-1
 128 640 l 1,3,-1
 256 640 l 1,4,-1
 384 640 l 1,5,-1
 384 768 l 1,6,-1
 384 896 l 1,7,-1
 256 896 l 1,8,-1
 128 896 l 1,9,-1
 0 896 l 1,10,-1
 0 1024 l 1,11,-1
 128 1024 l 1,12,-1
 256 1024 l 1,13,-1
 384 1024 l 1,14,-1
 384 512 l 1,15,-1
 256 512 l 1,16,-1
 128 512 l 1,17,-1
 128 384 l 1,18,-1
 0 384 l 1,0,-1
EndSplineSet
Validated: 5
Ligature2: "Halved subtable" na halant
EndChar

StartChar: pa_half
Encoding: 110 -1 110
Width: 384
Flags: W
LayerCount: 2
Fore
SplineSet
0 640 m 1,0,-1
 0 768 l 1,1,-1
 0 896 l 1,2,-1
 0 1024 l 1,3,-1
 128 1024 l 1,4,-1
 256 1024 l 1,5,-1
 384 1024 l 1,6,-1
 384 512 l 1,7,-1
 256 512 l 1,8,-1
 128 512 l 1,9,-1
 128 640 l 1,10,-1
 256 640 l 1,11,-1
 384 640 l 1,12,-1
 384 768 l 1,13,-1
 384 896 l 1,14,-1
 256 896 l 1,15,-1
 128 896 l 1,16,-1
 128 768 l 1,17,-1
 128 640 l 1,18,-1
 0 640 l 1,0,-1
EndSplineSet
Validated: 5
Ligature2: "Halved subtable" pa halant
EndChar

StartChar: ba_half
Encoding: 111 -1 111
Width: 512
Flags: W
LayerCount: 2
Fore
SplineSet
0 384 m 1,0,-1
 0 512 l 1,1,-1
 0 640 l 1,2,-1
 128 640 l 1,3,-1
 128 512 l 1,4,-1
 128 384 l 1,5,-1
 0 384 l 1,0,-1
0 896 m 1,6,-1
 0 1024 l 1,7,-1
 128 1024 l 1,8,-1
 256 1024 l 1,9,-1
 384 1024 l 1,10,-1
 512 1024 l 1,11,-1
 512 896 l 1,12,-1
 384 896 l 1,13,-1
 256 896 l 1,14,-1
 128 896 l 1,15,-1
 0 896 l 1,6,-1
128 256 m 1,16,-1
 128 384 l 1,17,-1
 256 384 l 1,18,-1
 384 384 l 1,19,-1
 384 256 l 1,20,-1
 256 256 l 1,21,-1
 128 256 l 1,16,-1
128 640 m 1,22,-1
 128 768 l 1,23,-1
 256 768 l 1,24,-1
 384 768 l 1,25,-1
 512 768 l 1,26,-1
 512 640 l 1,27,-1
 384 640 l 1,28,-1
 384 512 l 1,29,-1
 256 512 l 1,30,-1
 256 640 l 1,31,-1
 128 640 l 1,22,-1
384 384 m 1,32,-1
 384 512 l 1,33,-1
 512 512 l 1,34,-1
 512 384 l 1,35,-1
 384 384 l 1,32,-1
EndSplineSet
LCarets2: 1 0
Ligature2: "Halved subtable" ba halant
EndChar

StartChar: Ba_half
Encoding: 112 -1 112
Width: 640
Flags: W
LayerCount: 2
Fore
SplineSet
0 896 m 1,0,-1
 0 1024 l 1,1,-1
 128 1024 l 1,2,-1
 128 896 l 1,3,-1
 0 896 l 1,0,-1
128 512 m 1,4,-1
 128 640 l 1,5,-1
 256 640 l 1,6,-1
 256 512 l 1,7,-1
 128 512 l 1,4,-1
128 1024 m 1,8,-1
 128 1152 l 1,9,-1
 256 1152 l 1,10,-1
 256 1024 l 1,11,-1
 128 1024 l 1,8,-1
256 384 m 1,12,-1
 256 512 l 1,13,-1
 384 512 l 1,14,-1
 384 384 l 1,15,-1
 256 384 l 1,12,-1
256 640 m 1,16,-1
 256 768 l 1,17,-1
 256 896 l 1,18,-1
 256 1024 l 1,19,-1
 384 1024 l 1,20,-1
 384 896 l 1,21,-1
 384 768 l 1,22,-1
 384 640 l 1,23,-1
 256 640 l 1,16,-1
384 512 m 1,24,-1
 384 640 l 1,25,-1
 512 640 l 1,26,-1
 640 640 l 1,27,-1
 640 768 l 1,28,-1
 640 896 l 1,29,-1
 512 896 l 1,30,-1
 512 1024 l 1,31,-1
 640 1024 l 1,32,-1
 640 512 l 1,33,-1
 512 512 l 1,34,-1
 384 512 l 1,24,-1
EndSplineSet
Validated: 5
Ligature2: "Halved subtable" Ba halant
EndChar

StartChar: ma_half
Encoding: 113 -1 113
Width: 512
Flags: W
LayerCount: 2
Fore
SplineSet
0 512 m 1,0,-1
 0 640 l 1,1,-1
 128 640 l 1,2,-1
 128 512 l 1,3,-1
 0 512 l 1,0,-1
0 896 m 1,4,-1
 0 1024 l 1,5,-1
 128 1024 l 1,6,-1
 256 1024 l 1,7,-1
 384 1024 l 1,8,-1
 512 1024 l 1,9,-1
 512 512 l 1,10,-1
 384 512 l 1,11,-1
 256 512 l 1,12,-1
 256 640 l 1,13,-1
 384 640 l 1,14,-1
 512 640 l 1,15,-1
 512 768 l 1,16,-1
 512 896 l 1,17,-1
 384 896 l 1,18,-1
 256 896 l 1,19,-1
 256 768 l 1,20,-1
 256 640 l 1,21,-1
 128 640 l 1,22,-1
 128 768 l 1,23,-1
 128 896 l 1,24,-1
 0 896 l 1,4,-1
128 384 m 1,25,-1
 128 512 l 1,26,-1
 256 512 l 1,27,-1
 256 384 l 1,28,-1
 128 384 l 1,25,-1
EndSplineSet
Validated: 5
Ligature2: "Halved subtable" ma halant
EndChar

StartChar: ya_half
Encoding: 114 -1 114
Width: 512
Flags: W
LayerCount: 2
Fore
SplineSet
0 512 m 1,0,-1
 0 640 l 1,1,-1
 128 640 l 1,2,-1
 128 512 l 1,3,-1
 0 512 l 1,0,-1
0 896 m 1,4,-1
 0 1024 l 1,5,-1
 128 1024 l 1,6,-1
 256 1024 l 1,7,-1
 384 1024 l 1,8,-1
 512 1024 l 1,9,-1
 512 512 l 1,10,-1
 384 512 l 1,11,-1
 384 640 l 1,12,-1
 512 640 l 1,13,-1
 512 768 l 1,14,-1
 512 896 l 1,15,-1
 384 896 l 1,16,-1
 384 768 l 1,17,-1
 256 768 l 1,18,-1
 256 896 l 1,19,-1
 128 896 l 1,20,-1
 0 896 l 1,4,-1
128 384 m 1,21,-1
 128 512 l 1,22,-1
 256 512 l 1,23,-1
 384 512 l 1,24,-1
 384 384 l 1,25,-1
 256 384 l 1,26,-1
 128 384 l 1,21,-1
128 640 m 1,27,-1
 128 768 l 1,28,-1
 256 768 l 1,29,-1
 256 640 l 1,30,-1
 128 640 l 1,27,-1
EndSplineSet
Validated: 5
Ligature2: "Halved subtable" ya halant
EndChar

StartChar: la_half
Encoding: 115 -1 115
Width: 768
Flags: W
LayerCount: 2
Fore
SplineSet
0 256 m 1,0,-1
 0 384 l 1,1,-1
 0 512 l 1,2,-1
 128 512 l 1,3,-1
 128 384 l 1,4,-1
 128 256 l 1,5,-1
 0 256 l 1,0,-1
0 896 m 1,6,-1
 0 1024 l 1,7,-1
 128 1024 l 1,8,-1
 256 1024 l 1,9,-1
 384 1024 l 1,10,-1
 512 1024 l 1,11,-1
 768 1024 l 1,12,-1
 768 512 l 1,13,-1
 512 512 l 1,14,-1
 512 640 l 1,15,-1
 768 640 l 1,16,-1
 768 896 l 1,17,-1
 512 896 l 1,18,-1
 384 896 l 1,19,-1
 256 896 l 1,20,-1
 128 896 l 1,21,-1
 0 896 l 1,6,-1
128 128 m 1,22,-1
 128 256 l 1,23,-1
 256 256 l 1,24,-1
 256 128 l 1,25,-1
 128 128 l 1,22,-1
128 512 m 1,26,-1
 128 640 l 1,27,-1
 256 640 l 1,28,-1
 384 640 l 1,29,-1
 384 512 l 1,30,-1
 256 512 l 1,31,-1
 128 512 l 1,26,-1
384 384 m 1,32,-1
 384 512 l 1,33,-1
 512 512 l 1,34,-1
 512 384 l 1,35,-1
 384 384 l 1,32,-1
EndSplineSet
Validated: 5
Ligature2: "Halved subtable" la halant
EndChar

StartChar: wa_half
Encoding: 116 -1 116
Width: 384
Flags: W
LayerCount: 2
Fore
SplineSet
0 384 m 1,0,-1
 0 512 l 1,1,-1
 0 640 l 1,2,-1
 128 640 l 1,3,-1
 128 512 l 1,4,-1
 128 384 l 1,5,-1
 0 384 l 1,0,-1
0 896 m 1,6,-1
 0 1024 l 1,7,-1
 128 1024 l 1,8,-1
 256 1024 l 1,9,-1
 384 1024 l 1,10,-1
 384 256 l 1,11,-1
 256 256 l 1,12,-1
 128 256 l 1,13,-1
 128 384 l 1,14,-1
 256 384 l 1,15,-1
 384 384 l 1,16,-1
 384 512 l 1,17,-1
 384 640 l 1,18,-1
 256 640 l 1,19,-1
 128 640 l 1,20,-1
 128 768 l 1,21,-1
 256 768 l 1,22,-1
 384 768 l 1,23,-1
 384 896 l 1,24,-1
 256 896 l 1,25,-1
 128 896 l 1,26,-1
 0 896 l 1,6,-1
EndSplineSet
Validated: 5
Ligature2: "Halved subtable" wa halant
EndChar

StartChar: Sa_half
Encoding: 117 -1 117
Width: 640
Flags: W
LayerCount: 2
Fore
SplineSet
0 896 m 1,0,-1
 0 1024 l 1,1,-1
 128 1024 l 1,2,-1
 128 896 l 1,3,-1
 0 896 l 1,0,-1
128 384 m 1,4,-1
 128 512 l 1,5,-1
 256 512 l 1,6,-1
 256 384 l 1,7,-1
 128 384 l 1,4,-1
128 768 m 1,8,-1
 128 896 l 1,9,-1
 256 896 l 1,10,-1
 256 768 l 1,11,-1
 128 768 l 1,8,-1
128 1024 m 1,12,-1
 128 1152 l 1,13,-1
 256 1152 l 1,14,-1
 256 1024 l 1,15,-1
 128 1024 l 1,12,-1
256 256 m 1,16,-1
 256 384 l 1,17,-1
 384 384 l 1,18,-1
 384 256 l 1,19,-1
 256 256 l 1,16,-1
256 512 m 1,20,-1
 256 640 l 1,21,-1
 384 640 l 1,22,-1
 384 512 l 1,23,-1
 256 512 l 1,20,-1
256 896 m 1,24,-1
 256 1024 l 1,25,-1
 384 1024 l 1,26,-1
 384 896 l 1,27,-1
 256 896 l 1,24,-1
384 128 m 1,28,-1
 384 256 l 1,29,-1
 512 256 l 1,30,-1
 512 128 l 1,31,-1
 384 128 l 1,28,-1
384 640 m 1,32,-1
 384 768 l 1,33,-1
 384 896 l 1,34,-1
 512 896 l 1,35,-1
 512 768 l 1,36,-1
 512 640 l 1,37,-1
 384 640 l 1,32,-1
512 896 m 1,38,-1
 512 1024 l 1,39,-1
 640 1024 l 1,40,-1
 640 896 l 1,41,-1
 512 896 l 1,38,-1
EndSplineSet
Validated: 5
Ligature2: "Halved subtable" Sa halant
EndChar

StartChar: za_half
Encoding: 118 -1 118
Width: 512
Flags: W
LayerCount: 2
Fore
SplineSet
0 640 m 1,0,-1
 0 768 l 1,1,-1
 0 896 l 1,2,-1
 0 1024 l 1,3,-1
 127 1024 l 1,4,-1
 256 1024 l 1,5,-1
 384 1024 l 1,6,-1
 512 1024 l 1,7,-1
 512 896 l 1,8,-1
 384 896 l 1,9,-1
 384 768 l 1,10,-1
 256 768 l 1,11,-1
 256 896 l 1,12,-1
 127 896 l 1,13,-1
 127 768 l 1,14,-1
 127 640 l 1,15,-1
 0 640 l 1,0,-1
127 512 m 1,16,-1
 127 640 l 1,17,-1
 256 640 l 1,18,-1
 384 640 l 1,19,-1
 384 512 l 1,20,-1
 256 512 l 1,21,-1
 127 512 l 1,16,-1
384 640 m 1,22,-1
 384 768 l 1,23,-1
 512 768 l 1,24,-1
 512 640 l 1,25,-1
 384 640 l 1,22,-1
EndSplineSet
LCarets2: 1 0
Ligature2: "Halved subtable" za halant
EndChar

StartChar: sa_half
Encoding: 119 -1 119
Width: 640
Flags: W
LayerCount: 2
Fore
SplineSet
0 384 m 1,0,-1
 0 512 l 1,1,-1
 128 512 l 1,2,-1
 128 384 l 1,3,-1
 0 384 l 1,0,-1
0 896 m 1,4,-1
 0 1024 l 1,5,-1
 128 1024 l 1,6,-1
 256 1024 l 1,7,-1
 384 1024 l 1,8,-1
 512 1024 l 1,9,-1
 640 1024 l 1,10,-1
 640 384 l 1,11,-1
 512 384 l 1,12,-1
 384 384 l 1,13,-1
 384 512 l 1,14,-1
 512 512 l 1,15,-1
 640 512 l 1,16,-1
 640 896 l 1,17,-1
 512 896 l 1,18,-1
 384 896 l 1,19,-1
 384 768 l 1,20,-1
 384 640 l 1,21,-1
 384 512 l 1,22,-1
 256 512 l 1,23,-1
 128 512 l 1,24,-1
 128 640 l 1,25,-1
 256 640 l 1,26,-1
 256 768 l 1,27,-1
 256 896 l 1,28,-1
 128 896 l 1,29,-1
 0 896 l 1,4,-1
128 256 m 1,30,-1
 128 384 l 1,31,-1
 256 384 l 1,32,-1
 256 256 l 1,33,-1
 128 256 l 1,30,-1
256 128 m 1,34,-1
 256 256 l 1,35,-1
 384 256 l 1,36,-1
 384 128 l 1,37,-1
 256 128 l 1,34,-1
EndSplineSet
Validated: 5
Ligature2: "Halved subtable" sa halant
EndChar

StartChar: thra_half
Encoding: 120 -1 120
Width: 384
Flags: W
LayerCount: 2
Fore
SplineSet
0 256 m 1,0,-1
 0 384 l 1,1,-1
 128 384 l 1,2,-1
 128 256 l 1,3,-1
 0 256 l 1,0,-1
0 640 m 1,4,-1
 0 768 l 1,5,-1
 128 768 l 1,6,-1
 256 768 l 1,7,-1
 256 640 l 1,8,-1
 128 640 l 1,9,-1
 0 640 l 1,4,-1
0 896 m 1,10,-1
 0 1024 l 1,11,-1
 128 1024 l 1,12,-1
 256 1024 l 1,13,-1
 384 1024 l 1,14,-1
 384 512 l 1,15,-1
 256 512 l 1,16,-1
 256 640 l 1,17,-1
 384 640 l 1,18,-1
 384 768 l 1,19,-1
 384 896 l 1,20,-1
 256 896 l 1,21,-1
 128 896 l 1,22,-1
 0 896 l 1,10,-1
128 384 m 1,23,-1
 128 512 l 1,24,-1
 256 512 l 1,25,-1
 256 384 l 1,26,-1
 128 384 l 1,23,-1
EndSplineSet
Validated: 5
Ligature2: "Halved subtable" thra halant
EndChar

StartChar: Pa_half
Encoding: 121 -1 121
Width: 768
Flags: W
LayerCount: 2
Fore
SplineSet
0 640 m 1,0,-1
 0 768 l 1,1,-1
 0 896 l 1,2,-1
 0 1024 l 1,3,-1
 128 1024 l 1,4,-1
 256 1024 l 1,5,-1
 384 1024 l 1,6,-1
 512 1024 l 1,7,-1
 640 1024 l 1,8,-1
 768 1024 l 1,9,-1
 768 896 l 1,10,-1
 640 896 l 1,11,-1
 512 896 l 1,12,-1
 512 768 l 1,13,-1
 512 640 l 1,14,-1
 640 640 l 1,15,-1
 768 640 l 1,16,-1
 768 512 l 1,17,-1
 640 512 l 1,18,-1
 512 512 l 1,19,-1
 512 384 l 1,20,-1
 512 256 l 1,21,-1
 512 128 l 1,22,-1
 384 128 l 1,23,-1
 384 256 l 1,24,-1
 384 384 l 1,25,-1
 384 512 l 1,26,-1
 256 512 l 1,27,-1
 128 512 l 1,28,-1
 128 640 l 1,29,-1
 256 640 l 1,30,-1
 384 640 l 1,31,-1
 384 768 l 1,32,-1
 384 896 l 1,33,-1
 256 896 l 1,34,-1
 128 896 l 1,35,-1
 128 768 l 1,36,-1
 128 640 l 1,37,-1
 0 640 l 1,0,-1
EndSplineSet
Validated: 5
Ligature2: "Halved subtable" Pa halant
EndChar

StartChar: gnya
Encoding: 122 -1 122
Width: 1024
AnchorPoint: "mark_down" 768 128 basechar 0
AnchorPoint: "mark_up" 768 1024 basechar 0
LayerCount: 2
Fore
SplineSet
0 128 m 1,0,-1
 0 384 l 1,1,-1
 128 384 l 1,2,-1
 128 128 l 1,3,-1
 0 128 l 1,0,-1
128 384 m 1,4,-1
 128 512 l 1,5,-1
 256 512 l 1,6,-1
 256 384 l 1,7,-1
 128 384 l 1,4,-1
0 896 m 1,8,-1
 0 1024 l 1,9,-1
 256 1024 l 1,10,-1
 384 1024 l 1,11,-1
 512 1024 l 1,12,-1
 640 1024 l 1,13,-1
 768 1024 l 1,14,-1
 896 1024 l 1,15,-1
 896 896 l 1,16,-1
 896 768 l 1,17,-1
 896 640 l 1,18,-1
 896 512 l 1,19,-1
 896 384 l 1,20,-1
 896 256 l 1,21,-1
 896 128 l 1,22,-1
 768 128 l 1,23,-1
 768 256 l 1,24,-1
 768 384 l 1,25,-1
 768 512 l 1,26,-1
 640 512 l 1,27,-1
 640 384 l 1,28,-1
 512 384 l 1,29,-1
 512 512 l 1,30,-1
 512 640 l 1,31,-1
 640 640 l 1,32,-1
 768 640 l 1,33,-1
 768 768 l 1,34,-1
 768 896 l 1,35,-1
 640 896 l 1,36,-1
 512 896 l 1,37,-1
 384 896 l 1,38,-1
 256 896 l 1,39,-1
 0 896 l 1,8,-1
256 256 m 1,40,-1
 256 384 l 1,41,-1
 384 384 l 1,42,-1
 512 384 l 1,43,-1
 512 256 l 1,44,-1
 384 256 l 1,45,-1
 256 256 l 1,40,-1
384 768 m 1,46,-1
 512 768 l 1,47,-1
 512 640 l 1,48,-1
 384 640 l 1,49,-1
 384 768 l 1,46,-1
EndSplineSet
Validated: 5
Ligature2: "Irregular subtable" ja halant nya
EndChar

StartChar: gnya_half
Encoding: 123 -1 123
Width: 768
Flags: W
LayerCount: 2
Fore
SplineSet
0 128 m 1,0,-1
 0 384 l 1,1,-1
 128 384 l 1,2,-1
 128 128 l 1,3,-1
 0 128 l 1,0,-1
128 384 m 1,4,-1
 128 512 l 1,5,-1
 256 512 l 1,6,-1
 256 384 l 1,7,-1
 128 384 l 1,4,-1
0 896 m 1,8,-1
 0 1024 l 1,9,-1
 256 1024 l 1,10,-1
 384 1024 l 1,11,-1
 512 1024 l 1,12,-1
 640 1024 l 1,13,-1
 768 1024 l 1,14,-1
 768 512 l 1,15,-1
 640 512 l 1,16,-1
 640 384 l 1,17,-1
 512 384 l 1,18,-1
 512 512 l 1,19,-1
 512 640 l 1,20,-1
 640 640 l 1,21,-1
 768 640 l 1,22,-1
 768 768 l 1,23,-1
 768 896 l 1,24,-1
 640 896 l 1,25,-1
 512 896 l 1,26,-1
 384 896 l 1,27,-1
 256 896 l 1,28,-1
 0 896 l 1,8,-1
256 256 m 1,29,-1
 256 384 l 1,30,-1
 384 384 l 1,31,-1
 512 384 l 1,32,-1
 512 256 l 1,33,-1
 384 256 l 1,34,-1
 256 256 l 1,29,-1
384 768 m 1,35,-1
 512 768 l 1,36,-1
 512 640 l 1,37,-1
 384 640 l 1,38,-1
 384 768 l 1,35,-1
EndSplineSet
Validated: 5
Ligature2: "Halved subtable" gnya halant
EndChar

StartChar: Xa_half
Encoding: 124 -1 124
Width: 768
Flags: W
LayerCount: 2
Fore
SplineSet
512 512 m 1,0,-1
 512 640 l 1,1,-1
 640 640 l 1,2,-1
 640 512 l 1,3,-1
 512 512 l 1,0,-1
640 384 m 1,4,-1
 640 512 l 1,5,-1
 768 512 l 1,6,-1
 768 384 l 1,7,-1
 640 384 l 1,4,-1
512 256 m 1,8,-1
 512 384 l 1,9,-1
 640 384 l 1,10,-1
 640 256 l 1,11,-1
 512 256 l 1,8,-1
256 384 m 1,12,-1
 256 512 l 1,13,-1
 384 512 l 1,14,-1
 384 384 l 1,15,-1
 256 384 l 1,12,-1
128 640 m 1,16,-1
 128 768 l 1,17,-1
 256 768 l 1,18,-1
 256 640 l 1,19,-1
 128 640 l 1,16,-1
0 896 m 1,20,-1
 0 1024 l 1,21,-1
 128 1024 l 1,22,-1
 256 1024 l 1,23,-1
 384 1024 l 1,24,-1
 512 1024 l 1,25,-1
 640 1024 l 1,26,-1
 768 1024 l 1,27,-1
 768 896 l 1,28,-1
 640 896 l 1,29,-1
 512 896 l 1,30,-1
 384 896 l 1,31,-1
 256 896 l 1,32,-1
 128 896 l 1,33,-1
 0 896 l 1,20,-1
0 384 m 1,34,-1
 0 512 l 1,35,-1
 0 640 l 1,36,-1
 128 640 l 1,37,-1
 128 512 l 1,38,-1
 128 384 l 1,39,-1
 0 384 l 1,34,-1
128 256 m 1,40,-1
 128 384 l 1,41,-1
 256 384 l 1,42,-1
 256 256 l 1,43,-1
 128 256 l 1,40,-1
256 128 m 1,44,-1
 256 256 l 1,45,-1
 384 256 l 1,46,-1
 512 256 l 1,47,-1
 512 128 l 1,48,-1
 384 128 l 1,49,-1
 256 128 l 1,44,-1
EndSplineSet
Validated: 5
Ligature2: "Halved subtable" Xa halant
EndChar

StartChar: La_half
Encoding: 125 -1 125
Width: 768
Flags: W
LayerCount: 2
Fore
SplineSet
0 384 m 1,0,-1
 0 512 l 1,1,-1
 0 640 l 1,2,-1
 128 640 l 1,3,-1
 128 512 l 1,4,-1
 128 384 l 1,5,-1
 0 384 l 1,0,-1
0 896 m 1,6,-1
 0 1024 l 1,7,-1
 128 1024 l 1,8,-1
 256 1024 l 1,9,-1
 384 1024 l 1,10,-1
 512 1024 l 1,11,-1
 768 1024 l 1,12,-1
 768 896 l 1,13,-1
 512 896 l 1,14,-1
 384 896 l 1,15,-1
 256 896 l 1,16,-1
 128 896 l 1,17,-1
 0 896 l 1,6,-1
128 256 m 1,18,-1
 128 384 l 1,19,-1
 256 384 l 1,20,-1
 384 384 l 1,21,-1
 384 256 l 1,22,-1
 256 256 l 1,23,-1
 128 256 l 1,18,-1
128 640 m 1,24,-1
 128 768 l 1,25,-1
 256 768 l 1,26,-1
 384 768 l 1,27,-1
 384 640 l 1,28,-1
 256 640 l 1,29,-1
 128 640 l 1,24,-1
384 384 m 1,30,-1
 384 512 l 1,31,-1
 384 640 l 1,32,-1
 512 640 l 1,33,-1
 512 512 l 1,34,-1
 512 384 l 1,35,-1
 384 384 l 1,30,-1
512 256 m 1,36,-1
 512 384 l 1,37,-1
 640 384 l 1,38,-1
 768 384 l 1,39,-1
 768 256 l 1,40,-1
 640 256 l 1,41,-1
 512 256 l 1,36,-1
512 640 m 1,42,-1
 512 768 l 1,43,-1
 640 768 l 1,44,-1
 768 768 l 1,45,-1
 768 640 l 1,46,-1
 640 640 l 1,47,-1
 512 640 l 1,42,-1
EndSplineSet
Validated: 5
Ligature2: "Halved subtable" La halant
EndChar

StartChar: kza
Encoding: 126 -1 126
Width: 896
Flags: W
AnchorPoint: "mark_down" 640 128 basechar 0
AnchorPoint: "mark_up" 640 1024 basechar 0
LayerCount: 2
Fore
SplineSet
0 512 m 1,0,-1
 0 640 l 1,1,-1
 0 768 l 1,2,-1
 128 768 l 1,3,-1
 128 640 l 1,4,-1
 128 512 l 1,5,-1
 0 512 l 1,0,-1
0 896 m 1,6,-1
 0 1024 l 1,7,-1
 128 1024 l 1,8,-1
 128 896 l 1,9,-1
 0 896 l 1,6,-1
128 384 m 1,10,-1
 128 512 l 1,11,-1
 256 512 l 1,12,-1
 384 512 l 1,13,-1
 384 384 l 1,14,-1
 256 384 l 1,15,-1
 128 384 l 1,10,-1
128 768 m 1,16,-1
 128 896 l 1,17,-1
 256 896 l 1,18,-1
 256 768 l 1,19,-1
 128 768 l 1,16,-1
128 1024 m 1,20,-1
 128 1152 l 1,21,-1
 256 1152 l 1,22,-1
 256 1024 l 1,23,-1
 128 1024 l 1,20,-1
256 128 m 1,24,-1
 256 256 l 1,25,-1
 384 256 l 1,26,-1
 384 128 l 1,27,-1
 256 128 l 1,24,-1
256 640 m 1,28,-1
 256 768 l 1,29,-1
 384 768 l 1,30,-1
 512 768 l 1,31,-1
 512 640 l 1,32,-1
 384 640 l 1,33,-1
 256 640 l 1,28,-1
256 896 m 1,34,-1
 256 1024 l 1,35,-1
 384 1024 l 1,36,-1
 384 896 l 1,37,-1
 256 896 l 1,34,-1
384 256 m 1,38,-1
 384 384 l 1,39,-1
 512 384 l 1,40,-1
 512 256 l 1,41,-1
 384 256 l 1,38,-1
512 512 m 1,42,-1
 512 640 l 1,43,-1
 640 640 l 1,44,-1
 640 768 l 1,45,-1
 640 896 l 1,46,-1
 512 896 l 1,47,-1
 512 1024 l 1,48,-1
 640 1024 l 1,49,-1
 768 1024 l 1,50,-1
 768 896 l 1,51,-1
 768 768 l 1,52,-1
 768 640 l 1,53,-1
 768 512 l 1,54,-1
 768 384 l 1,55,-1
 768 256 l 1,56,-1
 768 128 l 1,57,-1
 640 128 l 1,58,-1
 640 256 l 1,59,-1
 640 384 l 1,60,-1
 640 512 l 1,61,-1
 512 512 l 1,42,-1
EndSplineSet
Validated: 5
LCarets2: 2 0 0
Ligature2: "Irregular subtable" ka halant za
EndChar

StartChar: kza_half
Encoding: 127 -1 127
Width: 640
Flags: W
LayerCount: 2
Fore
SplineSet
512 896 m 1025,0,-1
640 896 m 1025,1,-1
512 896 m 1,2,-1
 512 1024 l 1,3,-1
 640 1024 l 1,4,-1
 640 896 l 1,5,-1
 512 896 l 1,2,-1
0 512 m 1,6,-1
 0 640 l 1,7,-1
 0 768 l 1,8,-1
 128 768 l 1,9,-1
 128 640 l 1,10,-1
 128 512 l 1,11,-1
 0 512 l 1,6,-1
0 896 m 1,12,-1
 0 1024 l 1,13,-1
 128 1024 l 1,14,-1
 128 896 l 1,15,-1
 0 896 l 1,12,-1
128 384 m 1,16,-1
 128 512 l 1,17,-1
 256 512 l 1,18,-1
 384 512 l 1,19,-1
 384 384 l 1,20,-1
 256 384 l 1,21,-1
 128 384 l 1,16,-1
128 768 m 1,22,-1
 128 896 l 1,23,-1
 256 896 l 1,24,-1
 256 768 l 1,25,-1
 128 768 l 1,22,-1
128 1024 m 1,26,-1
 128 1152 l 1,27,-1
 256 1152 l 1,28,-1
 256 1024 l 1,29,-1
 128 1024 l 1,26,-1
256 128 m 1,30,-1
 256 256 l 1,31,-1
 384 256 l 1,32,-1
 384 128 l 1,33,-1
 256 128 l 1,30,-1
256 640 m 1,34,-1
 256 768 l 1,35,-1
 384 768 l 1,36,-1
 512 768 l 1,37,-1
 512 640 l 1,38,-1
 384 640 l 1,39,-1
 256 640 l 1,34,-1
256 896 m 1,40,-1
 256 1024 l 1,41,-1
 384 1024 l 1,42,-1
 384 896 l 1,43,-1
 256 896 l 1,40,-1
384 256 m 1,44,-1
 384 384 l 1,45,-1
 512 384 l 1,46,-1
 512 256 l 1,47,-1
 384 256 l 1,44,-1
512 512 m 1,48,-1
 512 640 l 1,49,-1
 640 640 l 1,50,-1
 640 512 l 1,51,-1
 512 512 l 1,48,-1
EndSplineSet
Validated: 5
Ligature2: "Halved subtable" kza halant
EndChar

StartChar: short_i_one
Encoding: 128 -1 128
Width: 256
Flags: W
LayerCount: 2
Fore
SplineSet
0 128 m 1,0,-1
 0 256 l 1,1,-1
 0 384 l 1,2,-1
 0 512 l 1,3,-1
 0 640 l 1,4,-1
 0 768 l 1,5,-1
 0 896 l 1,6,-1
 0 1024 l 1,7,-1
 0 1152 l 1,8,-1
 0 1280 l 1,9,-1
 128 1280 l 1,10,-1
 128 1152 l 1,11,-1
 128 1024 l 1,12,-1
 256 1024 l 1,13,-1
 256 1152 l 1,14,-1
 256 1280 l 1,15,-1
 384 1280 l 1,16,-1
 384 1152 l 1,17,-1
 384 1024 l 1,18,-1
 384 896 l 1,19,-1
 256 896 l 1,20,-1
 128 896 l 1,21,-1
 128 768 l 1,22,-1
 128 640 l 1,23,-1
 128 512 l 1,24,-1
 128 384 l 1,25,-1
 128 256 l 1,26,-1
 128 128 l 1,27,-1
 0 128 l 1,0,-1
128 1280 m 1,28,-1
 128 1408 l 1,29,-1
 256 1408 l 1,30,-1
 256 1280 l 1,31,-1
 128 1280 l 1,28,-1
EndSplineSet
Validated: 5
EndChar

StartChar: short_i_two
Encoding: 129 -1 129
Width: 256
Flags: W
LayerCount: 2
Fore
SplineSet
0 128 m 1,0,-1
 0 256 l 1,1,-1
 0 384 l 1,2,-1
 0 512 l 1,3,-1
 0 640 l 1,4,-1
 0 768 l 1,5,-1
 0 896 l 1,6,-1
 0 1024 l 1,7,-1
 0 1152 l 1,8,-1
 0 1280 l 1,9,-1
 128 1280 l 1,10,-1
 128 1152 l 1,11,-1
 128 1024 l 1,12,-1
 384 1024 l 1,13,-1
 384 1152 l 1,14,-1
 384 1280 l 1,15,-1
 512 1280 l 1,16,-1
 512 1152 l 1,17,-1
 512 1024 l 1,18,-1
 512 896 l 1,19,-1
 384 896 l 1,20,-1
 128 896 l 1,21,-1
 128 768 l 1,22,-1
 128 640 l 1,23,-1
 128 512 l 1,24,-1
 128 384 l 1,25,-1
 128 256 l 1,26,-1
 128 128 l 1,27,-1
 0 128 l 1,0,-1
128 1280 m 1,28,-1
 128 1408 l 1,29,-1
 384 1408 l 1,30,-1
 384 1280 l 1,31,-1
 128 1280 l 1,28,-1
EndSplineSet
Validated: 5
EndChar

StartChar: short_i_three
Encoding: 130 -1 130
Width: 256
Flags: W
LayerCount: 2
Fore
SplineSet
0 128 m 1,0,-1
 0 256 l 1,1,-1
 0 384 l 1,2,-1
 0 512 l 1,3,-1
 0 640 l 1,4,-1
 0 768 l 1,5,-1
 0 896 l 1,6,-1
 0 1024 l 1,7,-1
 0 1152 l 1,8,-1
 0 1280 l 1,9,-1
 128 1280 l 1,10,-1
 128 1152 l 1,11,-1
 128 1024 l 1,12,-1
 512 1024 l 1,13,-1
 512 1152 l 1,14,-1
 512 1280 l 1,15,-1
 640 1280 l 1,16,-1
 640 1152 l 1,17,-1
 640 1024 l 1,18,-1
 640 896 l 1,19,-1
 512 896 l 1,20,-1
 128 896 l 1,21,-1
 128 768 l 1,22,-1
 128 640 l 1,23,-1
 128 512 l 1,24,-1
 128 384 l 1,25,-1
 128 256 l 1,26,-1
 128 128 l 1,27,-1
 0 128 l 1,0,-1
128 1280 m 1,28,-1
 128 1408 l 1,29,-1
 512 1408 l 1,30,-1
 512 1280 l 1,31,-1
 128 1280 l 1,28,-1
EndSplineSet
Validated: 5
EndChar

StartChar: short_i_four
Encoding: 131 -1 131
Width: 256
Flags: W
LayerCount: 2
Fore
SplineSet
0 128 m 1,0,-1
 0 256 l 1,1,-1
 0 384 l 1,2,-1
 0 512 l 1,3,-1
 0 640 l 1,4,-1
 0 768 l 1,5,-1
 0 896 l 1,6,-1
 0 1024 l 1,7,-1
 0 1152 l 1,8,-1
 0 1280 l 1,9,-1
 128 1280 l 1,10,-1
 128 1152 l 1,11,-1
 128 1024 l 1,12,-1
 640 1024 l 1,13,-1
 640 1152 l 1,14,-1
 640 1280 l 1,15,-1
 768 1280 l 1,16,-1
 768 1152 l 1,17,-1
 768 1024 l 1,18,-1
 768 896 l 1,19,-1
 640 896 l 1,20,-1
 128 896 l 1,21,-1
 128 768 l 1,22,-1
 128 640 l 1,23,-1
 128 512 l 1,24,-1
 128 384 l 1,25,-1
 128 256 l 1,26,-1
 128 128 l 1,27,-1
 0 128 l 1,0,-1
128 1280 m 1,28,-1
 128 1408 l 1,29,-1
 640 1408 l 1,30,-1
 640 1280 l 1,31,-1
 128 1280 l 1,28,-1
EndSplineSet
Validated: 5
EndChar

StartChar: short_i_five
Encoding: 132 -1 132
Width: 256
Flags: W
LayerCount: 2
Fore
SplineSet
0 128 m 1,0,-1
 0 256 l 1,1,-1
 0 384 l 1,2,-1
 0 512 l 1,3,-1
 0 640 l 1,4,-1
 0 768 l 1,5,-1
 0 896 l 1,6,-1
 0 1024 l 1,7,-1
 0 1152 l 1,8,-1
 0 1280 l 1,9,-1
 128 1280 l 1,10,-1
 128 1152 l 1,11,-1
 128 1024 l 1,12,-1
 768 1024 l 1,13,-1
 768 1152 l 1,14,-1
 768 1280 l 1,15,-1
 896 1280 l 1,16,-1
 896 1152 l 1,17,-1
 896 1024 l 1,18,-1
 896 896 l 1,19,-1
 768 896 l 1,20,-1
 128 896 l 1,21,-1
 128 768 l 1,22,-1
 128 640 l 1,23,-1
 128 512 l 1,24,-1
 128 384 l 1,25,-1
 128 256 l 1,26,-1
 128 128 l 1,27,-1
 0 128 l 1,0,-1
128 1280 m 1,28,-1
 128 1408 l 1,29,-1
 768 1408 l 1,30,-1
 768 1280 l 1,31,-1
 128 1280 l 1,28,-1
EndSplineSet
Validated: 5
EndChar

StartChar: short_i_six
Encoding: 133 -1 133
Width: 256
Flags: W
LayerCount: 2
Fore
SplineSet
0 128 m 1,0,-1
 0 256 l 1,1,-1
 0 384 l 1,2,-1
 0 512 l 1,3,-1
 0 640 l 1,4,-1
 0 768 l 1,5,-1
 0 896 l 1,6,-1
 0 1024 l 1,7,-1
 0 1152 l 1,8,-1
 0 1280 l 1,9,-1
 128 1280 l 1,10,-1
 128 1152 l 1,11,-1
 128 1024 l 1,12,-1
 896 1024 l 1,13,-1
 896 1152 l 1,14,-1
 896 1280 l 1,15,-1
 1024 1280 l 1,16,-1
 1024 1152 l 1,17,-1
 1024 1024 l 1,18,-1
 1024 896 l 1,19,-1
 896 896 l 1,20,-1
 128 896 l 1,21,-1
 128 768 l 1,22,-1
 128 640 l 1,23,-1
 128 512 l 1,24,-1
 128 384 l 1,25,-1
 128 256 l 1,26,-1
 128 128 l 1,27,-1
 0 128 l 1,0,-1
128 1280 m 1,28,-1
 128 1408 l 1,29,-1
 896 1408 l 1,30,-1
 896 1280 l 1,31,-1
 128 1280 l 1,28,-1
EndSplineSet
Validated: 5
EndChar

StartChar: short_i_seven
Encoding: 134 -1 134
Width: 256
Flags: W
LayerCount: 2
Fore
SplineSet
0 128 m 1,0,-1
 0 256 l 1,1,-1
 0 384 l 1,2,-1
 0 512 l 1,3,-1
 0 640 l 1,4,-1
 0 768 l 1,5,-1
 0 896 l 1,6,-1
 0 1024 l 1,7,-1
 0 1152 l 1,8,-1
 0 1280 l 1,9,-1
 128 1280 l 1,10,-1
 128 1152 l 1,11,-1
 128 1024 l 1,12,-1
 1024 1024 l 1,13,-1
 1024 1152 l 1,14,-1
 1024 1280 l 1,15,-1
 1152 1280 l 1,16,-1
 1152 1152 l 1,17,-1
 1152 1024 l 1,18,-1
 1152 896 l 1,19,-1
 1024 896 l 1,20,-1
 128 896 l 1,21,-1
 128 768 l 1,22,-1
 128 640 l 1,23,-1
 128 512 l 1,24,-1
 128 384 l 1,25,-1
 128 256 l 1,26,-1
 128 128 l 1,27,-1
 0 128 l 1,0,-1
128 1280 m 1,28,-1
 128 1408 l 1,29,-1
 1024 1408 l 1,30,-1
 1024 1280 l 1,31,-1
 128 1280 l 1,28,-1
EndSplineSet
Validated: 5
EndChar

StartChar: short_i_eight
Encoding: 135 -1 135
Width: 256
Flags: W
LayerCount: 2
Fore
SplineSet
0 128 m 1,0,-1
 0 256 l 1,1,-1
 0 384 l 1,2,-1
 0 512 l 1,3,-1
 0 640 l 1,4,-1
 0 768 l 1,5,-1
 0 896 l 1,6,-1
 0 1024 l 1,7,-1
 0 1152 l 1,8,-1
 0 1280 l 1,9,-1
 128 1280 l 1,10,-1
 128 1152 l 1,11,-1
 128 1024 l 1,12,-1
 1152 1024 l 1,13,-1
 1152 1152 l 1,14,-1
 1152 1280 l 1,15,-1
 1280 1280 l 1,16,-1
 1280 1152 l 1,17,-1
 1280 1024 l 1,18,-1
 1280 896 l 1,19,-1
 1152 896 l 1,20,-1
 128 896 l 1,21,-1
 128 768 l 1,22,-1
 128 640 l 1,23,-1
 128 512 l 1,24,-1
 128 384 l 1,25,-1
 128 256 l 1,26,-1
 128 128 l 1,27,-1
 0 128 l 1,0,-1
128 1280 m 1,28,-1
 128 1408 l 1,29,-1
 1152 1408 l 1,30,-1
 1152 1280 l 1,31,-1
 128 1280 l 1,28,-1
EndSplineSet
Validated: 5
EndChar

StartChar: short_i_nine
Encoding: 136 -1 136
Width: 256
Flags: W
LayerCount: 2
Fore
SplineSet
0 128 m 1,0,-1
 0 256 l 1,1,-1
 0 384 l 1,2,-1
 0 512 l 1,3,-1
 0 640 l 1,4,-1
 0 768 l 1,5,-1
 0 896 l 1,6,-1
 0 1024 l 1,7,-1
 0 1152 l 1,8,-1
 0 1280 l 1,9,-1
 128 1280 l 1,10,-1
 128 1152 l 1,11,-1
 128 1024 l 1,12,-1
 1280 1024 l 1,13,-1
 1280 1152 l 1,14,-1
 1280 1280 l 1,15,-1
 1408 1280 l 1,16,-1
 1408 1152 l 1,17,-1
 1408 1024 l 1,18,-1
 1408 896 l 1,19,-1
 1280 896 l 1,20,-1
 128 896 l 1,21,-1
 128 768 l 1,22,-1
 128 640 l 1,23,-1
 128 512 l 1,24,-1
 128 384 l 1,25,-1
 128 256 l 1,26,-1
 128 128 l 1,27,-1
 0 128 l 1,0,-1
128 1280 m 1,28,-1
 128 1408 l 1,29,-1
 1280 1408 l 1,30,-1
 1280 1280 l 1,31,-1
 128 1280 l 1,28,-1
EndSplineSet
Validated: 5
EndChar

StartChar: long_i_one
Encoding: 137 -1 137
Width: 256
Flags: W
LayerCount: 2
Fore
SplineSet
-384 1152 m 1025,0,-1
-256 1152 m 1025,1,-1
-384 1152 m 1,2,-1
 -384 1280 l 1,3,-1
 -256 1280 l 1,4,-1
 -256 1152 l 1,5,-1
 -384 1152 l 1,2,-1
-256 896 m 1,6,-1
 -256 1024 l 1,7,-1
 -256 1152 l 1,8,-1
 -128 1152 l 1,9,-1
 -128 1024 l 1,10,-1
 0 1024 l 1,11,-1
 0 1152 l 1,12,-1
 0 1280 l 1,13,-1
 128 1280 l 1,14,-1
 128 1152 l 1,15,-1
 128 1024 l 1,16,-1
 128 896 l 1,17,-1
 128 768 l 1,18,-1
 128 640 l 1,19,-1
 128 512 l 1,20,-1
 128 384 l 1,21,-1
 128 256 l 1,22,-1
 128 128 l 1,23,-1
 0 128 l 1,24,-1
 0 256 l 1,25,-1
 0 384 l 1,26,-1
 0 512 l 1,27,-1
 0 640 l 1,28,-1
 0 768 l 1,29,-1
 0 896 l 1,30,-1
 -128 896 l 1,31,-1
 -256 896 l 1,6,-1
-256 1280 m 1,32,-1
 -256 1408 l 1,33,-1
 0 1408 l 1,34,-1
 0 1280 l 1,35,-1
 -256 1280 l 1,32,-1
EndSplineSet
Validated: 5
EndChar

StartChar: long_i_two
Encoding: 138 -1 138
Width: 256
Flags: W
LayerCount: 2
Fore
SplineSet
-384 896 m 1,0,-1
 -384 1024 l 1,1,-1
 -384 1152 l 1,2,-1
 -384 1280 l 1,3,-1
 -256 1280 l 1,4,-1
 -256 1152 l 1,5,-1
 -256 1024 l 1,6,-1
 0 1024 l 1,7,-1
 0 1152 l 1,8,-1
 0 1280 l 1,9,-1
 128 1280 l 1,10,-1
 128 1152 l 1,11,-1
 128 1024 l 1,12,-1
 128 896 l 1,13,-1
 128 768 l 1,14,-1
 128 640 l 1,15,-1
 128 512 l 1,16,-1
 128 384 l 1,17,-1
 128 256 l 1,18,-1
 128 128 l 1,19,-1
 0 128 l 1,20,-1
 0 256 l 1,21,-1
 0 384 l 1,22,-1
 0 512 l 1,23,-1
 0 640 l 1,24,-1
 0 768 l 1,25,-1
 0 896 l 1,26,-1
 -256 896 l 1,27,-1
 -384 896 l 1,0,-1
-256 1280 m 1,28,-1
 -256 1408 l 1,29,-1
 0 1408 l 1,30,-1
 0 1280 l 1,31,-1
 -256 1280 l 1,28,-1
EndSplineSet
Validated: 5
EndChar

StartChar: long_i_three
Encoding: 139 -1 139
Width: 256
Flags: W
LayerCount: 2
Fore
SplineSet
-512 896 m 1,0,-1
 -512 1024 l 1,1,-1
 -512 1152 l 1,2,-1
 -512 1280 l 1,3,-1
 -384 1280 l 1,4,-1
 -384 1152 l 1,5,-1
 -384 1024 l 1,6,-1
 0 1024 l 1,7,-1
 0 1152 l 1,8,-1
 0 1280 l 1,9,-1
 128 1280 l 1,10,-1
 128 1152 l 1,11,-1
 128 1024 l 1,12,-1
 128 896 l 1,13,-1
 128 768 l 1,14,-1
 128 640 l 1,15,-1
 128 512 l 1,16,-1
 128 384 l 1,17,-1
 128 256 l 1,18,-1
 128 128 l 1,19,-1
 0 128 l 1,20,-1
 0 256 l 1,21,-1
 0 384 l 1,22,-1
 0 512 l 1,23,-1
 0 640 l 1,24,-1
 0 768 l 1,25,-1
 0 896 l 1,26,-1
 -384 896 l 1,27,-1
 -512 896 l 1,0,-1
-384 1280 m 1,28,-1
 -384 1408 l 1,29,-1
 0 1408 l 1,30,-1
 0 1280 l 1,31,-1
 -384 1280 l 1,28,-1
EndSplineSet
Validated: 5
EndChar

StartChar: long_i_four
Encoding: 140 -1 140
Width: 256
Flags: W
LayerCount: 2
Fore
SplineSet
-640 896 m 1,0,-1
 -640 1024 l 1,1,-1
 -640 1152 l 1,2,-1
 -640 1280 l 1,3,-1
 -512 1280 l 1,4,-1
 -512 1152 l 1,5,-1
 -512 1024 l 1,6,-1
 0 1024 l 1,7,-1
 0 1152 l 1,8,-1
 0 1280 l 1,9,-1
 128 1280 l 1,10,-1
 128 1152 l 1,11,-1
 128 1024 l 1,12,-1
 128 896 l 1,13,-1
 128 768 l 1,14,-1
 128 640 l 1,15,-1
 128 512 l 1,16,-1
 128 384 l 1,17,-1
 128 256 l 1,18,-1
 128 128 l 1,19,-1
 0 128 l 1,20,-1
 0 256 l 1,21,-1
 0 384 l 1,22,-1
 0 512 l 1,23,-1
 0 640 l 1,24,-1
 0 768 l 1,25,-1
 0 896 l 1,26,-1
 -512 896 l 1,27,-1
 -640 896 l 1,0,-1
-512 1280 m 1,28,-1
 -512 1408 l 1,29,-1
 0 1408 l 1,30,-1
 0 1280 l 1,31,-1
 -512 1280 l 1,28,-1
EndSplineSet
Validated: 5
EndChar

StartChar: long_i_five
Encoding: 141 -1 141
Width: 256
Flags: W
LayerCount: 2
Fore
SplineSet
-768 896 m 1,0,-1
 -768 1024 l 1,1,-1
 -768 1152 l 1,2,-1
 -768 1280 l 1,3,-1
 -640 1280 l 1,4,-1
 -640 1152 l 1,5,-1
 -640 1024 l 1,6,-1
 0 1024 l 1,7,-1
 0 1152 l 1,8,-1
 0 1280 l 1,9,-1
 128 1280 l 1,10,-1
 128 1152 l 1,11,-1
 128 1024 l 1,12,-1
 128 896 l 1,13,-1
 128 768 l 1,14,-1
 128 640 l 1,15,-1
 128 512 l 1,16,-1
 128 384 l 1,17,-1
 128 256 l 1,18,-1
 128 128 l 1,19,-1
 0 128 l 1,20,-1
 0 256 l 1,21,-1
 0 384 l 1,22,-1
 0 512 l 1,23,-1
 0 640 l 1,24,-1
 0 768 l 1,25,-1
 0 896 l 1,26,-1
 -640 896 l 1,27,-1
 -768 896 l 1,0,-1
-640 1280 m 1,28,-1
 -640 1408 l 1,29,-1
 0 1408 l 1,30,-1
 0 1280 l 1,31,-1
 -640 1280 l 1,28,-1
EndSplineSet
Validated: 5
EndChar

StartChar: long_i_six
Encoding: 142 -1 142
Width: 256
Flags: W
LayerCount: 2
Fore
SplineSet
-896 896 m 1,0,-1
 -896 1024 l 1,1,-1
 -896 1152 l 1,2,-1
 -896 1280 l 1,3,-1
 -768 1280 l 1,4,-1
 -768 1152 l 1,5,-1
 -768 1024 l 1,6,-1
 0 1024 l 1,7,-1
 0 1152 l 1,8,-1
 0 1280 l 1,9,-1
 128 1280 l 1,10,-1
 128 1152 l 1,11,-1
 128 1024 l 1,12,-1
 128 896 l 1,13,-1
 128 768 l 1,14,-1
 128 640 l 1,15,-1
 128 512 l 1,16,-1
 128 384 l 1,17,-1
 128 256 l 1,18,-1
 128 128 l 1,19,-1
 0 128 l 1,20,-1
 0 256 l 1,21,-1
 0 384 l 1,22,-1
 0 512 l 1,23,-1
 0 640 l 1,24,-1
 0 768 l 1,25,-1
 0 896 l 1,26,-1
 -768 896 l 1,27,-1
 -896 896 l 1,0,-1
-768 1280 m 1,28,-1
 -768 1408 l 1,29,-1
 0 1408 l 1,30,-1
 0 1280 l 1,31,-1
 -768 1280 l 1,28,-1
EndSplineSet
Validated: 5
EndChar

StartChar: long_i_seven
Encoding: 143 -1 143
Width: 256
Flags: W
LayerCount: 2
Fore
SplineSet
-1024 896 m 1,0,-1
 -1024 1024 l 1,1,-1
 -1024 1152 l 1,2,-1
 -1024 1280 l 1,3,-1
 -896 1280 l 1,4,-1
 -896 1152 l 1,5,-1
 -896 1024 l 1,6,-1
 0 1024 l 1,7,-1
 0 1152 l 1,8,-1
 0 1280 l 1,9,-1
 128 1280 l 1,10,-1
 128 1152 l 1,11,-1
 128 1024 l 1,12,-1
 128 896 l 1,13,-1
 128 768 l 1,14,-1
 128 640 l 1,15,-1
 128 512 l 1,16,-1
 128 384 l 1,17,-1
 128 256 l 1,18,-1
 128 128 l 1,19,-1
 0 128 l 1,20,-1
 0 256 l 1,21,-1
 0 384 l 1,22,-1
 0 512 l 1,23,-1
 0 640 l 1,24,-1
 0 768 l 1,25,-1
 0 896 l 1,26,-1
 -896 896 l 1,27,-1
 -1024 896 l 1,0,-1
-896 1280 m 1,28,-1
 -896 1408 l 1,29,-1
 0 1408 l 1,30,-1
 0 1280 l 1,31,-1
 -896 1280 l 1,28,-1
EndSplineSet
Validated: 5
EndChar

StartChar: short_i_ten
Encoding: 144 -1 144
Width: 256
Flags: W
LayerCount: 2
Fore
SplineSet
0 128 m 1,0,-1
 0 256 l 1,1,-1
 0 384 l 1,2,-1
 0 512 l 1,3,-1
 0 640 l 1,4,-1
 0 768 l 1,5,-1
 0 896 l 1,6,-1
 0 1024 l 1,7,-1
 0 1152 l 1,8,-1
 0 1280 l 1,9,-1
 128 1280 l 1,10,-1
 128 1152 l 1,11,-1
 128 1024 l 1,12,-1
 1408 1024 l 1,13,-1
 1408 1152 l 1,14,-1
 1408 1280 l 1,15,-1
 1536 1280 l 1,16,-1
 1536 1152 l 1,17,-1
 1536 1024 l 1,18,-1
 1536 896 l 1,19,-1
 1408 896 l 1,20,-1
 128 896 l 1,21,-1
 128 768 l 1,22,-1
 128 640 l 1,23,-1
 128 512 l 1,24,-1
 128 384 l 1,25,-1
 128 256 l 1,26,-1
 128 128 l 1,27,-1
 0 128 l 1,0,-1
128 1280 m 1,28,-1
 128 1408 l 1,29,-1
 1408 1408 l 1,30,-1
 1408 1280 l 1,31,-1
 128 1280 l 1,28,-1
EndSplineSet
Validated: 5
EndChar

StartChar: short_i_eleven
Encoding: 145 -1 145
Width: 256
Flags: W
LayerCount: 2
Fore
SplineSet
0 128 m 1,0,-1
 0 256 l 1,1,-1
 0 384 l 1,2,-1
 0 512 l 1,3,-1
 0 640 l 1,4,-1
 0 768 l 1,5,-1
 0 896 l 1,6,-1
 0 1024 l 1,7,-1
 0 1152 l 1,8,-1
 0 1280 l 1,9,-1
 128 1280 l 1,10,-1
 128 1152 l 1,11,-1
 128 1024 l 1,12,-1
 1536 1024 l 1,13,-1
 1536 1152 l 1,14,-1
 1536 1280 l 1,15,-1
 1664 1280 l 1,16,-1
 1664 1152 l 1,17,-1
 1664 1024 l 1,18,-1
 1664 896 l 1,19,-1
 1536 896 l 1,20,-1
 128 896 l 1,21,-1
 128 768 l 1,22,-1
 128 640 l 1,23,-1
 128 512 l 1,24,-1
 128 384 l 1,25,-1
 128 256 l 1,26,-1
 128 128 l 1,27,-1
 0 128 l 1,0,-1
128 1280 m 1,28,-1
 128 1408 l 1,29,-1
 1536 1408 l 1,30,-1
 1536 1280 l 1,31,-1
 128 1280 l 1,28,-1
EndSplineSet
Validated: 5
EndChar

StartChar: short_i_twelve
Encoding: 146 -1 146
Width: 256
Flags: W
LayerCount: 2
Fore
SplineSet
0 128 m 1,0,-1
 0 256 l 1,1,-1
 0 384 l 1,2,-1
 0 512 l 1,3,-1
 0 640 l 1,4,-1
 0 768 l 1,5,-1
 0 896 l 1,6,-1
 0 1024 l 1,7,-1
 0 1152 l 1,8,-1
 0 1280 l 1,9,-1
 128 1280 l 1,10,-1
 128 1152 l 1,11,-1
 128 1024 l 1,12,-1
 1664 1024 l 1,13,-1
 1664 1152 l 1,14,-1
 1664 1280 l 1,15,-1
 1792 1280 l 1,16,-1
 1792 1152 l 1,17,-1
 1792 1024 l 1,18,-1
 1792 896 l 1,19,-1
 1664 896 l 1,20,-1
 128 896 l 1,21,-1
 128 768 l 1,22,-1
 128 640 l 1,23,-1
 128 512 l 1,24,-1
 128 384 l 1,25,-1
 128 256 l 1,26,-1
 128 128 l 1,27,-1
 0 128 l 1,0,-1
128 1280 m 1,28,-1
 128 1408 l 1,29,-1
 1664 1408 l 1,30,-1
 1664 1280 l 1,31,-1
 128 1280 l 1,28,-1
EndSplineSet
Validated: 5
EndChar

StartChar: ru_short
Encoding: 147 -1 147
Width: 896
Flags: W
LayerCount: 2
Fore
SplineSet
512 128 m 1024,0,-1
640 128 m 1024,1,-1
512 128 m 1,2,-1
 512 256 l 1,3,-1
 640 256 l 1,4,-1
 640 128 l 1,5,-1
 512 128 l 1,2,-1
384 896 m 1,6,-1
 384 1024 l 1,7,-1
 768 1024 l 1,8,-1
 768 896 l 1,9,-1
 384 896 l 1,6,-1
384 384 m 1,10,-1
 384 512 l 1,11,-1
 512 512 l 1,12,-1
 512 384 l 1,13,-1
 384 384 l 1,10,-1
512 512 m 1,14,-1
 512 640 l 1,15,-1
 640 640 l 1,16,-1
 640 512 l 1,17,-1
 512 512 l 1,14,-1
640 256 m 1,18,-1
 640 512 l 1,19,-1
 768 512 l 1,20,-1
 768 256 l 1,21,-1
 640 256 l 1,18,-1
0 384 m 1,22,-1
 0 512 l 1,23,-1
 128 512 l 1,24,-1
 128 384 l 1,25,-1
 0 384 l 1,22,-1
0 896 m 1,26,-1
 0 1024 l 1,27,-1
 128 1024 l 1,28,-1
 256 1024 l 1,29,-1
 384 1024 l 1,30,-1
 384 896 l 1,31,-1
 384 768 l 1,32,-1
 384 640 l 1,33,-1
 384 512 l 1,34,-1
 256 512 l 1,35,-1
 128 512 l 1,36,-1
 128 640 l 1,37,-1
 256 640 l 1,38,-1
 256 768 l 1,39,-1
 256 896 l 1,40,-1
 128 896 l 1,41,-1
 0 896 l 1,26,-1
128 256 m 1,42,-1
 128 384 l 1,43,-1
 256 384 l 1,44,-1
 256 256 l 1,45,-1
 128 256 l 1,42,-1
256 128 m 1,46,-1
 256 256 l 1,47,-1
 384 256 l 1,48,-1
 384 128 l 1,49,-1
 256 128 l 1,46,-1
EndSplineSet
Validated: 5
Ligature2: "SpecialR subtable" ra uni0941
EndChar

StartChar: ru_long
Encoding: 148 -1 148
Width: 1152
Flags: W
LayerCount: 2
Fore
SplineSet
384 896 m 1025,0,-1
1024 896 m 1025,1,-1
384 896 m 1,2,-1
 384 1024 l 1,3,-1
 1024 1024 l 1,4,-1
 1024 896 l 1,5,-1
 384 896 l 1,2,-1
384 384 m 1,6,-1
 384 512 l 1,7,-1
 512 512 l 1,8,-1
 512 384 l 1,9,-1
 384 384 l 1,6,-1
512 256 m 1,10,-1
 512 384 l 1,11,-1
 640 384 l 1,12,-1
 640 256 l 1,13,-1
 512 256 l 1,10,-1
512 512 m 1,14,-1
 512 640 l 1,15,-1
 640 640 l 1,16,-1
 768 640 l 1,17,-1
 768 512 l 1,18,-1
 640 512 l 1,19,-1
 512 512 l 1,14,-1
768 384 m 1,20,-1
 768 512 l 1,21,-1
 896 512 l 1,22,-1
 896 384 l 1,23,-1
 768 384 l 1,20,-1
896 256 m 1,24,-1
 896 384 l 1,25,-1
 1024 384 l 1,26,-1
 1024 256 l 1,27,-1
 896 256 l 1,24,-1
0 384 m 1,28,-1
 0 512 l 1,29,-1
 128 512 l 1,30,-1
 128 384 l 1,31,-1
 0 384 l 1,28,-1
0 896 m 1,32,-1
 0 1024 l 1,33,-1
 128 1024 l 1,34,-1
 256 1024 l 1,35,-1
 384 1024 l 1,36,-1
 384 896 l 1,37,-1
 384 768 l 1,38,-1
 384 640 l 1,39,-1
 384 512 l 1,40,-1
 256 512 l 1,41,-1
 128 512 l 1,42,-1
 128 640 l 1,43,-1
 256 640 l 1,44,-1
 256 768 l 1,45,-1
 256 896 l 1,46,-1
 128 896 l 1,47,-1
 0 896 l 1,32,-1
128 256 m 1,48,-1
 128 384 l 1,49,-1
 256 384 l 1,50,-1
 256 256 l 1,51,-1
 128 256 l 1,48,-1
256 128 m 1,52,-1
 256 256 l 1,53,-1
 384 256 l 1,54,-1
 384 128 l 1,55,-1
 256 128 l 1,52,-1
EndSplineSet
Validated: 5
Ligature2: "SpecialR subtable" ra uni0942
EndChar

StartChar: ra_mark_full
Encoding: 149 -1 149
Width: 0
Flags: W
AnchorPoint: "mark_down" -256 128 mark 0
LayerCount: 2
Fore
SplineSet
-384 -128 m 1,0,-1
 -384 0 l 1,1,-1
 -256 0 l 1,2,-1
 -256 -128 l 1,3,-1
 -384 -128 l 1,0,-1
-128 -128 m 1,4,-1
 -128 0 l 1,5,-1
 0 0 l 1,6,-1
 0 -128 l 1,7,-1
 -128 -128 l 1,4,-1
-256 0 m 1,8,-1
 -256 128 l 1,9,-1
 -128 128 l 1,10,-1
 -128 0 l 1,11,-1
 -256 0 l 1,8,-1
EndSplineSet
Validated: 5
EndChar

StartChar: uni0951
Encoding: 75 2385 150
Width: 0
Flags: W
AnchorPoint: "mark_up" -128 1024 mark 0
LayerCount: 2
Fore
SplineSet
-128 1152 m 1028,0,-1
0 1152 m 1028,1,-1
-128 1152 m 5,2,-1
 -128 1408 l 5,3,-1
 0 1408 l 5,4,-1
 0 1152 l 5,5,-1
 -128 1152 l 5,2,-1
EndSplineSet
Validated: 1
EndChar

StartChar: dhya
Encoding: 150 -1 151
Width: 896
Flags: W
AnchorPoint: "mark_up" 640 1024 basechar 0
AnchorPoint: "mark_down" 640 128 basechar 0
LayerCount: 2
Fore
SplineSet
0 512 m 1,0,-1
 0 640 l 1,1,-1
 0 768 l 1,2,-1
 128 768 l 1,3,-1
 128 640 l 1,4,-1
 128 512 l 1,5,-1
 0 512 l 1,0,-1
0 896 m 1,6,-1
 0 1024 l 1,7,-1
 128 1024 l 1,8,-1
 256 1024 l 1,9,-1
 384 1024 l 1,10,-1
 512 1024 l 1,11,-1
 640 1024 l 1,12,-1
 768 1024 l 1,13,-1
 768 896 l 1,14,-1
 768 768 l 1,15,-1
 768 640 l 1,16,-1
 768 512 l 1,17,-1
 768 384 l 1,18,-1
 768 256 l 1,19,-1
 768 128 l 1,20,-1
 640 128 l 1,21,-1
 640 256 l 1,22,-1
 640 384 l 1,23,-1
 512 384 l 1,24,-1
 512 512 l 1,25,-1
 640 512 l 1,26,-1
 640 640 l 1,27,-1
 640 768 l 1,28,-1
 640 896 l 1,29,-1
 512 896 l 1,30,-1
 384 896 l 1,31,-1
 256 896 l 1,32,-1
 256 768 l 1,33,-1
 128 768 l 1,34,-1
 128 896 l 1,35,-1
 0 896 l 1,6,-1
128 384 m 1,36,-1
 128 512 l 1,37,-1
 256 512 l 1,38,-1
 256 384 l 1,39,-1
 128 384 l 1,36,-1
256 256 m 1,40,-1
 256 384 l 1,41,-1
 384 384 l 1,42,-1
 512 384 l 1,43,-1
 512 256 l 1,44,-1
 384 256 l 1,45,-1
 256 256 l 1,40,-1
256 512 m 1,46,-1
 256 640 l 1,47,-1
 384 640 l 1,48,-1
 384 512 l 1,49,-1
 256 512 l 1,46,-1
EndSplineSet
Validated: 5
LCarets2: 2 0 0
Ligature2: "Irregular subtable" dha halant ya
EndChar

StartChar: short_i_two_r
Encoding: 151 -1 152
Width: 256
Flags: W
LayerCount: 2
Fore
SplineSet
512 1280 m 1029,0,-1
640 1280 m 1029,1,-1
512 1280 m 5,2,-1
 512 1408 l 5,3,-1
 640 1408 l 5,4,-1
 640 1280 l 5,5,-1
 512 1280 l 5,2,-1
0 128 m 1,6,-1
 0 256 l 1,7,-1
 0 384 l 1,8,-1
 0 512 l 1,9,-1
 0 640 l 1,10,-1
 0 768 l 1,11,-1
 0 896 l 1,12,-1
 0 1024 l 1,13,-1
 0 1152 l 1,14,-1
 0 1280 l 1,15,-1
 128 1280 l 1,16,-1
 128 1152 l 1,17,-1
 128 1024 l 1,18,-1
 384 1024 l 1,19,-1
 384 1152 l 1,20,-1
 384 1280 l 1,21,-1
 512 1280 l 1,22,-1
 512 1152 l 1,23,-1
 512 1024 l 1,24,-1
 512 896 l 1,25,-1
 384 896 l 1,26,-1
 128 896 l 1,27,-1
 128 768 l 1,28,-1
 128 640 l 1,29,-1
 128 512 l 1,30,-1
 128 384 l 1,31,-1
 128 256 l 1,32,-1
 128 128 l 1,33,-1
 0 128 l 1,6,-1
128 1280 m 1,34,-1
 128 1408 l 1,35,-1
 384 1408 l 1,36,-1
 384 1280 l 1,37,-1
 128 1280 l 1,34,-1
EndSplineSet
Validated: 5
EndChar

StartChar: long_i_one_r
Encoding: 152 -1 153
Width: 256
Flags: W
LayerCount: 2
Fore
SplineSet
128 1280 m 1029,0,-1
256 1280 m 1029,1,-1
128 1280 m 5,2,-1
 128 1408 l 5,3,-1
 256 1408 l 5,4,-1
 256 1280 l 5,5,-1
 128 1280 l 5,2,-1
-384 1152 m 1025,6,-1
-256 1152 m 1025,7,-1
-384 1152 m 1,8,-1
 -384 1280 l 1,9,-1
 -256 1280 l 1,10,-1
 -256 1152 l 1,11,-1
 -384 1152 l 1,8,-1
-256 896 m 1,12,-1
 -256 1024 l 1,13,-1
 -256 1152 l 1,14,-1
 -128 1152 l 1,15,-1
 -128 1024 l 1,16,-1
 0 1024 l 1,17,-1
 0 1152 l 1,18,-1
 0 1280 l 1,19,-1
 128 1280 l 1,20,-1
 128 1152 l 1,21,-1
 128 1024 l 1,22,-1
 128 896 l 1,23,-1
 128 768 l 1,24,-1
 128 640 l 1,25,-1
 128 512 l 1,26,-1
 128 384 l 1,27,-1
 128 256 l 1,28,-1
 128 128 l 1,29,-1
 0 128 l 1,30,-1
 0 256 l 1,31,-1
 0 384 l 1,32,-1
 0 512 l 1,33,-1
 0 640 l 1,34,-1
 0 768 l 1,35,-1
 0 896 l 1,36,-1
 -128 896 l 1,37,-1
 -256 896 l 1,12,-1
-256 1280 m 1,38,-1
 -256 1408 l 1,39,-1
 0 1408 l 1,40,-1
 0 1280 l 1,41,-1
 -256 1280 l 1,38,-1
EndSplineSet
Validated: 5
EndChar

StartChar: ra_half_down
Encoding: 153 -1 154
Width: 0
Flags: W
LayerCount: 2
Fore
SplineSet
-384 128 m 1,0,-1
 -256 128 l 1,1,-1
 -256 0 l 1,2,-1
 -384 0 l 1,3,-1
 -384 128 l 1,0,-1
-256 256 m 1,4,-1
 -128 256 l 1,5,-1
 -128 128 l 1,6,-1
 -256 128 l 1,7,-1
 -256 256 l 1,4,-1
-128 384 m 1,8,-1
 0 384 l 1,9,-1
 0 256 l 1,10,-1
 -128 256 l 1,11,-1
 -128 384 l 1,8,-1
EndSplineSet
Validated: 5
EndChar

StartChar: ra_half_up
Encoding: 154 -1 155
Width: 0
Flags: W
AnchorPoint: "mark_up" -256 1024 mark 0
LayerCount: 2
Fore
SplineSet
-128 1280 m 1029,0,-1
0 1280 m 1029,1,-1
-128 1280 m 5,2,-1
 -128 1408 l 5,3,-1
 0 1408 l 5,4,-1
 0 1280 l 5,5,-1
 -128 1280 l 5,2,-1
-256 1024 m 1028,6,-1
-128 1024 m 1028,7,-1
-256 1024 m 5,8,-1
 -256 1280 l 5,9,-1
 -128 1280 l 5,10,-1
 -128 1024 l 5,11,-1
 -256 1024 l 5,8,-1
EndSplineSet
Validated: 5
EndChar
